<svg width="122" height="122" viewBox="0 0 122 122" fill="none" xmlns="http://www.w3.org/2000/svg">
<path d="M108.444 27.1112H83.7056L80.1134 17.8935C79.6219 16.6197 78.7571 15.524 77.6324 14.75C76.5077 13.976 75.1754 13.5597 73.8101 13.5557H48.1901C46.819 13.5529 45.4792 13.966 44.3478 14.7404C43.2164 15.5149 42.3464 16.6143 41.8528 17.8935L38.2945 27.1112H13.5556C11.758 27.1112 10.0341 27.8253 8.763 29.0964C7.49192 30.3675 6.77783 32.0914 6.77783 33.889V101.667C6.77783 103.464 7.49192 105.188 8.763 106.459C10.0341 107.73 11.758 108.445 13.5556 108.445H108.444C110.242 108.445 111.966 107.73 113.237 106.459C114.508 105.188 115.222 103.464 115.222 101.667V33.889C115.222 32.0914 114.508 30.3675 113.237 29.0964C111.966 27.8253 110.242 27.1112 108.444 27.1112V27.1112ZM108.444 101.667H13.5556V33.889H42.9373L48.1901 20.3335H73.8101L79.0628 33.889H108.444V101.667Z" fill="#37BA83"/>
<path d="M30.5 64.3889C30.5 70.4212 32.2888 76.3181 35.6402 81.3338C38.9916 86.3495 43.755 90.2588 49.3282 92.5672C54.9013 94.8757 61.0338 95.4797 66.9503 94.3029C72.8667 93.126 78.3013 90.2212 82.5668 85.9557C86.8323 81.6902 89.7371 76.2556 90.914 70.3392C92.0908 64.4228 91.4868 58.2902 89.1783 52.7171C86.8699 47.1439 82.9606 42.3805 77.9449 39.0291C72.9292 35.6777 67.0323 33.8889 61 33.8889C52.9109 33.8889 45.1531 37.1023 39.4332 42.8222C33.7134 48.542 30.5 56.2998 30.5 64.3889V64.3889ZM86.0778 64.3889C86.0778 69.3488 84.607 74.1974 81.8514 78.3214C79.0958 82.4454 75.1792 85.6597 70.5969 87.5578C66.0145 89.4558 60.9722 89.9525 56.1076 88.9848C51.243 88.0172 46.7745 85.6288 43.2673 82.1216C39.7601 78.6144 37.3717 74.146 36.4041 69.2813C35.4365 64.4167 35.9331 59.3744 37.8312 54.7921C39.7292 50.2097 42.9435 46.2931 47.0675 43.5375C51.1916 40.7819 56.0401 39.3111 61 39.3111C67.6483 39.3201 74.0217 41.9651 78.7228 46.6662C83.4238 51.3672 86.0688 57.7406 86.0778 64.3889V64.3889Z" fill="#37BA83"/>
<path d="M31.7543 43.4789C31.7543 42.7599 31.4687 42.0703 30.9602 41.5619C30.4518 41.0535 29.7622 40.7678 29.0432 40.7678H20.9098C20.1908 40.7678 19.5012 41.0535 18.9928 41.5619C18.4844 42.0703 18.1987 42.7599 18.1987 43.4789C18.1987 44.198 18.4844 44.8875 18.9928 45.396C19.5012 45.9044 20.1908 46.19 20.9098 46.19H29.0432C29.7622 46.19 30.4518 45.9044 30.9602 45.396C31.4687 44.8875 31.7543 44.198 31.7543 43.4789V43.4789Z" fill="#37BA83"/>
<path d="M41.8188 64.3886C41.857 67.9628 42.9091 71.4527 44.8529 74.4523C46.7966 77.452 49.5521 79.8381 52.7988 81.3331L55.6794 76.6903C53.7389 76.0404 51.9707 74.9596 50.5074 73.5289C49.0442 72.0983 47.9238 70.3549 47.2304 68.4295C46.537 66.5041 46.2885 64.4467 46.5036 62.4116C46.7187 60.3765 47.3918 58.4165 48.4724 56.6786C49.553 54.9407 51.0131 53.47 52.7431 52.3769C54.4731 51.2837 56.4282 50.5964 58.4617 50.3666C60.4952 50.1367 62.5543 50.3703 64.4847 51.0497C66.415 51.7292 68.1665 52.8369 69.6077 54.2897L72.5222 49.613C69.7478 47.3652 66.3919 45.952 62.8453 45.538C59.2987 45.124 55.7074 45.7262 52.4899 47.2746C49.2724 48.823 46.5611 51.2537 44.6718 54.2837C42.7826 57.3136 41.7932 60.818 41.8188 64.3886V64.3886Z" fill="#37BA83"/>
</svg>
