<svg width="351" height="625" viewBox="0 0 351 625" fill="none" xmlns="http://www.w3.org/2000/svg">
<path d="M256.434 33.0866C256.543 33.115 259.157 33.7587 262.774 33.7587C267.269 33.7587 273.635 32.7474 278.444 27.9398C286.862 19.5222 283.732 6.48171 283.594 5.93106C283.525 5.65335 283.382 5.3996 283.18 5.19699C282.978 4.99438 282.725 4.85053 282.447 4.78084C282.338 4.75244 279.699 4.09766 276.054 4.09766C271.57 4.09766 265.216 5.10745 260.418 9.91501C251.994 18.3547 255.148 31.3889 255.287 31.9411C255.429 32.506 255.869 32.9462 256.434 33.0866ZM262.652 12.1429C266.687 8.10211 272.168 7.25326 276.056 7.25326C278.059 7.25326 279.732 7.47731 280.718 7.64771C281.217 10.6092 282.162 19.7589 276.215 25.7056C272.17 29.7495 266.674 30.6016 262.775 30.6016C260.795 30.6016 259.142 30.3822 258.162 30.215C257.657 27.255 256.699 18.1085 262.652 12.1429V12.1429Z" fill="#F1F1F1"/>
<path d="M262.013 24.1292L264.244 26.3603L267.073 23.5328L269.899 26.3603L272.132 24.1292L269.304 21.3002L271.807 18.7979L274.636 21.6253L276.867 19.3943L274.038 16.5668L276.867 13.7378L274.636 11.5068L271.807 14.3358L268.976 11.5068L266.745 13.7378L269.576 16.5668L267.073 19.0692L264.246 16.2387L262.012 18.4697L264.842 21.3002L262.013 24.1292Z" fill="#F1F1F1"/>
<path d="M319.061 92.8002C319.169 92.8286 321.784 93.4724 325.4 93.4724C329.895 93.4724 336.262 92.461 341.071 87.6534C349.489 79.2359 346.358 66.1953 346.221 65.6447C346.152 65.367 346.009 65.1132 345.807 64.9106C345.605 64.708 345.351 64.5642 345.074 64.4945C344.965 64.4661 342.325 63.8113 338.681 63.8113C334.196 63.8113 327.843 64.8211 323.045 69.6286C314.621 78.0683 317.775 91.1025 317.914 91.6547C318.056 92.2196 318.496 92.6598 319.061 92.8002ZM325.279 71.8565C329.313 67.8157 334.794 66.9669 338.682 66.9669C340.686 66.9669 342.358 67.1909 343.345 67.3613C343.843 70.3229 344.788 79.4725 338.842 85.4193C334.796 89.4632 329.301 90.3152 325.402 90.3152C323.422 90.3152 321.768 90.0959 320.788 89.9286C320.283 86.9687 319.326 77.8222 325.279 71.8565V71.8565Z" fill="#F1F1F1"/>
<path d="M324.64 83.8426L326.871 86.0736L329.7 83.2462L332.526 86.0736L334.758 83.8426L331.931 81.0136L334.433 78.5112L337.262 81.3387L339.493 79.1076L336.664 76.2802L339.493 73.4512L337.262 71.2202L334.433 74.0492L331.603 71.2202L329.372 73.4512L332.202 76.2802L329.7 78.7826L326.872 75.952L324.638 78.1831L327.469 81.0136L324.64 83.8426Z" fill="#F1F1F1"/>
<path d="M5.92781 152.514C6.03668 152.542 8.65109 153.186 12.2674 153.186C16.7626 153.186 23.129 152.175 27.9381 147.367C36.3557 138.95 33.2253 125.909 33.0881 125.359C33.0192 125.081 32.876 124.827 32.6739 124.624C32.4719 124.422 32.2185 124.278 31.941 124.208C31.8321 124.18 29.1925 123.525 25.5478 123.525C21.0637 123.525 14.7099 124.535 9.91176 129.342C1.48788 137.782 4.6419 150.816 4.78075 151.369C4.92275 151.933 5.36296 152.374 5.92781 152.514ZM12.1459 131.57C16.1804 127.53 21.6616 126.681 25.5493 126.681C27.5532 126.681 29.2256 126.905 30.2117 127.075C30.7103 130.037 31.6554 139.186 25.7087 145.133C21.6632 149.177 16.1677 150.029 12.269 150.029C10.2889 150.029 8.63532 149.81 7.6555 149.642C7.15061 146.683 6.19288 137.536 12.1459 131.57V131.57Z" fill="#F1F1F1"/>
<path d="M11.5069 143.557L13.738 145.788L16.567 142.96L19.3928 145.788L21.6254 143.557L18.798 140.728L21.3004 138.225L24.1294 141.053L26.3604 138.822L23.5314 135.994L26.3604 133.165L24.1294 130.934L21.3004 133.763L18.4698 130.934L16.2388 133.165L19.0694 135.994L16.567 138.497L13.7395 135.666L11.5054 137.897L14.3359 140.728L11.5069 143.557Z" fill="#F1F1F1"/>
<path d="M68.5543 212.228C68.6631 212.256 71.2776 212.9 74.8939 212.9C79.389 212.9 85.7555 211.888 90.5646 207.081C98.9822 198.663 95.8518 185.623 95.7145 185.072C95.6456 184.794 95.5025 184.541 95.3004 184.338C95.0984 184.135 94.845 183.992 94.5675 183.922C94.4586 183.894 91.819 183.239 88.1742 183.239C83.6901 183.239 77.3363 184.249 72.5382 189.056C64.1143 197.496 67.2684 210.53 67.4072 211.082C67.5492 211.647 67.9894 212.087 68.5543 212.228ZM74.7724 191.284C78.8068 187.243 84.2881 186.394 88.1758 186.394C90.1796 186.394 91.8521 186.618 92.8382 186.789C93.3368 189.75 94.2819 198.9 88.3352 204.847C84.2897 208.891 78.7942 209.743 74.8955 209.743C72.9153 209.743 71.2618 209.523 70.282 209.356C69.7771 206.396 68.8193 197.25 74.7724 191.284V191.284Z" fill="#F1F1F1"/>
<path d="M74.1334 203.27L76.3644 205.501L79.1934 202.674L82.0193 205.501L84.2519 203.27L81.4244 200.441L83.9268 197.939L86.7558 200.766L88.9868 198.535L86.1578 195.708L88.9868 192.879L86.7558 190.648L83.9268 193.477L81.0963 190.648L78.8652 192.879L81.6958 195.708L79.1934 198.21L76.366 195.38L74.1318 197.611L76.9624 200.441L74.1334 203.27Z" fill="#F1F1F1"/>
<path d="M131.181 271.941C131.29 271.969 133.904 272.613 137.521 272.613C142.016 272.613 148.382 271.602 153.191 266.794C161.609 258.377 158.479 245.336 158.341 244.786C158.272 244.508 158.129 244.254 157.927 244.051C157.725 243.849 157.472 243.705 157.194 243.635C157.085 243.607 154.446 242.952 150.801 242.952C146.317 242.952 139.963 243.962 135.165 248.77C126.741 257.209 129.895 270.243 130.034 270.796C130.176 271.36 130.616 271.801 131.181 271.941ZM137.399 250.997C141.434 246.957 146.915 246.108 150.803 246.108C152.806 246.108 154.479 246.332 155.465 246.502C155.964 249.464 156.909 258.613 150.962 264.56C146.916 268.604 141.421 269.456 137.522 269.456C135.542 269.456 133.888 269.237 132.909 269.069C132.404 266.11 131.446 256.963 137.399 250.997V250.997Z" fill="#F1F1F1"/>
<path d="M136.76 262.984L138.991 265.215L141.82 262.387L144.646 265.215L146.879 262.984L144.051 260.155L146.554 257.652L149.383 260.48L151.614 258.249L148.785 255.421L151.614 252.592L149.383 250.361L146.554 253.19L143.723 250.361L141.492 252.592L144.323 255.421L141.82 257.924L138.993 255.093L136.759 257.324L139.589 260.155L136.76 262.984Z" fill="#F1F1F1"/>
<path d="M193.807 331.655C193.916 331.684 196.531 332.327 200.147 332.327C204.642 332.327 211.009 331.316 215.818 326.508C224.235 318.091 221.105 305.05 220.968 304.5C220.899 304.222 220.756 303.968 220.554 303.766C220.352 303.563 220.098 303.419 219.821 303.349C219.712 303.321 217.072 302.666 213.427 302.666C208.943 302.666 202.589 303.676 197.791 308.484C189.368 316.923 192.522 329.957 192.66 330.51C192.802 331.075 193.243 331.515 193.807 331.655ZM200.026 310.711C204.06 306.671 209.541 305.822 213.429 305.822C215.433 305.822 217.105 306.046 218.091 306.216C218.59 309.178 219.535 318.328 213.588 324.274C209.543 328.318 204.047 329.17 200.149 329.17C198.168 329.17 196.515 328.951 195.535 328.784C195.03 325.824 194.073 316.677 200.026 310.711V310.711Z" fill="#F1F1F1"/>
<path d="M199.387 322.698L201.618 324.929L204.447 322.101L207.272 324.929L209.505 322.698L206.678 319.869L209.18 317.366L212.009 320.194L214.24 317.963L211.411 315.135L214.24 312.306L212.009 310.075L209.18 312.904L206.349 310.075L204.118 312.306L206.949 315.135L204.447 317.638L201.619 314.807L199.385 317.038L202.216 319.869L199.387 322.698Z" fill="#F1F1F1"/>
<path d="M193.807 500.087C193.916 500.115 196.531 500.759 200.147 500.759C204.642 500.759 211.009 499.747 215.818 494.94C224.235 486.522 221.105 473.482 220.968 472.931C220.899 472.653 220.756 472.4 220.554 472.197C220.352 471.994 220.098 471.851 219.821 471.781C219.712 471.752 217.072 471.098 213.427 471.098C208.943 471.098 202.589 472.107 197.791 476.915C189.368 485.355 192.522 498.389 192.66 498.941C192.802 499.506 193.243 499.946 193.807 500.087ZM200.026 479.143C204.06 475.102 209.541 474.253 213.429 474.253C215.433 474.253 217.105 474.477 218.091 474.648C218.59 477.609 219.535 486.759 213.588 492.706C209.543 496.75 204.047 497.602 200.149 497.602C198.168 497.602 196.515 497.382 195.535 497.215C195.03 494.255 194.073 485.109 200.026 479.143V479.143Z" fill="#F1F1F1"/>
<path d="M199.387 491.129L201.618 493.36L204.447 490.533L207.272 493.36L209.505 491.129L206.678 488.3L209.18 485.798L212.009 488.625L214.24 486.394L211.411 483.567L214.24 480.738L212.009 478.507L209.18 481.336L206.349 478.507L204.118 480.738L206.949 483.567L204.447 486.069L201.619 483.239L199.385 485.47L202.216 488.3L199.387 491.129Z" fill="#F1F1F1"/>
<path d="M256.434 391.369C256.543 391.397 259.157 392.041 262.774 392.041C267.269 392.041 273.635 391.03 278.444 386.222C286.862 377.804 283.732 364.764 283.594 364.213C283.525 363.936 283.382 363.682 283.18 363.479C282.978 363.277 282.725 363.133 282.447 363.063C282.338 363.035 279.699 362.38 276.054 362.38C271.57 362.38 265.216 363.39 260.418 368.197C251.994 376.637 255.148 389.671 255.287 390.223C255.429 390.788 255.869 391.228 256.434 391.369ZM262.652 370.425C266.687 366.384 272.168 365.535 276.056 365.535C278.059 365.535 279.732 365.76 280.718 365.93C281.217 368.891 282.162 378.041 276.215 383.988C272.17 388.032 266.674 388.884 262.775 388.884C260.795 388.884 259.142 388.664 258.162 388.497C257.657 385.537 256.699 376.391 262.652 370.425V370.425Z" fill="#F1F1F1"/>
<path d="M262.013 382.411L264.244 384.642L267.073 381.815L269.899 384.642L272.132 382.411L269.304 379.582L271.807 377.08L274.636 379.907L276.867 377.676L274.038 374.849L276.867 372.02L274.636 369.789L271.807 372.618L268.976 369.789L266.745 372.02L269.576 374.849L267.073 377.351L264.246 374.521L262.012 376.752L264.842 379.582L262.013 382.411Z" fill="#F1F1F1"/>
<path d="M256.434 559.8C256.543 559.829 259.157 560.473 262.774 560.473C267.269 560.473 273.635 559.461 278.444 554.654C286.862 546.236 283.732 533.196 283.594 532.645C283.525 532.367 283.382 532.113 283.18 531.911C282.978 531.708 282.725 531.564 282.447 531.495C282.338 531.466 279.699 530.812 276.054 530.812C271.57 530.812 265.216 531.821 260.418 536.629C251.994 545.069 255.148 558.103 255.287 558.655C255.429 559.22 255.869 559.66 256.434 559.8ZM262.652 538.857C266.687 534.816 272.168 533.967 276.056 533.967C278.059 533.967 279.732 534.191 280.718 534.362C281.217 537.323 282.162 546.473 276.215 552.42C272.17 556.463 266.674 557.315 262.775 557.315C260.795 557.315 259.142 557.096 258.162 556.929C257.657 553.969 256.699 544.822 262.652 538.857V538.857Z" fill="#F1F1F1"/>
<path d="M262.013 550.843L264.244 553.074L267.073 550.247L269.899 553.074L272.132 550.843L269.304 548.014L271.807 545.512L274.636 548.339L276.867 546.108L274.038 543.281L276.867 540.452L274.636 538.221L271.807 541.05L268.976 538.221L266.745 540.452L269.576 543.281L267.073 545.783L264.246 542.953L262.012 545.184L264.842 548.014L262.013 550.843Z" fill="#F1F1F1"/>
<path d="M319.061 451.083C319.169 451.111 321.784 451.755 325.4 451.755C329.895 451.755 336.262 450.743 341.071 445.936C349.489 437.518 346.358 424.478 346.221 423.927C346.152 423.649 346.009 423.396 345.807 423.193C345.605 422.99 345.351 422.847 345.074 422.777C344.965 422.749 342.325 422.094 338.681 422.094C334.196 422.094 327.843 423.104 323.045 427.911C314.621 436.351 317.775 449.385 317.914 449.937C318.056 450.502 318.496 450.942 319.061 451.083ZM325.279 430.139C329.313 426.098 334.794 425.249 338.682 425.249C340.686 425.249 342.358 425.473 343.345 425.644C343.843 428.605 344.788 437.755 338.842 443.702C334.796 447.746 329.301 448.598 325.402 448.598C323.422 448.598 321.768 448.378 320.788 448.211C320.283 445.251 319.326 436.105 325.279 430.139V430.139Z" fill="#F1F1F1"/>
<path d="M324.64 442.125L326.871 444.356L329.7 441.529L332.526 444.356L334.758 442.125L331.931 439.296L334.433 436.794L337.262 439.621L339.493 437.39L336.664 434.563L339.493 431.734L337.262 429.503L334.433 432.332L331.603 429.503L329.372 431.734L332.202 434.563L329.7 437.065L326.872 434.235L324.638 436.466L327.469 439.296L324.64 442.125Z" fill="#F1F1F1"/>
<path d="M319.061 619.514C319.169 619.543 321.784 620.186 325.4 620.186C329.895 620.186 336.262 619.175 341.071 614.368C349.489 605.95 346.358 592.909 346.221 592.359C346.152 592.081 346.009 591.827 345.807 591.625C345.605 591.422 345.351 591.278 345.074 591.209C344.965 591.18 342.325 590.525 338.681 590.525C334.196 590.525 327.843 591.535 323.045 596.343C314.621 604.782 317.775 617.817 317.914 618.369C318.056 618.934 318.496 619.374 319.061 619.514ZM325.279 598.571C329.313 594.53 334.794 593.681 338.682 593.681C340.686 593.681 342.358 593.905 343.345 594.075C343.843 597.037 344.788 606.187 338.842 612.133C334.796 616.177 329.301 617.029 325.402 617.029C323.422 617.029 321.768 616.81 320.788 616.643C320.283 613.683 319.326 604.536 325.279 598.571V598.571Z" fill="#F1F1F1"/>
<path d="M324.64 610.557L326.871 612.788L329.7 609.961L332.526 612.788L334.758 610.557L331.931 607.728L334.433 605.226L337.262 608.053L339.493 605.822L336.664 602.995L339.493 600.166L337.262 597.935L334.433 600.764L331.603 597.935L329.372 600.166L332.202 602.995L329.7 605.497L326.872 602.666L324.638 604.897L327.469 607.728L324.64 610.557Z" fill="#F1F1F1"/>
<path d="M332.066 3.55005C325.544 3.55005 320.233 8.86093 320.233 15.3836C320.233 19.743 322.627 23.5368 326.15 25.59V26.0337L326.113 27.2171H326.15C326.205 27.2171 327.319 27.249 328.48 27.9567C329.506 28.5803 330.582 29.6252 330.846 31.9505H321.416V34.3172H342.717V31.9505H333.286C333.55 29.6252 334.627 28.5803 335.653 27.9567C336.813 27.249 337.928 27.2171 337.983 27.2171H338.02L337.983 26.0337V25.59C341.506 23.538 343.9 19.743 343.9 15.3836C343.9 8.86093 338.589 3.55005 332.066 3.55005ZM332.066 5.91675C337.309 5.91675 341.533 10.1413 341.533 15.3836C341.533 20.6258 337.309 24.8504 332.066 24.8504C326.824 24.8504 322.6 20.6258 322.6 15.3836C322.6 10.1413 326.824 5.91675 332.066 5.91675ZM335.616 13.0169C334.966 13.0169 334.433 13.5494 334.433 14.2002C334.433 14.851 334.966 15.3836 335.616 15.3836C336.267 15.3836 336.8 14.851 336.8 14.2002C336.8 13.5494 336.267 13.0169 335.616 13.0169ZM333.25 15.3836C332.599 15.3836 332.066 15.9161 332.066 16.5669C332.066 17.2177 332.599 17.7503 333.25 17.7503C333.901 17.7503 334.433 17.2177 334.433 16.5669C334.433 15.9161 333.901 15.3836 333.25 15.3836ZM336.8 16.5669C336.149 16.5669 335.616 17.0994 335.616 17.7503C335.616 18.4011 336.149 18.9336 336.8 18.9336C337.451 18.9336 337.983 18.4011 337.983 17.7503C337.983 17.0994 337.451 16.5669 336.8 16.5669ZM330.883 17.7503C330.232 17.7503 329.7 18.2828 329.7 18.9336C329.7 19.5845 330.232 20.117 330.883 20.117C331.534 20.117 332.066 19.5845 332.066 18.9336C332.066 18.2828 331.534 17.7503 330.883 17.7503ZM334.433 18.9336C333.782 18.9336 333.25 19.4661 333.25 20.117C333.25 20.7678 333.782 21.3003 334.433 21.3003C335.084 21.3003 335.616 20.7678 335.616 20.117C335.616 19.4661 335.084 18.9336 334.433 18.9336ZM331.216 27.2171H332.917C332.595 27.5819 332.31 27.9784 332.066 28.4004C331.823 27.9784 331.538 27.5819 331.216 27.2171Z" fill="#F1F1F1"/>
<path d="M18.9336 63.2637C12.411 63.2637 7.1001 68.5745 7.1001 75.0972C7.1001 79.4566 9.49402 83.2505 13.0169 85.3036V85.7473L12.9802 86.9307H13.0169C13.0725 86.9307 14.186 86.9626 15.3469 87.6703C16.3728 88.2939 17.4497 89.3388 17.7136 91.6641H8.28345V94.0308H29.5838V91.6641H20.1536C20.4175 89.3388 21.4944 88.2939 22.5203 87.6703C23.68 86.9626 24.7947 86.9307 24.8504 86.9307H24.887L24.8504 85.7473V85.3036C28.3732 83.2516 30.7671 79.4566 30.7671 75.0972C30.7671 68.5745 25.4562 63.2637 18.9336 63.2637ZM18.9336 65.6304C24.1758 65.6304 28.4004 69.8549 28.4004 75.0972C28.4004 80.3394 24.1758 84.564 18.9336 84.564C13.6914 84.564 9.4668 80.3394 9.4668 75.0972C9.4668 69.8549 13.6914 65.6304 18.9336 65.6304ZM22.4837 72.7305C21.8328 72.7305 21.3003 73.263 21.3003 73.9138C21.3003 74.5647 21.8328 75.0972 22.4837 75.0972C23.1345 75.0972 23.667 74.5647 23.667 73.9138C23.667 73.263 23.1345 72.7305 22.4837 72.7305ZM20.117 75.0972C19.4661 75.0972 18.9336 75.6297 18.9336 76.2805C18.9336 76.9314 19.4661 77.4639 20.117 77.4639C20.7678 77.4639 21.3003 76.9314 21.3003 76.2805C21.3003 75.6297 20.7678 75.0972 20.117 75.0972ZM23.667 76.2805C23.0162 76.2805 22.4837 76.813 22.4837 77.4639C22.4837 78.1147 23.0162 78.6472 23.667 78.6472C24.3179 78.6472 24.8504 78.1147 24.8504 77.4639C24.8504 76.813 24.3179 76.2805 23.667 76.2805ZM17.7503 77.4639C17.0994 77.4639 16.5669 77.9964 16.5669 78.6472C16.5669 79.2981 17.0994 79.8306 17.7503 79.8306C18.4011 79.8306 18.9336 79.2981 18.9336 78.6472C18.9336 77.9964 18.4011 77.4639 17.7503 77.4639ZM21.3003 78.6472C20.6495 78.6472 20.117 79.1797 20.117 79.8306C20.117 80.4814 20.6495 81.0139 21.3003 81.0139C21.9511 81.0139 22.4837 80.4814 22.4837 79.8306C22.4837 79.1797 21.9511 78.6472 21.3003 78.6472ZM18.0828 86.9307H19.7844C19.4618 87.2955 19.1767 87.692 18.9336 88.114C18.6905 87.692 18.4055 87.2955 18.0828 86.9307Z" fill="#F1F1F1"/>
<path d="M81.5601 122.978C75.0374 122.978 69.7266 128.288 69.7266 134.811C69.7266 139.171 72.1205 142.964 75.6433 145.017V145.461L75.6066 146.645H75.6433C75.6989 146.645 76.8125 146.677 77.9733 147.384C78.9993 148.008 80.0761 149.053 80.34 151.378H70.9099V153.745H92.2102V151.378H82.7801C83.044 149.053 84.1208 148.008 85.1468 147.384C86.3065 146.677 87.4212 146.645 87.4768 146.645H87.5135L87.4768 145.461V145.017C90.9997 142.966 93.3936 139.171 93.3936 134.811C93.3936 128.288 88.0827 122.978 81.5601 122.978ZM81.5601 125.344C86.8023 125.344 91.0269 129.569 91.0269 134.811C91.0269 140.053 86.8023 144.278 81.5601 144.278C76.3178 144.278 72.0933 140.053 72.0933 134.811C72.0933 129.569 76.3178 125.344 81.5601 125.344ZM85.1101 132.444C84.4593 132.444 83.9268 132.977 83.9268 133.628C83.9268 134.279 84.4593 134.811 85.1101 134.811C85.761 134.811 86.2935 134.279 86.2935 133.628C86.2935 132.977 85.761 132.444 85.1101 132.444ZM82.7434 134.811C82.0926 134.811 81.5601 135.344 81.5601 135.994C81.5601 136.645 82.0926 137.178 82.7434 137.178C83.3943 137.178 83.9268 136.645 83.9268 135.994C83.9268 135.344 83.3943 134.811 82.7434 134.811ZM86.2935 135.994C85.6426 135.994 85.1101 136.527 85.1101 137.178C85.1101 137.829 85.6426 138.361 86.2935 138.361C86.9443 138.361 87.4768 137.829 87.4768 137.178C87.4768 136.527 86.9443 135.994 86.2935 135.994ZM80.3767 137.178C79.7259 137.178 79.1934 137.71 79.1934 138.361C79.1934 139.012 79.7259 139.544 80.3767 139.544C81.0276 139.544 81.5601 139.012 81.5601 138.361C81.5601 137.71 81.0276 137.178 80.3767 137.178ZM83.9268 138.361C83.2759 138.361 82.7434 138.894 82.7434 139.544C82.7434 140.195 83.2759 140.728 83.9268 140.728C84.5776 140.728 85.1101 140.195 85.1101 139.544C85.1101 138.894 84.5776 138.361 83.9268 138.361ZM80.7092 146.645H82.4109C82.0882 147.009 81.8032 147.406 81.5601 147.828C81.317 147.406 81.0319 147.009 80.7092 146.645Z" fill="#F1F1F1"/>
<path d="M144.187 182.691C137.664 182.691 132.353 188.002 132.353 194.525C132.353 198.884 134.747 202.678 138.27 204.731V205.175L138.233 206.358H138.27C138.326 206.358 139.439 206.39 140.6 207.098C141.626 207.721 142.703 208.766 142.967 211.092H133.537V213.458H154.837V211.092H145.407C145.671 208.766 146.748 207.721 147.774 207.098C148.933 206.39 150.048 206.358 150.104 206.358H150.14L150.104 205.175V204.731C153.626 202.679 156.02 198.884 156.02 194.525C156.02 188.002 150.709 182.691 144.187 182.691ZM144.187 185.058C149.429 185.058 153.654 189.282 153.654 194.525C153.654 199.767 149.429 203.991 144.187 203.991C138.945 203.991 134.72 199.767 134.72 194.525C134.72 189.282 138.945 185.058 144.187 185.058ZM147.737 192.158C147.086 192.158 146.553 192.69 146.553 193.341C146.553 193.992 147.086 194.525 147.737 194.525C148.388 194.525 148.92 193.992 148.92 193.341C148.92 192.69 148.388 192.158 147.737 192.158ZM145.37 194.525C144.719 194.525 144.187 195.057 144.187 195.708C144.187 196.359 144.719 196.891 145.37 196.891C146.021 196.891 146.553 196.359 146.553 195.708C146.553 195.057 146.021 194.525 145.37 194.525ZM148.92 195.708C148.269 195.708 147.737 196.241 147.737 196.891C147.737 197.542 148.269 198.075 148.92 198.075C149.571 198.075 150.104 197.542 150.104 196.891C150.104 196.241 149.571 195.708 148.92 195.708ZM143.003 196.891C142.353 196.891 141.82 197.424 141.82 198.075C141.82 198.726 142.353 199.258 143.003 199.258C143.654 199.258 144.187 198.726 144.187 198.075C144.187 197.424 143.654 196.891 143.003 196.891ZM146.553 198.075C145.903 198.075 145.37 198.607 145.37 199.258C145.37 199.909 145.903 200.441 146.553 200.441C147.204 200.441 147.737 199.909 147.737 199.258C147.737 198.607 147.204 198.075 146.553 198.075ZM143.336 206.358H145.038C144.715 206.723 144.43 207.119 144.187 207.542C143.944 207.119 143.659 206.723 143.336 206.358Z" fill="#F1F1F1"/>
<path d="M206.813 242.405C200.291 242.405 194.98 247.716 194.98 254.238C194.98 258.598 197.374 262.392 200.896 264.445V264.888L200.86 266.072H200.896C200.952 266.072 202.066 266.104 203.227 266.811C204.252 267.435 205.329 268.48 205.593 270.805H196.163V273.172H217.463V270.805H208.033C208.297 268.48 209.374 267.435 210.4 266.811C211.56 266.104 212.674 266.072 212.73 266.072H212.767L212.73 264.888V264.445C216.253 262.393 218.647 258.598 218.647 254.238C218.647 247.716 213.336 242.405 206.813 242.405ZM206.813 244.771C212.055 244.771 216.28 248.996 216.28 254.238C216.28 259.481 212.055 263.705 206.813 263.705C201.571 263.705 197.346 259.481 197.346 254.238C197.346 248.996 201.571 244.771 206.813 244.771ZM210.363 251.872C209.712 251.872 209.18 252.404 209.18 253.055C209.18 253.706 209.712 254.238 210.363 254.238C211.014 254.238 211.547 253.706 211.547 253.055C211.547 252.404 211.014 251.872 210.363 251.872ZM207.997 254.238C207.346 254.238 206.813 254.771 206.813 255.422C206.813 256.072 207.346 256.605 207.997 256.605C208.647 256.605 209.18 256.072 209.18 255.422C209.18 254.771 208.647 254.238 207.997 254.238ZM211.547 255.422C210.896 255.422 210.363 255.954 210.363 256.605C210.363 257.256 210.896 257.788 211.547 257.788C212.197 257.788 212.73 257.256 212.73 256.605C212.73 255.954 212.197 255.422 211.547 255.422ZM205.63 256.605C204.979 256.605 204.447 257.138 204.447 257.788C204.447 258.439 204.979 258.972 205.63 258.972C206.281 258.972 206.813 258.439 206.813 257.788C206.813 257.138 206.281 256.605 205.63 256.605ZM209.18 257.788C208.529 257.788 207.997 258.321 207.997 258.972C207.997 259.623 208.529 260.155 209.18 260.155C209.831 260.155 210.363 259.623 210.363 258.972C210.363 258.321 209.831 257.788 209.18 257.788ZM205.962 266.072H207.664C207.341 266.437 207.056 266.833 206.813 267.255C206.57 266.833 206.285 266.437 205.962 266.072Z" fill="#F1F1F1"/>
<path d="M269.44 302.119C262.917 302.119 257.606 307.43 257.606 313.952C257.606 318.312 260 322.105 263.523 324.159V324.602L263.487 325.786H263.523C263.579 325.786 264.692 325.818 265.853 326.525C266.879 327.149 267.956 328.194 268.22 330.519H258.79V332.886H280.09V330.519H270.66C270.924 328.194 272.001 327.149 273.027 326.525C274.186 325.818 275.301 325.786 275.357 325.786H275.393L275.357 324.602V324.159C278.88 322.107 281.273 318.312 281.273 313.952C281.273 307.43 275.963 302.119 269.44 302.119ZM269.44 304.485C274.682 304.485 278.907 308.71 278.907 313.952C278.907 319.194 274.682 323.419 269.44 323.419C264.198 323.419 259.973 319.194 259.973 313.952C259.973 308.71 264.198 304.485 269.44 304.485ZM272.99 311.585C272.339 311.585 271.807 312.118 271.807 312.769C271.807 313.42 272.339 313.952 272.99 313.952C273.641 313.952 274.173 313.42 274.173 312.769C274.173 312.118 273.641 311.585 272.99 311.585ZM270.623 313.952C269.972 313.952 269.44 314.485 269.44 315.136C269.44 315.786 269.972 316.319 270.623 316.319C271.274 316.319 271.807 315.786 271.807 315.136C271.807 314.485 271.274 313.952 270.623 313.952ZM274.173 315.136C273.523 315.136 272.99 315.668 272.99 316.319C272.99 316.97 273.523 317.502 274.173 317.502C274.824 317.502 275.357 316.97 275.357 316.319C275.357 315.668 274.824 315.136 274.173 315.136ZM268.257 316.319C267.606 316.319 267.073 316.851 267.073 317.502C267.073 318.153 267.606 318.686 268.257 318.686C268.907 318.686 269.44 318.153 269.44 317.502C269.44 316.851 268.907 316.319 268.257 316.319ZM271.807 317.502C271.156 317.502 270.623 318.035 270.623 318.686C270.623 319.336 271.156 319.869 271.807 319.869C272.457 319.869 272.99 319.336 272.99 318.686C272.99 318.035 272.457 317.502 271.807 317.502ZM268.589 325.786H270.291C269.968 326.151 269.683 326.547 269.44 326.969C269.197 326.547 268.912 326.151 268.589 325.786Z" fill="#F1F1F1"/>
<path d="M269.44 470.55C262.917 470.55 257.606 475.861 257.606 482.383C257.606 486.743 260 490.537 263.523 492.59V493.033L263.487 494.217H263.523C263.579 494.217 264.692 494.249 265.853 494.956C266.879 495.58 267.956 496.625 268.22 498.95H258.79V501.317H280.09V498.95H270.66C270.924 496.625 272.001 495.58 273.027 494.956C274.186 494.249 275.301 494.217 275.357 494.217H275.393L275.357 493.033V492.59C278.88 490.538 281.273 486.743 281.273 482.383C281.273 475.861 275.963 470.55 269.44 470.55ZM269.44 472.917C274.682 472.917 278.907 477.141 278.907 482.383C278.907 487.626 274.682 491.85 269.44 491.85C264.198 491.85 259.973 487.626 259.973 482.383C259.973 477.141 264.198 472.917 269.44 472.917ZM272.99 480.017C272.339 480.017 271.807 480.549 271.807 481.2C271.807 481.851 272.339 482.383 272.99 482.383C273.641 482.383 274.173 481.851 274.173 481.2C274.173 480.549 273.641 480.017 272.99 480.017ZM270.623 482.383C269.972 482.383 269.44 482.916 269.44 483.567C269.44 484.218 269.972 484.75 270.623 484.75C271.274 484.75 271.807 484.218 271.807 483.567C271.807 482.916 271.274 482.383 270.623 482.383ZM274.173 483.567C273.523 483.567 272.99 484.099 272.99 484.75C272.99 485.401 273.523 485.933 274.173 485.933C274.824 485.933 275.357 485.401 275.357 484.75C275.357 484.099 274.824 483.567 274.173 483.567ZM268.257 484.75C267.606 484.75 267.073 485.283 267.073 485.933C267.073 486.584 267.606 487.117 268.257 487.117C268.907 487.117 269.44 486.584 269.44 485.933C269.44 485.283 268.907 484.75 268.257 484.75ZM271.807 485.933C271.156 485.933 270.623 486.466 270.623 487.117C270.623 487.768 271.156 488.3 271.807 488.3C272.457 488.3 272.99 487.768 272.99 487.117C272.99 486.466 272.457 485.933 271.807 485.933ZM268.589 494.217H270.291C269.968 494.582 269.683 494.978 269.44 495.4C269.197 494.978 268.912 494.582 268.589 494.217Z" fill="#F1F1F1"/>
<path d="M332.066 361.832C325.544 361.832 320.233 367.143 320.233 373.666C320.233 378.025 322.627 381.819 326.15 383.872V384.316L326.113 385.499H326.15C326.205 385.499 327.319 385.531 328.48 386.239C329.506 386.863 330.582 387.907 330.846 390.233H321.416V392.599H342.717V390.233H333.286C333.55 387.907 334.627 386.863 335.653 386.239C336.813 385.531 337.928 385.499 337.983 385.499H338.02L337.983 384.316V383.872C341.506 381.82 343.9 378.025 343.9 373.666C343.9 367.143 338.589 361.832 332.066 361.832ZM332.066 364.199C337.309 364.199 341.533 368.424 341.533 373.666C341.533 378.908 337.309 383.133 332.066 383.133C326.824 383.133 322.6 378.908 322.6 373.666C322.6 368.424 326.824 364.199 332.066 364.199ZM335.616 371.299C334.966 371.299 334.433 371.832 334.433 372.482C334.433 373.133 334.966 373.666 335.616 373.666C336.267 373.666 336.8 373.133 336.8 372.482C336.8 371.832 336.267 371.299 335.616 371.299ZM333.25 373.666C332.599 373.666 332.066 374.198 332.066 374.849C332.066 375.5 332.599 376.032 333.25 376.032C333.901 376.032 334.433 375.5 334.433 374.849C334.433 374.198 333.901 373.666 333.25 373.666ZM336.8 374.849C336.149 374.849 335.616 375.382 335.616 376.032C335.616 376.683 336.149 377.216 336.8 377.216C337.451 377.216 337.983 376.683 337.983 376.032C337.983 375.382 337.451 374.849 336.8 374.849ZM330.883 376.032C330.232 376.032 329.7 376.565 329.7 377.216C329.7 377.867 330.232 378.399 330.883 378.399C331.534 378.399 332.066 377.867 332.066 377.216C332.066 376.565 331.534 376.032 330.883 376.032ZM334.433 377.216C333.782 377.216 333.25 377.748 333.25 378.399C333.25 379.05 333.782 379.583 334.433 379.583C335.084 379.583 335.616 379.05 335.616 378.399C335.616 377.748 335.084 377.216 334.433 377.216ZM331.216 385.499H332.917C332.595 385.864 332.31 386.261 332.066 386.683C331.823 386.261 331.538 385.864 331.216 385.499Z" fill="#F1F1F1"/>
<path d="M332.066 530.264C325.544 530.264 320.233 535.575 320.233 542.098C320.233 546.457 322.627 550.251 326.15 552.304V552.748L326.113 553.931H326.15C326.205 553.931 327.319 553.963 328.48 554.671C329.506 555.294 330.582 556.339 330.846 558.665H321.416V561.031H342.717V558.665H333.286C333.55 556.339 334.627 555.294 335.653 554.671C336.813 553.963 337.928 553.931 337.983 553.931H338.02L337.983 552.748V552.304C341.506 550.252 343.9 546.457 343.9 542.098C343.9 535.575 338.589 530.264 332.066 530.264ZM332.066 532.631C337.309 532.631 341.533 536.855 341.533 542.098C341.533 547.34 337.309 551.564 332.066 551.564C326.824 551.564 322.6 547.34 322.6 542.098C322.6 536.855 326.824 532.631 332.066 532.631ZM335.616 539.731C334.966 539.731 334.433 540.263 334.433 540.914C334.433 541.565 334.966 542.098 335.616 542.098C336.267 542.098 336.8 541.565 336.8 540.914C336.8 540.263 336.267 539.731 335.616 539.731ZM333.25 542.098C332.599 542.098 332.066 542.63 332.066 543.281C332.066 543.932 332.599 544.464 333.25 544.464C333.901 544.464 334.433 543.932 334.433 543.281C334.433 542.63 333.901 542.098 333.25 542.098ZM336.8 543.281C336.149 543.281 335.616 543.814 335.616 544.464C335.616 545.115 336.149 545.648 336.8 545.648C337.451 545.648 337.983 545.115 337.983 544.464C337.983 543.814 337.451 543.281 336.8 543.281ZM330.883 544.464C330.232 544.464 329.7 544.997 329.7 545.648C329.7 546.299 330.232 546.831 330.883 546.831C331.534 546.831 332.066 546.299 332.066 545.648C332.066 544.997 331.534 544.464 330.883 544.464ZM334.433 545.648C333.782 545.648 333.25 546.18 333.25 546.831C333.25 547.482 333.782 548.014 334.433 548.014C335.084 548.014 335.616 547.482 335.616 546.831C335.616 546.18 335.084 545.648 334.433 545.648ZM331.216 553.931H332.917C332.595 554.296 332.31 554.692 332.066 555.115C331.823 554.692 331.538 554.296 331.216 553.931Z" fill="#F1F1F1"/>
<path d="M18.9336 421.546C12.411 421.546 7.1001 426.857 7.1001 433.38C7.1001 437.739 9.49402 441.533 13.0169 443.586V444.03L12.9802 445.213H13.0169C13.0725 445.213 14.186 445.245 15.3469 445.953C16.3728 446.577 17.4497 447.622 17.7136 449.947H8.28345V452.314H29.5838V449.947H20.1536C20.4175 447.622 21.4944 446.577 22.5203 445.953C23.68 445.245 24.7947 445.213 24.8504 445.213H24.887L24.8504 444.03V443.586C28.3732 441.534 30.7671 437.739 30.7671 433.38C30.7671 426.857 25.4562 421.546 18.9336 421.546ZM18.9336 423.913C24.1758 423.913 28.4004 428.138 28.4004 433.38C28.4004 438.622 24.1758 442.847 18.9336 442.847C13.6914 442.847 9.4668 438.622 9.4668 433.38C9.4668 428.138 13.6914 423.913 18.9336 423.913ZM22.4837 431.013C21.8328 431.013 21.3003 431.546 21.3003 432.197C21.3003 432.847 21.8328 433.38 22.4837 433.38C23.1345 433.38 23.667 432.847 23.667 432.197C23.667 431.546 23.1345 431.013 22.4837 431.013ZM20.117 433.38C19.4661 433.38 18.9336 433.912 18.9336 434.563C18.9336 435.214 19.4661 435.747 20.117 435.747C20.7678 435.747 21.3003 435.214 21.3003 434.563C21.3003 433.912 20.7678 433.38 20.117 433.38ZM23.667 434.563C23.0162 434.563 22.4837 435.096 22.4837 435.747C22.4837 436.397 23.0162 436.93 23.667 436.93C24.3179 436.93 24.8504 436.397 24.8504 435.747C24.8504 435.096 24.3179 434.563 23.667 434.563ZM17.7503 435.747C17.0994 435.747 16.5669 436.279 16.5669 436.93C16.5669 437.581 17.0994 438.113 17.7503 438.113C18.4011 438.113 18.9336 437.581 18.9336 436.93C18.9336 436.279 18.4011 435.747 17.7503 435.747ZM21.3003 436.93C20.6495 436.93 20.117 437.462 20.117 438.113C20.117 438.764 20.6495 439.297 21.3003 439.297C21.9511 439.297 22.4837 438.764 22.4837 438.113C22.4837 437.462 21.9511 436.93 21.3003 436.93ZM18.0828 445.213H19.7844C19.4618 445.578 19.1767 445.975 18.9336 446.397C18.6905 445.975 18.4055 445.578 18.0828 445.213Z" fill="#F1F1F1"/>
<path d="M18.9336 589.978C12.411 589.978 7.1001 595.289 7.1001 601.812C7.1001 606.171 9.49402 609.965 13.0169 612.018V612.462L12.9802 613.645H13.0169C13.0725 613.645 14.186 613.677 15.3469 614.385C16.3728 615.008 17.4497 616.053 17.7136 618.378H8.28345V620.745H29.5838V618.378H20.1536C20.4175 616.053 21.4944 615.008 22.5203 614.385C23.68 613.677 24.7947 613.645 24.8504 613.645H24.887L24.8504 612.462V612.018C28.3732 609.966 30.7671 606.171 30.7671 601.812C30.7671 595.289 25.4562 589.978 18.9336 589.978ZM18.9336 592.345C24.1758 592.345 28.4004 596.569 28.4004 601.812C28.4004 607.054 24.1758 611.278 18.9336 611.278C13.6914 611.278 9.4668 607.054 9.4668 601.812C9.4668 596.569 13.6914 592.345 18.9336 592.345ZM22.4837 599.445C21.8328 599.445 21.3003 599.977 21.3003 600.628C21.3003 601.279 21.8328 601.812 22.4837 601.812C23.1345 601.812 23.667 601.279 23.667 600.628C23.667 599.977 23.1345 599.445 22.4837 599.445ZM20.117 601.812C19.4661 601.812 18.9336 602.344 18.9336 602.995C18.9336 603.646 19.4661 604.178 20.117 604.178C20.7678 604.178 21.3003 603.646 21.3003 602.995C21.3003 602.344 20.7678 601.812 20.117 601.812ZM23.667 602.995C23.0162 602.995 22.4837 603.527 22.4837 604.178C22.4837 604.829 23.0162 605.362 23.667 605.362C24.3179 605.362 24.8504 604.829 24.8504 604.178C24.8504 603.527 24.3179 602.995 23.667 602.995ZM17.7503 604.178C17.0994 604.178 16.5669 604.711 16.5669 605.362C16.5669 606.012 17.0994 606.545 17.7503 606.545C18.4011 606.545 18.9336 606.012 18.9336 605.362C18.9336 604.711 18.4011 604.178 17.7503 604.178ZM21.3003 605.362C20.6495 605.362 20.117 605.894 20.117 606.545C20.117 607.196 20.6495 607.728 21.3003 607.728C21.9511 607.728 22.4837 607.196 22.4837 606.545C22.4837 605.894 21.9511 605.362 21.3003 605.362ZM18.0828 613.645H19.7844C19.4618 614.01 19.1767 614.406 18.9336 614.828C18.6905 614.406 18.4055 614.01 18.0828 613.645Z" fill="#F1F1F1"/>
<path d="M206.813 3.55005C198.331 3.55005 191.43 10.4513 191.43 18.9336C191.43 27.4159 198.331 34.3172 206.813 34.3172C215.296 34.3172 222.197 27.4159 222.197 18.9336C222.197 10.4513 215.296 3.55005 206.813 3.55005ZM205.482 5.9913C205.533 5.98657 205.579 5.99485 205.63 5.9913V17.7503H202.005C201.767 14.5232 200.512 11.4548 198.42 8.98636C200.365 7.3415 202.796 6.26347 205.482 5.99012V5.9913ZM207.997 5.9913C210.652 6.2198 213.171 7.26575 215.208 8.98518C213.115 11.4537 211.858 14.5225 211.62 17.7503H207.997V5.9913ZM196.755 10.6857C198.409 12.6947 199.414 15.1579 199.64 17.7503H193.869C194.097 15.1587 195.103 12.6965 196.755 10.6868V10.6857ZM216.872 10.6857C218.524 12.6958 219.529 15.1584 219.757 17.7503H213.988C214.213 15.1584 215.219 12.6957 216.872 10.6868V10.6857ZM193.87 20.117H199.639C199.413 22.7088 198.408 25.1715 196.755 27.1804C195.103 25.1705 194.097 22.7084 193.87 20.117V20.117ZM202.005 20.117H205.63V31.8771C202.974 31.6479 200.455 30.6011 198.419 28.8809C200.511 26.4125 201.767 23.3441 202.005 20.117ZM207.997 20.117H211.621C211.859 23.344 213.115 26.4124 215.207 28.8809C213.171 30.6009 210.652 31.6477 207.997 31.8771V20.117ZM213.988 20.117H219.757C219.529 22.7084 218.523 25.1705 216.872 27.1804C215.218 25.1716 214.212 22.7089 213.987 20.117H213.988Z" fill="#F1F1F1"/>
<path d="M269.44 63.2637C260.958 63.2637 254.056 70.165 254.056 78.6472C254.056 87.1295 260.958 94.0308 269.44 94.0308C277.922 94.0308 284.824 87.1295 284.824 78.6472C284.824 70.165 277.922 63.2637 269.44 63.2637ZM268.109 65.7049C268.16 65.7002 268.206 65.7085 268.257 65.7049V77.4639H264.632C264.394 74.2368 263.139 71.1685 261.046 68.7C262.992 67.0551 265.422 65.9771 268.109 65.7037V65.7049ZM270.623 65.7049C273.279 65.9334 275.798 66.9794 277.835 68.6988C275.741 71.1673 274.485 74.2362 274.247 77.4639H270.623V65.7049ZM259.381 70.3993C261.035 72.4083 262.041 74.8715 262.266 77.4639H256.495C256.723 74.8723 257.729 72.4102 259.381 70.4005V70.3993ZM279.498 70.3993C281.15 72.4095 282.156 74.872 282.383 77.4639H276.615C276.84 74.8721 277.845 72.4093 279.498 70.4005V70.3993ZM256.496 79.8306H262.265C262.04 82.4224 261.035 84.8851 259.381 86.894C257.73 84.8841 256.724 82.422 256.496 79.8306V79.8306ZM264.632 79.8306H268.257V91.5907C265.601 91.3616 263.081 90.3148 261.045 88.5945C263.138 86.1262 264.394 83.0578 264.632 79.8306ZM270.623 79.8306H274.248C274.486 83.0576 275.741 86.126 277.833 88.5945C275.798 90.3145 273.279 91.3613 270.623 91.5907V79.8306ZM276.615 79.8306H282.383C282.156 82.422 281.15 84.8841 279.498 86.894C277.845 84.8853 276.839 82.4225 276.613 79.8306H276.615Z" fill="#F1F1F1"/>
<path d="M332.066 122.978C323.584 122.978 316.683 129.879 316.683 138.361C316.683 146.843 323.584 153.745 332.066 153.745C340.549 153.745 347.45 146.843 347.45 138.361C347.45 129.879 340.549 122.978 332.066 122.978ZM330.735 125.419C330.786 125.414 330.832 125.422 330.883 125.419V137.178H327.258C327.02 133.951 325.765 130.882 323.673 128.414C325.618 126.769 328.049 125.691 330.735 125.418V125.419ZM333.25 125.419C335.905 125.647 338.425 126.693 340.461 128.413C338.368 130.881 337.112 133.95 336.873 137.178H333.25V125.419ZM322.008 130.113C323.662 132.122 324.668 134.585 324.893 137.178H319.122C319.35 134.586 320.356 132.124 322.008 130.114V130.113ZM342.125 130.113C343.777 132.123 344.782 134.586 345.01 137.178H339.241C339.466 134.586 340.472 132.123 342.125 130.114V130.113ZM319.123 139.544H324.892C324.666 142.136 323.661 144.599 322.008 146.608C320.356 144.598 319.351 142.136 319.123 139.544V139.544ZM327.258 139.544H330.883V151.305C328.227 151.075 325.708 150.029 323.672 148.308C325.764 145.84 327.02 142.772 327.258 139.544ZM333.25 139.544H336.874C337.112 142.771 338.368 145.84 340.46 148.308C338.424 150.028 335.905 151.075 333.25 151.305V139.544ZM339.241 139.544H345.01C344.782 142.136 343.777 144.598 342.125 146.608C340.471 144.599 339.466 142.136 339.24 139.544H339.241Z" fill="#F1F1F1"/>
<path d="M18.9336 182.691C10.4513 182.691 3.55005 189.592 3.55005 198.075C3.55005 206.557 10.4513 213.458 18.9336 213.458C27.4159 213.458 34.3172 206.557 34.3172 198.075C34.3172 189.592 27.4159 182.691 18.9336 182.691ZM17.6023 185.132C17.6532 185.128 17.6994 185.136 17.7503 185.132V196.891H14.1257C13.8876 193.664 12.6322 190.596 10.5401 188.127C12.4855 186.483 14.9161 185.405 17.6023 185.131V185.132ZM20.117 185.132C22.7724 185.361 25.2918 186.407 27.3283 188.126C25.2351 190.595 23.9788 193.664 23.7404 196.891H20.117V185.132ZM8.87513 189.827C10.5289 191.836 11.5348 194.299 11.7601 196.891H5.98893C6.21699 194.3 7.22305 191.838 8.87513 189.828V189.827ZM28.9921 189.827C30.644 191.837 31.6496 194.3 31.8771 196.891H26.1083C26.3335 194.3 27.339 191.837 28.9921 189.828V189.827ZM5.99012 199.258H11.759C11.5337 201.85 10.5282 204.313 8.87513 206.321C7.22348 204.312 6.21784 201.85 5.99012 199.258V199.258ZM14.1257 199.258H17.7503V211.018C15.0945 210.789 12.5751 209.742 10.5389 208.022C12.6315 205.554 13.8873 202.485 14.1257 199.258ZM20.117 199.258H23.7416C23.9796 202.485 25.235 205.554 27.3271 208.022C25.2912 209.742 22.7723 210.789 20.117 211.018V199.258ZM26.1083 199.258H31.8771C31.6494 201.85 30.6437 204.312 28.9921 206.321C27.3386 204.313 26.3327 201.85 26.1071 199.258H26.1083Z" fill="#F1F1F1"/>
<path d="M81.5601 242.405C73.0778 242.405 66.1765 249.306 66.1765 257.788C66.1765 266.271 73.0778 273.172 81.5601 273.172C90.0423 273.172 96.9436 266.271 96.9436 257.788C96.9436 249.306 90.0423 242.405 81.5601 242.405ZM80.2288 244.846C80.2797 244.841 80.3258 244.85 80.3767 244.846V256.605H76.7521C76.5141 253.378 75.2587 250.31 73.1666 247.841C75.112 246.196 77.5426 245.118 80.2288 244.845V244.846ZM82.7434 244.846C85.3989 245.075 87.9183 246.12 89.9548 247.84C87.8615 250.308 86.6053 253.377 86.3668 256.605H82.7434V244.846ZM71.5016 249.54C73.1553 251.549 74.1612 254.013 74.3866 256.605H68.6154C68.8435 254.013 69.8495 251.551 71.5016 249.542V249.54ZM91.6186 249.54C93.2704 251.551 94.2761 254.013 94.5036 256.605H88.7347C88.96 254.013 89.9655 251.55 91.6186 249.542V249.54ZM68.6166 258.972H74.3854C74.1601 261.564 73.1547 264.026 71.5016 266.035C69.8499 264.025 68.8443 261.563 68.6166 258.972V258.972ZM76.7521 258.972H80.3767V270.732C77.721 270.503 75.2016 269.456 73.1654 267.736C75.258 265.267 76.5137 262.199 76.7521 258.972ZM82.7434 258.972H86.368C86.6061 262.199 87.8614 265.267 89.9536 267.736C87.9177 269.456 85.3988 270.502 82.7434 270.732V258.972ZM88.7347 258.972H94.5036C94.2758 261.563 93.2702 264.025 91.6186 266.035C89.965 264.026 88.9592 261.564 88.7335 258.972H88.7347Z" fill="#F1F1F1"/>
<path d="M144.187 302.119C135.705 302.119 128.803 309.02 128.803 317.502C128.803 325.984 135.705 332.886 144.187 332.886C152.669 332.886 159.57 325.984 159.57 317.502C159.57 309.02 152.669 302.119 144.187 302.119ZM142.856 304.56C142.906 304.555 142.953 304.563 143.003 304.56V316.319H139.379C139.141 313.092 137.885 310.023 135.793 307.555C137.739 305.91 140.169 304.832 142.856 304.559V304.56ZM145.37 304.56C148.026 304.788 150.545 305.834 152.581 307.554C150.488 310.022 149.232 313.091 148.994 316.319H145.37V304.56ZM134.128 309.254C135.782 311.263 136.788 313.726 137.013 316.319H131.242C131.47 313.727 132.476 311.265 134.128 309.255V309.254ZM154.245 309.254C155.897 311.264 156.903 313.727 157.13 316.319H151.361C151.587 313.727 152.592 311.264 154.245 309.255V309.254ZM131.243 318.686H137.012C136.787 321.277 135.781 323.74 134.128 325.749C132.477 323.739 131.471 321.277 131.243 318.686V318.686ZM139.379 318.686H143.003V330.446C140.348 330.217 137.828 329.17 135.792 327.449C137.885 324.981 139.14 321.913 139.379 318.686ZM145.37 318.686H148.995C149.233 321.913 150.488 324.981 152.58 327.449C150.544 329.17 148.025 330.216 145.37 330.446V318.686ZM151.361 318.686H157.13C156.903 321.277 155.897 323.739 154.245 325.749C152.592 323.74 151.586 321.278 151.36 318.686H151.361Z" fill="#F1F1F1"/>
<path d="M144.187 470.55C135.705 470.55 128.803 477.451 128.803 485.933C128.803 494.416 135.705 501.317 144.187 501.317C152.669 501.317 159.57 494.416 159.57 485.933C159.57 477.451 152.669 470.55 144.187 470.55ZM142.856 472.991C142.906 472.986 142.953 472.995 143.003 472.991V484.75H139.379C139.141 481.523 137.885 478.455 135.793 475.986C137.739 474.341 140.169 473.263 142.856 472.99V472.991ZM145.37 472.991C148.026 473.22 150.545 474.266 152.581 475.985C150.488 478.453 149.232 481.522 148.994 484.75H145.37V472.991ZM134.128 477.685C135.782 479.694 136.788 482.158 137.013 484.75H131.242C131.47 482.158 132.476 479.696 134.128 477.687V477.685ZM154.245 477.685C155.897 479.696 156.903 482.158 157.13 484.75H151.361C151.587 482.158 152.592 479.695 154.245 477.687V477.685ZM131.243 487.117H137.012C136.787 489.709 135.781 492.171 134.128 494.18C132.477 492.17 131.471 489.708 131.243 487.117V487.117ZM139.379 487.117H143.003V498.877C140.348 498.648 137.828 497.601 135.792 495.881C137.885 493.412 139.14 490.344 139.379 487.117ZM145.37 487.117H148.995C149.233 490.344 150.488 493.412 152.58 495.881C150.544 497.601 148.025 498.647 145.37 498.877V487.117ZM151.361 487.117H157.13C156.903 489.708 155.897 492.17 154.245 494.18C152.592 492.171 151.586 489.709 151.36 487.117H151.361Z" fill="#F1F1F1"/>
<path d="M206.813 361.832C198.331 361.832 191.43 368.734 191.43 377.216C191.43 385.698 198.331 392.599 206.813 392.599C215.296 392.599 222.197 385.698 222.197 377.216C222.197 368.734 215.296 361.832 206.813 361.832ZM205.482 364.274C205.533 364.269 205.579 364.277 205.63 364.274V376.032H202.005C201.767 372.805 200.512 369.737 198.42 367.269C200.365 365.624 202.796 364.546 205.482 364.272V364.274ZM207.997 364.274C210.652 364.502 213.171 365.548 215.208 367.267C213.115 369.736 211.858 372.805 211.62 376.032H207.997V364.274ZM196.755 368.968C198.409 370.977 199.414 373.44 199.64 376.032H193.869C194.097 373.441 195.103 370.979 196.755 368.969V368.968ZM216.872 368.968C218.524 370.978 219.529 373.441 219.757 376.032H213.988C214.213 373.441 215.219 370.978 216.872 368.969V368.968ZM193.87 378.399H199.639C199.413 380.991 198.408 383.454 196.755 385.463C195.103 383.453 194.097 380.991 193.87 378.399V378.399ZM202.005 378.399H205.63V390.159C202.974 389.93 200.455 388.883 198.419 387.163C200.511 384.695 201.767 381.626 202.005 378.399ZM207.997 378.399H211.621C211.859 381.626 213.115 384.695 215.207 387.163C213.171 388.883 210.652 389.93 207.997 390.159V378.399ZM213.988 378.399H219.757C219.529 380.991 218.523 383.453 216.872 385.463C215.218 383.454 214.212 380.991 213.987 378.399H213.988Z" fill="#F1F1F1"/>
<path d="M206.813 530.264C198.331 530.264 191.43 537.165 191.43 545.648C191.43 554.13 198.331 561.031 206.813 561.031C215.296 561.031 222.197 554.13 222.197 545.648C222.197 537.165 215.296 530.264 206.813 530.264ZM205.482 532.705C205.533 532.701 205.579 532.709 205.63 532.705V544.464H202.005C201.767 541.237 200.512 538.169 198.42 535.7C200.365 534.056 202.796 532.978 205.482 532.704V532.705ZM207.997 532.705C210.652 532.934 213.171 533.98 215.208 535.699C213.115 538.168 211.858 541.237 211.62 544.464H207.997V532.705ZM196.755 537.4C198.409 539.409 199.414 541.872 199.64 544.464H193.869C194.097 541.873 195.103 539.411 196.755 537.401V537.4ZM216.872 537.4C218.524 539.41 219.529 541.873 219.757 544.464H213.988C214.213 541.873 215.219 539.41 216.872 537.401V537.4ZM193.87 546.831H199.639C199.413 549.423 198.408 551.886 196.755 553.894C195.103 551.885 194.097 549.423 193.87 546.831V546.831ZM202.005 546.831H205.63V558.591C202.974 558.362 200.455 557.315 198.419 555.595C200.511 553.127 201.767 550.058 202.005 546.831ZM207.997 546.831H211.621C211.859 550.058 213.115 553.126 215.207 555.595C213.171 557.315 210.652 558.362 207.997 558.591V546.831ZM213.988 546.831H219.757C219.529 549.423 218.523 551.885 216.872 553.894C215.218 551.886 214.212 549.423 213.987 546.831H213.988Z" fill="#F1F1F1"/>
<path d="M269.44 421.546C260.958 421.546 254.056 428.448 254.056 436.93C254.056 445.412 260.958 452.314 269.44 452.314C277.922 452.314 284.824 445.412 284.824 436.93C284.824 428.448 277.922 421.546 269.44 421.546ZM268.109 423.988C268.16 423.983 268.206 423.991 268.257 423.988V435.747H264.632C264.394 432.52 263.139 429.451 261.046 426.983C262.992 425.338 265.422 424.26 268.109 423.986V423.988ZM270.623 423.988C273.279 424.216 275.798 425.262 277.835 426.982C275.741 429.45 274.485 432.519 274.247 435.747H270.623V423.988ZM259.381 428.682C261.035 430.691 262.041 433.154 262.266 435.747H256.495C256.723 433.155 257.729 430.693 259.381 428.683V428.682ZM279.498 428.682C281.15 430.692 282.156 433.155 282.383 435.747H276.615C276.84 433.155 277.845 430.692 279.498 428.683V428.682ZM256.496 438.113H262.265C262.04 440.705 261.035 443.168 259.381 445.177C257.73 443.167 256.724 440.705 256.496 438.113V438.113ZM264.632 438.113H268.257V449.873C265.601 449.644 263.081 448.597 261.045 446.877C263.138 444.409 264.394 441.34 264.632 438.113ZM270.623 438.113H274.248C274.486 441.34 275.741 444.409 277.833 446.877C275.798 448.597 273.279 449.644 270.623 449.873V438.113ZM276.615 438.113H282.383C282.156 440.705 281.15 443.167 279.498 445.177C277.845 443.168 276.839 440.705 276.613 438.113H276.615Z" fill="#F1F1F1"/>
<path d="M269.44 589.978C260.958 589.978 254.056 596.879 254.056 605.362C254.056 613.844 260.958 620.745 269.44 620.745C277.922 620.745 284.824 613.844 284.824 605.362C284.824 596.879 277.922 589.978 269.44 589.978ZM268.109 592.419C268.16 592.415 268.206 592.423 268.257 592.419V604.178H264.632C264.394 600.951 263.139 597.883 261.046 595.414C262.992 593.769 265.422 592.691 268.109 592.418V592.419ZM270.623 592.419C273.279 592.648 275.798 593.694 277.835 595.413C275.741 597.882 274.485 600.951 274.247 604.178H270.623V592.419ZM259.381 597.114C261.035 599.123 262.041 601.586 262.266 604.178H256.495C256.723 601.587 257.729 599.125 259.381 597.115V597.114ZM279.498 597.114C281.15 599.124 282.156 601.586 282.383 604.178H276.615C276.84 601.586 277.845 599.124 279.498 597.115V597.114ZM256.496 606.545H262.265C262.04 609.137 261.035 611.599 259.381 613.608C257.73 611.599 256.724 609.136 256.496 606.545V606.545ZM264.632 606.545H268.257V618.305C265.601 618.076 263.081 617.029 261.045 615.309C263.138 612.841 264.394 609.772 264.632 606.545ZM270.623 606.545H274.248C274.486 609.772 275.741 612.84 277.833 615.309C275.798 617.029 273.279 618.076 270.623 618.305V606.545ZM276.615 606.545H282.383C282.156 609.136 281.15 611.599 279.498 613.608C277.845 611.6 276.839 609.137 276.613 606.545H276.615Z" fill="#F1F1F1"/>
<path d="M7.77697 30.1062C10.7669 33.0961 14.7272 34.7418 18.9336 34.7418C23.14 34.7418 27.1019 33.0961 30.0902 30.1062C36.2421 23.9543 36.2421 13.9448 30.0902 7.79134C27.1019 4.80299 23.1384 3.15576 18.9336 3.15576C14.7288 3.15576 10.7653 4.80299 7.77697 7.79134C1.62512 13.9432 1.62512 23.9543 7.77697 30.1062ZM27.8592 27.8752C26.2058 29.5332 24.1221 30.6966 21.8431 31.2343C21.8289 28.7067 22.7677 26.2705 24.5111 24.5271C26.3461 22.6921 28.8217 21.6429 31.2594 21.6066C30.7568 23.9812 29.5756 26.1589 27.8592 27.8752V27.8752ZM31.5276 18.4636C28.1764 18.4305 24.7683 19.8094 22.2801 22.2961C19.8629 24.7133 18.6086 28.1024 18.7096 31.5751C15.4367 31.5252 12.3132 30.1973 10.0064 27.8752C7.6967 25.5643 6.37707 22.4452 6.32697 19.1783C6.44846 19.1815 6.56995 19.2004 6.69144 19.2004C10.0285 19.2004 13.2551 17.9319 15.5855 15.603C18.0784 13.1101 19.4622 9.70364 19.4196 6.33661C22.5986 6.45078 25.6155 7.76886 27.8592 10.0239C30.1057 12.2717 31.4166 15.2876 31.5276 18.4636V18.4636ZM10.008 10.0239C11.7227 8.30117 13.9002 7.11244 16.2766 6.60168C16.2482 9.05516 15.1958 11.5307 13.3561 13.372C11.6142 15.1123 9.18752 16.048 6.66935 16.0401C7.19806 13.7621 8.35468 11.6779 10.008 10.0239V10.0239Z" fill="#F1F1F1"/>
<path d="M70.4034 89.8198C73.3934 92.8097 77.3536 94.4554 81.5601 94.4554C85.7665 94.4554 89.7283 92.8097 92.7167 89.8198C98.8685 83.668 98.8685 73.6584 92.7167 67.505C89.7283 64.5166 85.7649 62.8694 81.5601 62.8694C77.3552 62.8694 73.3918 64.5166 70.4034 67.505C64.2516 73.6568 64.2516 83.668 70.4034 89.8198ZM90.4857 87.5888C88.8322 89.2469 86.7486 90.4103 84.4695 90.9479C84.4553 88.4203 85.3941 85.9842 87.1376 84.2407C88.9726 82.4057 91.4481 81.3565 93.8858 81.3202C93.3833 83.6948 92.2021 85.8725 90.4857 87.5888V87.5888ZM94.1541 78.1772C90.8028 78.1441 87.3948 79.5231 84.9066 82.0097C82.4894 84.4269 81.235 87.816 81.336 91.2887C78.0632 91.2388 74.9397 89.9109 72.6329 87.5888C70.3232 85.2779 69.0035 82.1588 68.9534 78.892C69.0749 78.8951 69.1964 78.914 69.3179 78.914C72.655 78.914 75.8816 77.6455 78.212 75.3167C80.7049 72.8237 82.0886 69.4173 82.046 66.0502C85.2251 66.1644 88.242 67.4825 90.4857 69.7376C92.7322 71.9853 94.0431 75.0012 94.1541 78.1772V78.1772ZM72.6344 69.7376C74.3492 68.0148 76.5266 66.8261 78.903 66.3153C78.8746 68.7688 77.8223 71.2444 75.9825 73.0856C74.2406 74.826 71.814 75.7616 69.2958 75.7537C69.8245 73.4757 70.9811 71.3915 72.6344 69.7376V69.7376Z" fill="#F1F1F1"/>
<path d="M133.03 149.534C136.02 152.524 139.98 154.169 144.187 154.169C148.393 154.169 152.355 152.524 155.343 149.534C161.495 143.382 161.495 133.372 155.343 127.219C152.355 124.23 148.392 122.583 144.187 122.583C139.982 122.583 136.018 124.23 133.03 127.219C126.878 133.371 126.878 143.382 133.03 149.534ZM153.112 147.303C151.459 148.961 149.375 150.124 147.096 150.662C147.082 148.134 148.021 145.698 149.764 143.955C151.599 142.12 154.075 141.07 156.513 141.034C156.01 143.409 154.829 145.586 153.112 147.303V147.303ZM156.781 137.891C153.43 137.858 150.021 139.237 147.533 141.724C145.116 144.141 143.862 147.53 143.963 151.003C140.69 150.953 137.566 149.625 135.26 147.303C132.95 144.992 131.63 141.873 131.58 138.606C131.702 138.609 131.823 138.628 131.945 138.628C135.282 138.628 138.508 137.359 140.839 135.031C143.332 132.538 144.715 129.131 144.673 125.764C147.852 125.878 150.869 127.196 153.112 129.451C155.359 131.699 156.67 134.715 156.781 137.891V137.891ZM135.261 129.451C136.976 127.729 139.153 126.54 141.53 126.029C141.501 128.483 140.449 130.958 138.609 132.8C136.867 134.54 134.441 135.475 131.923 135.468C132.451 133.19 133.608 131.105 135.261 129.451V129.451Z" fill="#F1F1F1"/>
<path d="M195.657 209.247C198.647 212.237 202.607 213.883 206.813 213.883C211.02 213.883 214.982 212.237 217.97 209.247C224.122 203.095 224.122 193.086 217.97 186.932C214.982 183.944 211.018 182.297 206.813 182.297C202.608 182.297 198.645 183.944 195.657 186.932C189.505 193.084 189.505 203.095 195.657 209.247ZM215.739 207.016C214.085 208.674 212.002 209.838 209.723 210.375C209.709 207.848 210.647 205.412 212.391 203.668C214.226 201.833 216.701 200.784 219.139 200.748C218.636 203.122 217.455 205.3 215.739 207.016V207.016ZM219.407 197.605C216.056 197.572 212.648 198.951 210.16 201.437C207.743 203.854 206.488 207.243 206.589 210.716C203.316 210.666 200.193 209.338 197.886 207.016C195.576 204.705 194.257 201.586 194.207 198.319C194.328 198.323 194.45 198.342 194.571 198.342C197.908 198.342 201.135 197.073 203.465 194.744C205.958 192.251 207.342 188.845 207.299 185.478C210.478 185.592 213.495 186.91 215.739 189.165C217.985 191.413 219.296 194.429 219.407 197.605V197.605ZM197.888 189.165C199.602 187.442 201.78 186.254 204.156 185.743C204.128 188.196 203.075 190.672 201.236 192.513C199.494 194.253 197.067 195.189 194.549 195.181C195.078 192.903 196.234 190.819 197.888 189.165V189.165Z" fill="#F1F1F1"/>
<path d="M258.283 268.961C261.273 271.951 265.234 273.596 269.44 273.596C273.646 273.596 277.608 271.951 280.597 268.961C286.748 262.809 286.748 252.799 280.597 246.646C277.608 243.657 273.645 242.01 269.44 242.01C265.235 242.01 261.272 243.657 258.283 246.646C252.131 252.798 252.131 262.809 258.283 268.961ZM278.366 266.73C276.712 268.388 274.628 269.551 272.349 270.089C272.335 267.561 273.274 265.125 275.017 263.382C276.852 261.547 279.328 260.497 281.766 260.461C281.263 262.836 280.082 265.013 278.366 266.73V266.73ZM282.034 257.318C278.683 257.285 275.275 258.664 272.786 261.151C270.369 263.568 269.115 266.957 269.216 270.43C265.943 270.38 262.82 269.052 260.513 266.73C258.203 264.419 256.883 261.3 256.833 258.033C256.955 258.036 257.076 258.055 257.198 258.055C260.535 258.055 263.761 256.786 266.092 254.458C268.585 251.965 269.969 248.558 269.926 245.191C273.105 245.305 276.122 246.623 278.366 248.878C280.612 251.126 281.923 254.142 282.034 257.318V257.318ZM260.514 248.878C262.229 247.156 264.406 245.967 266.783 245.456C266.755 247.91 265.702 250.385 263.862 252.227C262.121 253.967 259.694 254.902 257.176 254.895C257.704 252.617 258.861 250.532 260.514 248.878V248.878Z" fill="#F1F1F1"/>
<path d="M320.91 328.675C323.9 331.665 327.86 333.31 332.066 333.31C336.273 333.31 340.235 331.665 343.223 328.675C349.375 322.523 349.375 312.513 343.223 306.36C340.235 303.372 336.271 301.724 332.066 301.724C327.862 301.724 323.898 303.372 320.91 306.36C314.758 312.512 314.758 322.523 320.91 328.675ZM340.992 326.444C339.339 328.102 337.255 329.265 334.976 329.803C334.962 327.275 335.9 324.839 337.644 323.096C339.479 321.261 341.954 320.211 344.392 320.175C343.89 322.55 342.708 324.727 340.992 326.444V326.444ZM344.66 317.032C341.309 316.999 337.901 318.378 335.413 320.865C332.996 323.282 331.741 326.671 331.842 330.144C328.57 330.094 325.446 328.766 323.139 326.444C320.83 324.133 319.51 321.014 319.46 317.747C319.581 317.75 319.703 317.769 319.824 317.769C323.161 317.769 326.388 316.5 328.718 314.172C331.211 311.679 332.595 308.272 332.552 304.905C335.731 305.019 338.748 306.337 340.992 308.593C343.239 310.84 344.549 313.856 344.66 317.032V317.032ZM323.141 308.593C324.856 306.87 327.033 305.681 329.409 305.17C329.381 307.624 328.329 310.099 326.489 311.941C324.747 313.681 322.32 314.617 319.802 314.609C320.331 312.331 321.487 310.246 323.141 308.593V308.593Z" fill="#F1F1F1"/>
<path d="M320.91 497.106C323.9 500.096 327.86 501.742 332.066 501.742C336.273 501.742 340.235 500.096 343.223 497.106C349.375 490.954 349.375 480.945 343.223 474.791C340.235 471.803 336.271 470.156 332.066 470.156C327.862 470.156 323.898 471.803 320.91 474.791C314.758 480.943 314.758 490.954 320.91 497.106ZM340.992 494.875C339.339 496.533 337.255 497.697 334.976 498.234C334.962 495.707 335.9 493.271 337.644 491.527C339.479 489.692 341.954 488.643 344.392 488.607C343.89 490.981 342.708 493.159 340.992 494.875V494.875ZM344.66 485.464C341.309 485.43 337.901 486.809 335.413 489.296C332.996 491.713 331.741 495.102 331.842 498.575C328.57 498.525 325.446 497.197 323.139 494.875C320.83 492.564 319.51 489.445 319.46 486.178C319.581 486.181 319.703 486.2 319.824 486.2C323.161 486.2 326.388 484.932 328.718 482.603C331.211 480.11 332.595 476.704 332.552 473.337C335.731 473.451 338.748 474.769 340.992 477.024C343.239 479.272 344.549 482.288 344.66 485.464V485.464ZM323.141 477.024C324.856 475.301 327.033 474.112 329.409 473.602C329.381 476.055 328.329 478.531 326.489 480.372C324.747 482.112 322.32 483.048 319.802 483.04C320.331 480.762 321.487 478.678 323.141 477.024V477.024Z" fill="#F1F1F1"/>
<path d="M7.77697 388.388C10.7669 391.378 14.7272 393.024 18.9336 393.024C23.14 393.024 27.1019 391.378 30.0902 388.388C36.2421 382.237 36.2421 372.227 30.0902 366.074C27.1019 363.085 23.1384 361.438 18.9336 361.438C14.7288 361.438 10.7653 363.085 7.77697 366.074C1.62512 372.225 1.62512 382.237 7.77697 388.388ZM27.8592 386.157C26.2058 387.815 24.1221 388.979 21.8431 389.517C21.8289 386.989 22.7677 384.553 24.5111 382.809C26.3461 380.974 28.8217 379.925 31.2594 379.889C30.7568 382.263 29.5756 384.441 27.8592 386.157V386.157ZM31.5276 376.746C28.1764 376.713 24.7683 378.092 22.2801 380.578C19.8629 382.995 18.6086 386.385 18.7096 389.857C15.4367 389.807 12.3132 388.48 10.0064 386.157C7.6967 383.847 6.37707 380.727 6.32697 377.461C6.44846 377.464 6.56995 377.483 6.69144 377.483C10.0285 377.483 13.2551 376.214 15.5855 373.885C18.0784 371.392 19.4622 367.986 19.4196 364.619C22.5986 364.733 25.6155 366.051 27.8592 368.306C30.1057 370.554 31.4166 373.57 31.5276 376.746V376.746ZM10.008 368.306C11.7227 366.583 13.9002 365.395 16.2766 364.884C16.2482 367.337 15.1958 369.813 13.3561 371.654C11.6142 373.395 9.18752 374.33 6.66935 374.322C7.19806 372.044 8.35468 369.96 10.008 368.306V368.306Z" fill="#F1F1F1"/>
<path d="M7.77697 556.82C10.7669 559.81 14.7272 561.456 18.9336 561.456C23.14 561.456 27.1019 559.81 30.0902 556.82C36.2421 550.668 36.2421 540.659 30.0902 534.505C27.1019 531.517 23.1384 529.87 18.9336 529.87C14.7288 529.87 10.7653 531.517 7.77697 534.505C1.62512 540.657 1.62512 550.668 7.77697 556.82ZM27.8592 554.589C26.2058 556.247 24.1221 557.411 21.8431 557.948C21.8289 555.421 22.7677 552.984 24.5111 551.241C26.3461 549.406 28.8217 548.357 31.2594 548.32C30.7568 550.695 29.5756 552.873 27.8592 554.589V554.589ZM31.5276 545.177C28.1764 545.144 24.7683 546.523 22.2801 549.01C19.8629 551.427 18.6086 554.816 18.7096 558.289C15.4367 558.239 12.3132 556.911 10.0064 554.589C7.6967 552.278 6.37707 549.159 6.32697 545.892C6.44846 545.895 6.56995 545.914 6.69144 545.914C10.0285 545.914 13.2551 544.646 15.5855 542.317C18.0784 539.824 19.4622 536.418 19.4196 533.05C22.5986 533.165 25.6155 534.483 27.8592 536.738C30.1057 538.986 31.4166 542.001 31.5276 545.177V545.177ZM10.008 536.738C11.7227 535.015 13.9002 533.826 16.2766 533.316C16.2482 535.769 15.1958 538.245 13.3561 540.086C11.6142 541.826 9.18752 542.762 6.66935 542.754C7.19806 540.476 8.35468 538.392 10.008 536.738V536.738Z" fill="#F1F1F1"/>
<path d="M70.4034 448.102C73.3934 451.092 77.3536 452.738 81.5601 452.738C85.7665 452.738 89.7283 451.092 92.7167 448.102C98.8685 441.95 98.8685 431.941 92.7167 425.787C89.7283 422.799 85.7649 421.152 81.5601 421.152C77.3552 421.152 73.3918 422.799 70.4034 425.787C64.2516 431.939 64.2516 441.95 70.4034 448.102ZM90.4857 445.871C88.8322 447.529 86.7486 448.693 84.4695 449.23C84.4553 446.703 85.3941 444.267 87.1376 442.523C88.9726 440.688 91.4481 439.639 93.8858 439.603C93.3833 441.977 92.2021 444.155 90.4857 445.871V445.871ZM94.1541 436.46C90.8028 436.427 87.3948 437.806 84.9066 440.292C82.4894 442.709 81.235 446.098 81.336 449.571C78.0632 449.521 74.9397 448.193 72.6329 445.871C70.3232 443.56 69.0035 440.441 68.9534 437.174C69.0749 437.178 69.1964 437.197 69.3179 437.197C72.655 437.197 75.8816 435.928 78.212 433.599C80.7049 431.106 82.0886 427.7 82.046 424.333C85.2251 424.447 88.242 425.765 90.4857 428.02C92.7322 430.268 94.0431 433.284 94.1541 436.46V436.46ZM72.6344 428.02C74.3492 426.297 76.5266 425.109 78.903 424.598C78.8746 427.051 77.8223 429.527 75.9825 431.368C74.2406 433.108 71.814 434.044 69.2958 434.036C69.8245 431.758 70.9811 429.674 72.6344 428.02V428.02Z" fill="#F1F1F1"/>
<path d="M70.4034 616.534C73.3934 619.524 77.3536 621.169 81.5601 621.169C85.7665 621.169 89.7283 619.524 92.7167 616.534C98.8685 610.382 98.8685 600.372 92.7167 594.219C89.7283 591.231 85.7649 589.583 81.5601 589.583C77.3552 589.583 73.3918 591.231 70.4034 594.219C64.2516 600.371 64.2516 610.382 70.4034 616.534ZM90.4857 614.303C88.8322 615.961 86.7486 617.124 84.4695 617.662C84.4553 615.134 85.3941 612.698 87.1376 610.955C88.9726 609.12 91.4481 608.071 93.8858 608.034C93.3833 610.409 92.2021 612.587 90.4857 614.303V614.303ZM94.1541 604.891C90.8028 604.858 87.3948 606.237 84.9066 608.724C82.4894 611.141 81.235 614.53 81.336 618.003C78.0632 617.953 74.9397 616.625 72.6329 614.303C70.3232 611.992 69.0035 608.873 68.9534 605.606C69.0749 605.609 69.1964 605.628 69.3179 605.628C72.655 605.628 75.8816 604.36 78.212 602.031C80.7049 599.538 82.0886 596.131 82.046 592.764C85.2251 592.879 88.242 594.197 90.4857 596.452C92.7322 598.699 94.0431 601.715 94.1541 604.891V604.891ZM72.6344 596.452C74.3492 594.729 76.5266 593.54 78.903 593.029C78.8746 595.483 77.8223 597.958 75.9825 599.8C74.2406 601.54 71.814 602.476 69.2958 602.468C69.8245 600.19 70.9811 598.106 72.6344 596.452V596.452Z" fill="#F1F1F1"/>
<path d="M75.0516 7.1001L75.7179 8.7272C76.1332 9.73897 76.6977 12.2678 76.5675 13.4606C74.9546 14.4546 73.9653 15.425 73.2021 16.2344C72.2696 15.4806 70.4247 14.2002 67.3599 14.2002H66.1765V15.3836C66.1765 17.6485 66.9942 19.4886 67.2865 20.117C66.9907 20.7406 66.1765 22.5156 66.1765 24.8504V26.0337H67.3599C70.4011 26.0337 72.2684 24.7486 73.2032 23.9995C74.6032 25.442 76.5995 26.9626 79.12 28.1046C79.0088 28.8394 78.9212 29.8654 79.2301 31.0629L79.4525 31.9505H80.3767C81.837 31.9505 83.0949 31.2251 84.1114 30.5825C84.9433 30.0547 85.3456 29.6855 85.5539 29.5092C90.2601 29.3435 93.2646 26.8053 94.8728 24.2954C96.5366 21.7026 96.9436 19.1182 96.9436 19.1182L96.9803 18.8224L96.8703 18.5265C96.8703 18.5265 94.1604 11.0844 86.8118 10.7235C86.0308 9.77684 84.9385 8.99109 83.4096 8.35682C81.6015 7.60894 79.3271 7.1001 76.8267 7.1001H75.0516ZM78.4905 9.61472C79.9838 9.78039 81.3802 10.0821 82.4843 10.5389C83.9966 11.1637 85.0498 12.0595 85.2947 12.4619L85.6284 13.0169H86.2935C92.2055 13.0169 94.332 18.6141 94.5036 19.0815C94.4207 19.5158 94.0776 21.1666 92.8765 23.0386C91.5026 25.1781 89.2791 27.2171 85.1101 27.2171H84.6664L84.3338 27.5129C84.3338 27.5129 83.709 28.0454 82.8547 28.585C82.405 28.8678 82.0228 28.9187 81.5601 29.1033C81.6074 28.5625 81.5601 27.772 81.5601 27.772L81.8192 26.7366L80.8572 26.4029C77.9272 25.2846 75.435 23.1771 74.1641 21.7074L73.35 20.7453L72.4625 21.6328C72.4625 21.6328 70.8862 22.7381 68.8391 23.2599C69.1444 21.873 69.6153 20.6353 69.6153 20.6353L69.8745 20.117L69.6153 19.5986C69.6153 19.5986 69.1029 18.2402 68.8024 16.7882C70.9833 17.2698 72.4625 18.6011 72.4625 18.6011L73.35 19.4886L74.1641 18.5265C75.2232 17.3302 78.0751 14.3481 82.263 13.7931L81.9293 11.4631C80.7968 11.6122 79.8087 11.94 78.8608 12.3151C78.8005 11.3211 78.7496 10.4655 78.4905 9.61472V9.61472ZM89.2519 17.7503C88.7811 17.7503 88.3296 17.9373 87.9967 18.2701C87.6638 18.603 87.4768 19.0545 87.4768 19.5253C87.4768 19.996 87.6638 20.4475 87.9967 20.7804C88.3296 21.1133 88.7811 21.3003 89.2519 21.3003C89.7226 21.3003 90.1741 21.1133 90.507 20.7804C90.8399 20.4475 91.0269 19.996 91.0269 19.5253C91.0269 19.0545 90.8399 18.603 90.507 18.2701C90.1741 17.9373 89.7226 17.7503 89.2519 17.7503Z" fill="#F1F1F1"/>
<path d="M137.678 66.8137L138.345 68.4408C138.76 69.4526 139.324 71.9814 139.194 73.1742C137.581 74.1682 136.592 75.1386 135.829 75.948C134.896 75.1942 133.051 73.9138 129.987 73.9138H128.803V75.0972C128.803 77.3621 129.621 79.2022 129.913 79.8306C129.617 80.4542 128.803 82.2292 128.803 84.564V85.7473H129.987C133.028 85.7473 134.895 84.4622 135.83 83.7132C137.23 85.1557 139.226 86.6763 141.747 87.8182C141.635 88.5531 141.548 89.579 141.857 90.7766L142.079 91.6641H143.003C144.464 91.6641 145.722 90.9387 146.738 90.2961C147.57 89.7684 147.972 89.3991 148.181 89.2228C152.887 89.0572 155.891 86.5189 157.499 84.009C159.163 81.4163 159.57 78.8318 159.57 78.8318L159.607 78.536L159.497 78.2402C159.497 78.2402 156.787 70.7981 149.438 70.4371C148.657 69.4905 147.565 68.7047 146.036 68.0704C144.228 67.3226 141.954 66.8137 139.453 66.8137H137.678ZM141.117 69.3283C142.611 69.494 144.007 69.7958 145.111 70.2525C146.623 70.8773 147.676 71.7731 147.921 72.1755L148.255 72.7305H148.92C154.832 72.7305 156.959 78.3277 157.13 78.7951C157.047 79.2294 156.704 80.8802 155.503 82.7523C154.129 84.8918 151.906 86.9307 147.737 86.9307H147.293L146.961 87.2265C146.961 87.2265 146.336 87.759 145.481 88.2986C145.032 88.5815 144.649 88.6323 144.187 88.8169C144.234 88.2761 144.187 87.4857 144.187 87.4857L144.446 86.4502L143.484 86.1165C140.554 84.9983 138.062 82.8907 136.791 81.421L135.977 80.4589L135.089 81.3464C135.089 81.3464 133.513 82.4517 131.466 82.9736C131.771 81.5867 132.242 80.3489 132.242 80.3489L132.501 79.8306L132.242 79.3123C132.242 79.3123 131.73 77.9538 131.429 76.5018C133.61 76.9834 135.089 78.3147 135.089 78.3147L135.977 79.2022L136.791 78.2402C137.85 77.0438 140.702 74.0617 144.89 73.5068L144.556 71.1767C143.424 71.3258 142.435 71.6536 141.488 72.0287C141.427 71.0347 141.376 70.1792 141.117 69.3283V69.3283ZM151.879 77.4639C151.408 77.4639 150.956 77.6509 150.623 77.9838C150.291 78.3167 150.104 78.7681 150.104 79.2389C150.104 79.7097 150.291 80.1612 150.623 80.494C150.956 80.8269 151.408 81.0139 151.879 81.0139C152.349 81.0139 152.801 80.8269 153.134 80.494C153.467 80.1612 153.654 79.7097 153.654 79.2389C153.654 78.7681 153.467 78.3167 153.134 77.9838C152.801 77.6509 152.349 77.4639 151.879 77.4639Z" fill="#F1F1F1"/>
<path d="M200.305 126.528L200.971 128.155C201.386 129.166 201.951 131.695 201.821 132.888C200.208 133.882 199.219 134.852 198.455 135.662C197.523 134.908 195.678 133.628 192.613 133.628H191.43V134.811C191.43 137.076 192.247 138.916 192.54 139.544C192.244 140.168 191.43 141.943 191.43 144.278V145.461H192.613C195.654 145.461 197.522 144.176 198.456 143.427C199.856 144.87 201.853 146.39 204.373 147.532C204.262 148.267 204.174 149.293 204.483 150.49L204.706 151.378H205.63C207.09 151.378 208.348 150.653 209.365 150.01C210.196 149.482 210.599 149.113 210.807 148.937C215.513 148.771 218.518 146.233 220.126 143.723C221.79 141.13 222.197 138.546 222.197 138.546L222.233 138.25L222.123 137.954C222.123 137.954 219.414 130.512 212.065 130.151C211.284 129.204 210.192 128.419 208.663 127.784C206.855 127.036 204.58 126.528 202.08 126.528H200.305ZM203.744 129.042C205.237 129.208 206.633 129.51 207.737 129.966C209.25 130.591 210.303 131.487 210.548 131.889L210.882 132.444H211.547C217.459 132.444 219.585 138.042 219.757 138.509C219.674 138.943 219.331 140.594 218.13 142.466C216.756 144.606 214.532 146.645 210.363 146.645H209.92L209.587 146.94C209.587 146.94 208.962 147.473 208.108 148.013C207.658 148.295 207.276 148.346 206.813 148.531C206.861 147.99 206.813 147.2 206.813 147.2L207.072 146.164L206.11 145.83C203.18 144.712 200.688 142.605 199.417 141.135L198.603 140.173L197.716 141.06C197.716 141.06 196.139 142.166 194.092 142.687C194.398 141.301 194.869 140.063 194.869 140.063L195.128 139.544L194.869 139.026C194.869 139.026 194.356 137.668 194.056 136.216C196.236 136.697 197.716 138.029 197.716 138.029L198.603 138.916L199.417 137.954C200.476 136.758 203.328 133.776 207.516 133.221L207.182 130.891C206.05 131.04 205.062 131.367 204.114 131.743C204.054 130.749 204.003 129.893 203.744 129.042V129.042ZM214.505 137.178C214.034 137.178 213.583 137.365 213.25 137.698C212.917 138.031 212.73 138.482 212.73 138.953C212.73 139.424 212.917 139.875 213.25 140.208C213.583 140.541 214.034 140.728 214.505 140.728C214.976 140.728 215.427 140.541 215.76 140.208C216.093 139.875 216.28 139.424 216.28 138.953C216.28 138.482 216.093 138.031 215.76 137.698C215.427 137.365 214.976 137.178 214.505 137.178Z" fill="#F1F1F1"/>
<path d="M262.932 186.241L263.598 187.868C264.013 188.88 264.578 191.409 264.447 192.602C262.834 193.596 261.845 194.566 261.082 195.375C260.149 194.622 258.305 193.341 255.24 193.341H254.056V194.525C254.056 196.79 254.874 198.63 255.166 199.258C254.871 199.882 254.056 201.657 254.056 203.991V205.175H255.24C258.281 205.175 260.148 203.89 261.083 203.141C262.483 204.583 264.479 206.104 267 207.246C266.889 207.981 266.801 209.007 267.11 210.204L267.332 211.092H268.257C269.717 211.092 270.975 210.366 271.991 209.724C272.823 209.196 273.225 208.827 273.434 208.65C278.14 208.485 281.144 205.946 282.753 203.436C284.416 200.844 284.824 198.259 284.824 198.259L284.86 197.963L284.75 197.668C284.75 197.668 282.04 190.226 274.692 189.865C273.911 188.918 272.818 188.132 271.29 187.498C269.481 186.75 267.207 186.241 264.707 186.241H262.932ZM266.37 188.756C267.864 188.921 269.26 189.223 270.364 189.68C271.876 190.305 272.93 191.201 273.175 191.603L273.508 192.158H274.173C280.085 192.158 282.212 197.755 282.383 198.223C282.301 198.657 281.957 200.308 280.756 202.18C279.382 204.319 277.159 206.358 272.99 206.358H272.546L272.214 206.654C272.214 206.654 271.589 207.187 270.735 207.726C270.285 208.009 269.903 208.06 269.44 208.244C269.487 207.704 269.44 206.913 269.44 206.913L269.699 205.878L268.737 205.544C265.807 204.426 263.315 202.318 262.044 200.848L261.23 199.886L260.342 200.774C260.342 200.774 258.766 201.879 256.719 202.401C257.024 201.014 257.495 199.776 257.495 199.776L257.754 199.258L257.495 198.74C257.495 198.74 256.983 197.381 256.682 195.929C258.863 196.411 260.342 197.742 260.342 197.742L261.23 198.63L262.044 197.668C263.103 196.471 265.955 193.489 270.143 192.934L269.809 190.604C268.677 190.753 267.689 191.081 266.741 191.456C266.68 190.462 266.629 189.607 266.37 188.756V188.756ZM277.132 196.891C276.661 196.891 276.209 197.078 275.877 197.411C275.544 197.744 275.357 198.196 275.357 198.666C275.357 199.137 275.544 199.589 275.877 199.922C276.209 200.254 276.661 200.441 277.132 200.441C277.603 200.441 278.054 200.254 278.387 199.922C278.72 199.589 278.907 199.137 278.907 198.666C278.907 198.196 278.72 197.744 278.387 197.411C278.054 197.078 277.603 196.891 277.132 196.891Z" fill="#F1F1F1"/>
<path d="M325.558 245.955L326.224 247.582C326.64 248.594 327.204 251.123 327.074 252.315C325.461 253.309 324.472 254.28 323.708 255.089C322.776 254.335 320.931 253.055 317.866 253.055H316.683V254.238C316.683 256.503 317.501 258.343 317.793 258.972C317.497 259.595 316.683 261.37 316.683 263.705V264.888H317.866C320.907 264.888 322.775 263.603 323.71 262.854C325.11 264.297 327.106 265.817 329.626 266.959C329.515 267.694 329.428 268.72 329.736 269.918L329.959 270.805H330.883C332.343 270.805 333.601 270.08 334.618 269.437C335.45 268.909 335.852 268.54 336.06 268.364C340.766 268.198 343.771 265.66 345.379 263.15C347.043 260.557 347.45 257.973 347.45 257.973L347.487 257.677L347.377 257.381C347.377 257.381 344.667 249.939 337.318 249.578C336.537 248.632 335.445 247.846 333.916 247.212C332.108 246.464 329.833 245.955 327.333 245.955H325.558ZM328.997 248.469C330.49 248.635 331.887 248.937 332.991 249.394C334.503 250.018 335.556 250.914 335.801 251.317L336.135 251.872H336.8C342.712 251.872 344.838 257.469 345.01 257.936C344.927 258.371 344.584 260.021 343.383 261.893C342.009 264.033 339.785 266.072 335.616 266.072H335.173L334.84 266.368C334.84 266.368 334.215 266.9 333.361 267.44C332.911 267.723 332.529 267.773 332.066 267.958C332.114 267.417 332.066 266.627 332.066 266.627L332.326 265.591L331.364 265.258C328.434 264.139 325.941 262.032 324.67 260.562L323.856 259.6L322.969 260.488C322.969 260.488 321.393 261.593 319.345 262.115C319.651 260.728 320.122 259.49 320.122 259.49L320.381 258.972L320.122 258.453C320.122 258.453 319.609 257.095 319.309 255.643C321.49 256.125 322.969 257.456 322.969 257.456L323.856 258.343L324.67 257.381C325.73 256.185 328.581 253.203 332.769 252.648L332.436 250.318C331.303 250.467 330.315 250.795 329.367 251.17C329.307 250.176 329.256 249.32 328.997 248.469V248.469ZM339.758 256.605C339.287 256.605 338.836 256.792 338.503 257.125C338.17 257.458 337.983 257.909 337.983 258.38C337.983 258.851 338.17 259.302 338.503 259.635C338.836 259.968 339.287 260.155 339.758 260.155C340.229 260.155 340.68 259.968 341.013 259.635C341.346 259.302 341.533 258.851 341.533 258.38C341.533 257.909 341.346 257.458 341.013 257.125C340.68 256.792 340.229 256.605 339.758 256.605Z" fill="#F1F1F1"/>
<path d="M12.4252 305.669L13.0914 307.296C13.5068 308.308 14.0712 310.836 13.9411 312.029C12.3281 313.023 11.3389 313.994 10.5756 314.803C9.64312 314.049 7.79828 312.769 4.7334 312.769H3.55005V313.952C3.55005 316.217 4.36774 318.057 4.66003 318.686C4.36419 319.309 3.55005 321.084 3.55005 323.419V324.602H4.7334C7.77461 324.602 9.64194 323.317 10.5768 322.568C11.9767 324.011 13.973 325.531 16.4935 326.673C16.3823 327.408 16.2947 328.434 16.6036 329.632L16.8261 330.519H17.7503C19.2105 330.519 20.4684 329.794 21.4849 329.151C22.3168 328.623 22.7191 328.254 22.9274 328.078C27.6336 327.912 30.6381 325.374 32.2463 322.864C33.9101 320.271 34.3172 317.687 34.3172 317.687L34.3539 317.391L34.2438 317.095C34.2438 317.095 31.5339 309.653 24.1853 309.292C23.4043 308.345 22.3121 307.56 20.7832 306.925C18.975 306.178 16.7006 305.669 14.2002 305.669H12.4252ZM15.864 308.183C17.3574 308.349 18.7537 308.651 19.8578 309.108C21.3701 309.732 22.4233 310.628 22.6683 311.03L23.002 311.585H23.667C29.579 311.585 31.7055 317.183 31.8771 317.65C31.7943 318.084 31.4511 319.735 30.25 321.607C28.8761 323.747 26.6526 325.786 22.4837 325.786H22.0399L21.7074 326.081C21.7074 326.081 21.0826 326.614 20.2282 327.154C19.7785 327.436 19.3963 327.487 18.9336 327.672C18.9809 327.131 18.9336 326.341 18.9336 326.341L19.1928 325.305L18.2307 324.972C15.3007 323.853 12.8086 321.746 11.5377 320.276L10.7235 319.314L9.83601 320.201C9.83601 320.201 8.25978 321.307 6.21259 321.829C6.51789 320.442 6.98887 319.204 6.98887 319.204L7.24802 318.686L6.98887 318.167C6.98887 318.167 6.47647 316.809 6.1759 315.357C8.35682 315.838 9.83601 317.17 9.83601 317.17L10.7235 318.057L11.5377 317.095C12.5968 315.899 15.4486 312.917 19.6365 312.362L19.3028 310.032C18.1703 310.181 17.1822 310.509 16.2344 310.884C16.174 309.89 16.1231 309.034 15.864 308.183V308.183ZM26.6254 316.319C26.1546 316.319 25.7031 316.506 25.3703 316.839C25.0374 317.172 24.8504 317.623 24.8504 318.094C24.8504 318.565 25.0374 319.016 25.3703 319.349C25.7031 319.682 26.1546 319.869 26.6254 319.869C27.0962 319.869 27.5476 319.682 27.8805 319.349C28.2134 319.016 28.4004 318.565 28.4004 318.094C28.4004 317.623 28.2134 317.172 27.8805 316.839C27.5476 316.506 27.0962 316.319 26.6254 316.319Z" fill="#F1F1F1"/>
<path d="M12.4252 474.1L13.0914 475.727C13.5068 476.739 14.0712 479.268 13.9411 480.461C12.3281 481.455 11.3389 482.425 10.5756 483.234C9.64312 482.481 7.79828 481.2 4.7334 481.2H3.55005V482.384C3.55005 484.648 4.36774 486.489 4.66003 487.117C4.36419 487.741 3.55005 489.516 3.55005 491.85V493.034H4.7334C7.77461 493.034 9.64194 491.749 10.5768 491C11.9767 492.442 13.973 493.963 16.4935 495.105C16.3823 495.839 16.2947 496.865 16.6036 498.063L16.8261 498.95H17.7503C19.2105 498.95 20.4684 498.225 21.4849 497.583C22.3168 497.055 22.7191 496.686 22.9274 496.509C27.6336 496.344 30.6381 493.805 32.2463 491.295C33.9101 488.703 34.3172 486.118 34.3172 486.118L34.3539 485.822L34.2438 485.527C34.2438 485.527 31.5339 478.084 24.1853 477.724C23.4043 476.777 22.3121 475.991 20.7832 475.357C18.975 474.609 16.7006 474.1 14.2002 474.1H12.4252ZM15.864 476.615C17.3574 476.78 18.7537 477.082 19.8578 477.539C21.3701 478.164 22.4233 479.06 22.6683 479.462L23.002 480.017H23.667C29.579 480.017 31.7055 485.614 31.8771 486.082C31.7943 486.516 31.4511 488.167 30.25 490.039C28.8761 492.178 26.6526 494.217 22.4837 494.217H22.0399L21.7074 494.513C21.7074 494.513 21.0826 495.045 20.2282 495.585C19.7785 495.868 19.3963 495.919 18.9336 496.103C18.9809 495.563 18.9336 494.772 18.9336 494.772L19.1928 493.737L18.2307 493.403C15.3007 492.285 12.8086 490.177 11.5377 488.707L10.7235 487.745L9.83601 488.633C9.83601 488.633 8.25978 489.738 6.21259 490.26C6.51789 488.873 6.98887 487.635 6.98887 487.635L7.24802 487.117L6.98887 486.599C6.98887 486.599 6.47647 485.24 6.1759 483.788C8.35682 484.27 9.83601 485.601 9.83601 485.601L10.7235 486.489L11.5377 485.527C12.5968 484.33 15.4486 481.348 19.6365 480.793L19.3028 478.463C18.1703 478.612 17.1822 478.94 16.2344 479.315C16.174 478.321 16.1231 477.466 15.864 476.615V476.615ZM26.6254 484.75C26.1546 484.75 25.7031 484.937 25.3703 485.27C25.0374 485.603 24.8504 486.055 24.8504 486.525C24.8504 486.996 25.0374 487.448 25.3703 487.78C25.7031 488.113 26.1546 488.3 26.6254 488.3C27.0962 488.3 27.5476 488.113 27.8805 487.78C28.2134 487.448 28.4004 486.996 28.4004 486.525C28.4004 486.055 28.2134 485.603 27.8805 485.27C27.5476 484.937 27.0962 484.75 26.6254 484.75Z" fill="#F1F1F1"/>
<path d="M75.0516 365.382L75.7179 367.009C76.1332 368.021 76.6977 370.55 76.5675 371.743C74.9546 372.737 73.9653 373.707 73.2021 374.517C72.2696 373.763 70.4247 372.482 67.3599 372.482H66.1765V373.666C66.1765 375.931 66.9942 377.771 67.2865 378.399C66.9907 379.023 66.1765 380.798 66.1765 383.133V384.316H67.3599C70.4011 384.316 72.2684 383.031 73.2032 382.282C74.6032 383.724 76.5995 385.245 79.12 386.387C79.0088 387.122 78.9212 388.148 79.2301 389.345L79.4525 390.233H80.3767C81.837 390.233 83.0949 389.507 84.1114 388.865C84.9433 388.337 85.3456 387.968 85.5539 387.791C90.2601 387.626 93.2646 385.087 94.8728 382.578C96.5366 379.985 96.9436 377.4 96.9436 377.4L96.9803 377.105L96.8703 376.809C96.8703 376.809 94.1604 369.367 86.8118 369.006C86.0308 368.059 84.9385 367.273 83.4096 366.639C81.6015 365.891 79.3271 365.382 76.8267 365.382H75.0516ZM78.4905 367.897C79.9838 368.063 81.3802 368.364 82.4843 368.821C83.9966 369.446 85.0498 370.342 85.2947 370.744L85.6284 371.299H86.2935C92.2055 371.299 94.332 376.896 94.5036 377.364C94.4207 377.798 94.0776 379.449 92.8765 381.321C91.5026 383.46 89.2791 385.499 85.1101 385.499H84.6664L84.3338 385.795C84.3338 385.795 83.709 386.328 82.8547 386.867C82.405 387.15 82.0228 387.201 81.5601 387.386C81.6074 386.845 81.5601 386.054 81.5601 386.054L81.8192 385.019L80.8572 384.685C77.9272 383.567 75.435 381.459 74.1641 379.99L73.35 379.028L72.4625 379.915C72.4625 379.915 70.8862 381.02 68.8391 381.542C69.1444 380.155 69.6153 378.917 69.6153 378.917L69.8745 378.399L69.6153 377.881C69.6153 377.881 69.1029 376.522 68.8024 375.07C70.9833 375.552 72.4625 376.883 72.4625 376.883L73.35 377.771L74.1641 376.809C75.2232 375.612 78.0751 372.63 82.263 372.075L81.9293 369.745C80.7968 369.894 79.8087 370.222 78.8608 370.597C78.8005 369.603 78.7496 368.748 78.4905 367.897V367.897ZM89.2519 376.032C88.7811 376.032 88.3296 376.219 87.9967 376.552C87.6638 376.885 87.4768 377.337 87.4768 377.808C87.4768 378.278 87.6638 378.73 87.9967 379.063C88.3296 379.396 88.7811 379.583 89.2519 379.583C89.7226 379.583 90.1741 379.396 90.507 379.063C90.8399 378.73 91.0269 378.278 91.0269 377.808C91.0269 377.337 90.8399 376.885 90.507 376.552C90.1741 376.219 89.7226 376.032 89.2519 376.032Z" fill="#F1F1F1"/>
<path d="M75.0516 533.814L75.7179 535.441C76.1332 536.453 76.6977 538.982 76.5675 540.174C74.9546 541.168 73.9653 542.139 73.2021 542.948C72.2696 542.194 70.4247 540.914 67.3599 540.914H66.1765V542.097C66.1765 544.362 66.9942 546.202 67.2865 546.831C66.9907 547.454 66.1765 549.229 66.1765 551.564V552.748H67.3599C70.4011 552.748 72.2684 551.462 73.2032 550.713C74.6032 552.156 76.5995 553.677 79.12 554.818C79.0088 555.553 78.9212 556.579 79.2301 557.777L79.4525 558.664H80.3767C81.837 558.664 83.0949 557.939 84.1114 557.296C84.9433 556.769 85.3456 556.399 85.5539 556.223C90.2601 556.057 93.2646 553.519 94.8728 551.009C96.5366 548.417 96.9436 545.832 96.9436 545.832L96.9803 545.536L96.8703 545.24C96.8703 545.24 94.1604 537.798 86.8118 537.437C86.0308 536.491 84.9385 535.705 83.4096 535.071C81.6015 534.323 79.3271 533.814 76.8267 533.814H75.0516ZM78.4905 536.329C79.9838 536.494 81.3802 536.796 82.4843 537.253C83.9966 537.878 85.0498 538.773 85.2947 539.176L85.6284 539.731H86.2935C92.2055 539.731 94.332 545.328 94.5036 545.795C94.4207 546.23 94.0776 547.88 92.8765 549.753C91.5026 551.892 89.2791 553.931 85.1101 553.931H84.6664L84.3338 554.227C84.3338 554.227 83.709 554.759 82.8547 555.299C82.405 555.582 82.0228 555.633 81.5601 555.817C81.6074 555.276 81.5601 554.486 81.5601 554.486L81.8192 553.45L80.8572 553.117C77.9272 551.999 75.435 549.891 74.1641 548.421L73.35 547.459L72.4625 548.347C72.4625 548.347 70.8862 549.452 68.8391 549.974C69.1444 548.587 69.6153 547.349 69.6153 547.349L69.8745 546.831L69.6153 546.313C69.6153 546.313 69.1029 544.954 68.8024 543.502C70.9833 543.984 72.4625 545.315 72.4625 545.315L73.35 546.202L74.1641 545.24C75.2232 544.044 78.0751 541.062 82.263 540.507L81.9293 538.177C80.7968 538.326 79.8087 538.654 78.8608 539.029C78.8005 538.035 78.7496 537.179 78.4905 536.329V536.329ZM89.2519 544.464C88.7811 544.464 88.3296 544.651 87.9967 544.984C87.6638 545.317 87.4768 545.768 87.4768 546.239C87.4768 546.71 87.6638 547.161 87.9967 547.494C88.3296 547.827 88.7811 548.014 89.2519 548.014C89.7226 548.014 90.1741 547.827 90.507 547.494C90.8399 547.161 91.0269 546.71 91.0269 546.239C91.0269 545.768 90.8399 545.317 90.507 544.984C90.1741 544.651 89.7226 544.464 89.2519 544.464Z" fill="#F1F1F1"/>
<path d="M137.678 425.096L138.345 426.723C138.76 427.735 139.324 430.264 139.194 431.457C137.581 432.451 136.592 433.421 135.829 434.23C134.896 433.477 133.051 432.196 129.987 432.196H128.803V433.38C128.803 435.645 129.621 437.485 129.913 438.113C129.617 438.737 128.803 440.512 128.803 442.846V444.03H129.987C133.028 444.03 134.895 442.745 135.83 441.996C137.23 443.438 139.226 444.959 141.747 446.101C141.635 446.836 141.548 447.861 141.857 449.059L142.079 449.947H143.003C144.464 449.947 145.722 449.221 146.738 448.579C147.57 448.051 147.972 447.682 148.181 447.505C152.887 447.34 155.891 444.801 157.499 442.291C159.163 439.699 159.57 437.114 159.57 437.114L159.607 436.818L159.497 436.523C159.497 436.523 156.787 429.081 149.438 428.72C148.657 427.773 147.565 426.987 146.036 426.353C144.228 425.605 141.954 425.096 139.453 425.096H137.678ZM141.117 427.611C142.611 427.776 144.007 428.078 145.111 428.535C146.623 429.16 147.676 430.056 147.921 430.458L148.255 431.013H148.92C154.832 431.013 156.959 436.61 157.13 437.078C157.047 437.512 156.704 439.163 155.503 441.035C154.129 443.174 151.906 445.213 147.737 445.213H147.293L146.961 445.509C146.961 445.509 146.336 446.041 145.481 446.581C145.032 446.864 144.649 446.915 144.187 447.099C144.234 446.559 144.187 445.768 144.187 445.768L144.446 444.733L143.484 444.399C140.554 443.281 138.062 441.173 136.791 439.703L135.977 438.741L135.089 439.629C135.089 439.629 133.513 440.734 131.466 441.256C131.771 439.869 132.242 438.631 132.242 438.631L132.501 438.113L132.242 437.595C132.242 437.595 131.73 436.236 131.429 434.784C133.61 435.266 135.089 436.597 135.089 436.597L135.977 437.485L136.791 436.523C137.85 435.326 140.702 432.344 144.89 431.789L144.556 429.459C143.424 429.608 142.435 429.936 141.488 430.311C141.427 429.317 141.376 428.462 141.117 427.611V427.611ZM151.879 435.746C151.408 435.746 150.956 435.933 150.623 436.266C150.291 436.599 150.104 437.051 150.104 437.521C150.104 437.992 150.291 438.444 150.623 438.777C150.956 439.109 151.408 439.296 151.879 439.296C152.349 439.296 152.801 439.109 153.134 438.777C153.467 438.444 153.654 437.992 153.654 437.521C153.654 437.051 153.467 436.599 153.134 436.266C152.801 435.933 152.349 435.746 151.879 435.746Z" fill="#F1F1F1"/>
<path d="M137.678 593.528L138.345 595.155C138.76 596.167 139.324 598.696 139.194 599.888C137.581 600.882 136.592 601.853 135.829 602.662C134.896 601.908 133.051 600.628 129.987 600.628H128.803V601.811C128.803 604.076 129.621 605.916 129.913 606.545C129.617 607.168 128.803 608.943 128.803 611.278V612.461H129.987C133.028 612.461 134.895 611.176 135.83 610.427C137.23 611.87 139.226 613.39 141.747 614.532C141.635 615.267 141.548 616.293 141.857 617.491L142.079 618.378H143.003C144.464 618.378 145.722 617.653 146.738 617.01C147.57 616.482 147.972 616.113 148.181 615.937C152.887 615.771 155.891 613.233 157.499 610.723C159.163 608.13 159.57 605.546 159.57 605.546L159.607 605.25L159.497 604.954C159.497 604.954 156.787 597.512 149.438 597.151C148.657 596.205 147.565 595.419 146.036 594.785C144.228 594.037 141.954 593.528 139.453 593.528H137.678ZM141.117 596.042C142.611 596.208 144.007 596.51 145.111 596.967C146.623 597.591 147.676 598.487 147.921 598.89L148.255 599.445H148.92C154.832 599.445 156.959 605.042 157.13 605.509C157.047 605.944 156.704 607.594 155.503 609.466C154.129 611.606 151.906 613.645 147.737 613.645H147.293L146.961 613.941C146.961 613.941 146.336 614.473 145.481 615.013C145.032 615.296 144.649 615.346 144.187 615.531C144.234 614.99 144.187 614.2 144.187 614.2L144.446 613.164L143.484 612.831C140.554 611.712 138.062 609.605 136.791 608.135L135.977 607.173L135.089 608.061C135.089 608.061 133.513 609.166 131.466 609.688C131.771 608.301 132.242 607.063 132.242 607.063L132.501 606.545L132.242 606.026C132.242 606.026 131.73 604.668 131.429 603.216C133.61 603.698 135.089 605.029 135.089 605.029L135.977 605.916L136.791 604.954C137.85 603.758 140.702 600.776 144.89 600.221L144.556 597.891C143.424 598.04 142.435 598.368 141.488 598.743C141.427 597.749 141.376 596.893 141.117 596.042V596.042ZM151.879 604.178C151.408 604.178 150.956 604.365 150.623 604.698C150.291 605.031 150.104 605.482 150.104 605.953C150.104 606.424 150.291 606.875 150.623 607.208C150.956 607.541 151.408 607.728 151.879 607.728C152.349 607.728 152.801 607.541 153.134 607.208C153.467 606.875 153.654 606.424 153.654 605.953C153.654 605.482 153.467 605.031 153.134 604.698C152.801 604.365 152.349 604.178 151.879 604.178Z" fill="#F1F1F1"/>
<path d="M137.087 11.0446L133.931 7.889H154.442L151.287 11.0446H137.087ZM142.609 20.5114V29.9782H134.72V33.1338H153.654V29.9782H145.765V20.5114L158.387 7.889V4.7334H129.987V7.889L142.609 20.5114Z" fill="#F1F1F1"/>
<path d="M199.713 70.7582L196.558 67.6026H217.069L213.913 70.7582H199.713ZM205.235 80.225V89.6918H197.346V92.8474H216.28V89.6918H208.391V80.225L221.013 67.6026V64.447H192.613V67.6026L205.235 80.225Z" fill="#F1F1F1"/>
<path d="M262.34 130.472L259.184 127.316H279.696L276.54 130.472H262.34ZM267.862 139.939V149.406H259.973V152.561H278.907V149.406H271.018V139.939L283.64 127.316V124.161H255.24V127.316L267.862 139.939Z" fill="#F1F1F1"/>
<path d="M324.966 190.186L321.811 187.03H342.322L339.167 190.186H324.966ZM330.489 199.653V209.119H322.6V212.275H341.533V209.119H333.644V199.653L346.267 187.03V183.875H317.866V187.03L330.489 199.653Z" fill="#F1F1F1"/>
<path d="M11.8335 249.899L8.6779 246.744H29.1893L26.0337 249.899H11.8335ZM17.3558 259.366V268.833H9.4668V271.989H28.4004V268.833H20.5114V259.366L33.1338 246.744V243.588H4.7334V246.744L17.3558 259.366Z" fill="#F1F1F1"/>
<path d="M74.46 309.613L71.3044 306.458H91.8158L88.6602 309.613H74.46ZM79.9823 319.08V328.547H72.0933V331.702H91.0269V328.547H83.1379V319.08L95.7603 306.458V303.302H67.3599V306.458L79.9823 319.08Z" fill="#F1F1F1"/>
<path d="M74.46 478.045L71.3044 474.889H91.8158L88.6602 478.045H74.46ZM79.9823 487.511V496.978H72.0933V500.134H91.0269V496.978H83.1379V487.511L95.7603 474.889V471.733H67.3599V474.889L79.9823 487.511Z" fill="#F1F1F1"/>
<path d="M137.087 369.327L133.931 366.171H154.442L151.287 369.327H137.087ZM142.609 378.794V388.26H134.72V391.416H153.654V388.26H145.765V378.794L158.387 366.171V363.016H129.987V366.171L142.609 378.794Z" fill="#F1F1F1"/>
<path d="M137.087 537.758L133.931 534.603H154.442L151.287 537.758H137.087ZM142.609 547.225V556.692H134.72V559.848H153.654V556.692H145.765V547.225L158.387 534.603V531.447H129.987V534.603L142.609 547.225Z" fill="#F1F1F1"/>
<path d="M199.713 429.041L196.558 425.885H217.069L213.913 429.041H199.713ZM205.235 438.508V447.974H197.346V451.13H216.28V447.974H208.391V438.508L221.013 425.885V422.729H192.613V425.885L205.235 438.508Z" fill="#F1F1F1"/>
<path d="M199.713 597.472L196.558 594.317H217.069L213.913 597.472H199.713ZM205.235 606.939V616.406H197.346V619.562H216.28V616.406H208.391V606.939L221.013 594.317V591.161H192.613V594.317L205.235 606.939Z" fill="#F1F1F1"/>
</svg>
