<svg width="62" height="61" viewBox="0 0 62 61" fill="none" xmlns="http://www.w3.org/2000/svg">
<path d="M31 60C47.5685 60 61 46.7924 61 30.5C61 14.2076 47.5685 1 31 1C14.4315 1 1 14.2076 1 30.5C1 46.7924 14.4315 60 31 60Z" stroke="white" stroke-width="2"/>
<path d="M46.5391 24.5038C46.0604 23.3681 45.37 22.339 44.5068 21.4739C43.6429 20.6064 42.6243 19.9169 41.5064 19.4431C40.3473 18.9498 39.104 18.6973 37.8489 18.7002C36.088 18.7002 34.3699 19.1942 32.8769 20.1273C32.5197 20.3505 32.1804 20.5957 31.8589 20.8628C31.5374 20.5957 31.1981 20.3505 30.8409 20.1273C29.3479 19.1942 27.6298 18.7002 25.8689 18.7002C24.6009 18.7002 23.3722 18.9491 22.2114 19.4431C21.0898 19.9188 20.079 20.603 19.211 21.4739C18.3466 22.338 17.6561 23.3674 17.1786 24.5038C16.6822 25.6858 16.4286 26.9409 16.4286 28.2326C16.4286 29.4511 16.6714 30.7209 17.1536 32.0126C17.5573 33.0921 18.1359 34.2118 18.8753 35.3426C20.0468 37.1319 21.6577 38.9982 23.658 40.89C26.9726 44.026 30.2551 46.1923 30.3944 46.2801L31.241 46.8363C31.616 47.0815 32.0982 47.0815 32.4733 46.8363L33.3198 46.2801C33.4591 46.1886 36.738 44.026 40.0563 40.89C42.0565 38.9982 43.6674 37.1319 44.839 35.3426C45.5783 34.2118 46.1605 33.0921 46.5606 32.0126C47.0428 30.7209 47.2857 29.4511 47.2857 28.2326C47.2892 26.9409 47.0356 25.6858 46.5391 24.5038V24.5038ZM31.8589 43.9418C31.8589 43.9418 19.1432 35.595 19.1432 28.2326C19.1432 24.5038 22.1542 21.4813 25.8689 21.4813C28.4799 21.4813 30.7445 22.9742 31.8589 25.1552C32.9733 22.9742 35.2379 21.4813 37.8489 21.4813C41.5636 21.4813 44.5746 24.5038 44.5746 28.2326C44.5746 35.595 31.8589 43.9418 31.8589 43.9418Z" fill="white"/>
</svg>
