<svg width="37" height="36" viewBox="0 0 37 36" fill="none" xmlns="http://www.w3.org/2000/svg">
<path d="M18.5 34.3333C28.165 34.3333 36 26.8714 36 17.6667C36 8.46192 28.165 1 18.5 1C8.83502 1 1 8.46192 1 17.6667C1 26.8714 8.83502 34.3333 18.5 34.3333Z" stroke="white" stroke-width="2"/>
<path d="M27.5645 14.2789C27.2852 13.6372 26.8825 13.0558 26.379 12.5671C25.875 12.0769 25.2808 11.6874 24.6288 11.4197C23.9526 11.141 23.2274 10.9983 22.4952 11C21.468 11 20.4658 11.2791 19.5948 11.8063C19.3865 11.9324 19.1886 12.0709 19.001 12.2218C18.8135 12.0709 18.6156 11.9324 18.4072 11.8063C17.5363 11.2791 16.5341 11 15.5069 11C14.7672 11 14.0505 11.1406 13.3733 11.4197C12.7191 11.6885 12.1294 12.0751 11.6231 12.5671C11.1189 13.0552 10.7161 13.6368 10.4376 14.2789C10.1479 14.9466 10 15.6558 10 16.3855C10 17.074 10.1417 17.7914 10.423 18.5211C10.6584 19.131 10.9959 19.7636 11.4272 20.4025C12.1107 21.4134 13.0503 22.4678 14.2171 23.5366C16.1507 25.3084 18.0655 26.5323 18.1468 26.5819L18.6406 26.8961C18.8593 27.0346 19.1406 27.0346 19.3594 26.8961L19.8532 26.5819C19.9345 26.5302 21.8472 25.3084 23.7828 23.5366C24.9496 22.4678 25.8893 21.4134 26.5727 20.4025C27.004 19.7636 27.3437 19.131 27.577 18.5211C27.8583 17.7914 28 17.074 28 16.3855C28.0021 15.6558 27.8541 14.9466 27.5645 14.2789ZM19.001 25.2608C19.001 25.2608 11.5835 20.5451 11.5835 16.3855C11.5835 14.2789 13.34 12.5712 15.5069 12.5712C17.03 12.5712 18.351 13.4147 19.001 14.6469C19.6511 13.4147 20.9721 12.5712 22.4952 12.5712C24.6621 12.5712 26.4185 14.2789 26.4185 16.3855C26.4185 20.5451 19.001 25.2608 19.001 25.2608Z" fill="white"/>
</svg>
