<svg width="15" height="17" viewBox="0 0 15 17" fill="none" xmlns="http://www.w3.org/2000/svg">
<path d="M8 8.79175C9.03553 8.79175 9.875 7.84035 9.875 6.66675C9.875 5.49314 9.03553 4.54175 8 4.54175C6.96447 4.54175 6.125 5.49314 6.125 6.66675C6.125 7.84035 6.96447 8.79175 8 8.79175Z" stroke="white" stroke-width="2" stroke-linecap="round" stroke-linejoin="round"/>
<path d="M8 1C6.67392 1 5.40215 1.59702 4.46447 2.65973C3.52678 3.72243 3 5.16377 3 6.66667C3 8.00683 3.25125 8.88375 3.9375 9.85417L8 15.1667L12.0625 9.85417C12.7488 8.88375 13 8.00683 13 6.66667C13 5.16377 12.4732 3.72243 11.5355 2.65973C10.5979 1.59702 9.32608 1 8 1V1Z" stroke="white" stroke-width="2" stroke-linecap="round" stroke-linejoin="round"/>
</svg>
