<svg width="260" height="63" viewBox="0 0 260 63" fill="none" xmlns="http://www.w3.org/2000/svg">
<path d="M90.566 48.0002V19.4598H81.1802V14.4796H105.411V19.4598H95.7377V48.0002H90.566ZM126.316 22.8597V48.0002H121.336V44.1214C120.57 45.1749 119.437 46.1646 117.936 47.0904C116.436 48.0162 114.696 48.4791 112.717 48.4791C110.61 48.4791 108.678 47.9204 106.922 46.8031C105.198 45.6857 103.826 44.1374 102.804 42.1581C101.782 40.1788 101.272 37.9121 101.272 35.3582C101.272 32.8042 101.798 30.5535 102.852 28.6061C103.905 26.6268 105.358 25.0945 107.21 24.009C109.061 22.8917 111.168 22.333 113.531 22.333C115.286 22.333 116.819 22.7161 118.128 23.4823C119.469 24.2485 120.538 25.1423 121.336 26.1639V22.8597H126.316ZM113.866 43.9299C115.398 43.9299 116.739 43.5627 117.888 42.8285C119.038 42.0623 119.931 41.0407 120.57 39.7637C121.208 38.4548 121.528 36.9863 121.528 35.3582C121.528 33.7619 121.208 32.3253 120.57 31.0484C119.931 29.7714 119.038 28.7658 117.888 28.0315C116.739 27.2653 115.398 26.8822 113.866 26.8822C112.397 26.8822 111.088 27.2494 109.939 27.9836C108.79 28.7179 107.896 29.7235 107.257 31.0005C106.619 32.2775 106.3 33.73 106.3 35.3582C106.3 36.9863 106.619 38.4548 107.257 39.7637C107.896 41.0407 108.79 42.0623 109.939 42.8285C111.088 43.5627 112.397 43.9299 113.866 43.9299ZM133.778 52.1664C134.735 52.9006 135.933 53.4912 137.369 53.9382C138.806 54.3851 140.21 54.6086 141.583 54.6086C144.169 54.6086 146.148 53.9701 147.521 52.6931C148.894 51.4481 149.58 49.5645 149.58 47.0425V43.9778C149.133 44.744 148.495 45.4782 147.665 46.1806C146.835 46.851 145.861 47.4096 144.744 47.8566C143.626 48.2716 142.461 48.4791 141.248 48.4791C138.918 48.4791 136.811 47.9204 134.927 46.8031C133.043 45.6857 131.543 44.1374 130.426 42.1581C129.34 40.1788 128.797 37.9281 128.797 35.4061C128.797 32.8521 129.34 30.6014 130.426 28.654C131.511 26.6747 132.98 25.1264 134.831 24.009C136.715 22.8917 138.806 22.333 141.104 22.333C143.02 22.333 144.712 22.764 146.18 23.6259C147.681 24.456 148.814 25.3658 149.58 26.3555V22.8597H154.513V46.4679C154.513 49.4688 153.906 51.8791 152.693 53.6988C151.512 55.5504 149.931 56.8912 147.952 57.7212C146.005 58.5832 143.882 59.0142 141.583 59.0142C139.795 59.0142 138.008 58.7269 136.22 58.1522C134.464 57.6095 133.043 56.8912 131.958 55.9973L133.778 52.1664ZM141.775 26.8343C140.242 26.8343 138.87 27.2174 137.657 27.9836C136.475 28.7179 135.534 29.7395 134.831 31.0484C134.161 32.3253 133.826 33.7779 133.826 35.4061C133.826 37.0342 134.161 38.4868 134.831 39.7637C135.534 41.0407 136.475 42.0623 137.657 42.8285C138.87 43.5627 140.242 43.9299 141.775 43.9299C143.371 43.9299 144.76 43.5627 145.941 42.8285C147.154 42.0942 148.096 41.0886 148.766 39.8116C149.437 38.5027 149.772 37.0342 149.772 35.4061C149.772 33.746 149.437 32.2775 148.766 31.0005C148.096 29.7235 147.154 28.7179 145.941 27.9836C144.76 27.2174 143.371 26.8343 141.775 26.8343Z" fill="#37BA83"/>
<path d="M172.921 14.4796C175.507 14.4796 177.773 14.9265 179.721 15.8204C181.7 16.6824 183.344 17.8955 184.653 19.4598C185.962 20.9922 186.952 22.7799 187.622 24.8231C188.293 26.8343 188.628 28.9733 188.628 31.2399C188.628 34.3047 188.037 37.114 186.856 39.668C185.675 42.19 183.919 44.2172 181.588 45.7496C179.258 47.25 176.369 48.0002 172.921 48.0002H159.8V14.4796H172.921ZM172.681 43.02C175.204 43.02 177.247 42.4933 178.811 41.4398C180.375 40.3543 181.525 38.9177 182.259 37.13C182.993 35.3422 183.36 33.3789 183.36 31.2399C183.36 29.1329 182.993 27.1855 182.259 25.3977C181.525 23.61 180.375 22.1734 178.811 21.0879C177.247 20.0025 175.204 19.4598 172.681 19.4598H164.972V43.02H172.681ZM214.92 22.8597V48.0002H209.94V44.1214C209.173 45.1749 208.04 46.1646 206.54 47.0904C205.039 48.0162 203.299 48.4791 201.32 48.4791C199.213 48.4791 197.281 47.9204 195.526 46.8031C193.802 45.6857 192.429 44.1374 191.407 42.1581C190.386 40.1788 189.875 37.9121 189.875 35.3582C189.875 32.8042 190.402 30.5535 191.455 28.6061C192.509 26.6268 193.961 25.0945 195.813 24.009C197.665 22.8917 199.772 22.333 202.134 22.333C203.89 22.333 205.422 22.7161 206.731 23.4823C208.072 24.2485 209.141 25.1423 209.94 26.1639V22.8597H214.92ZM202.469 43.9299C204.002 43.9299 205.342 43.5627 206.492 42.8285C207.641 42.0623 208.535 41.0407 209.173 39.7637C209.812 38.4548 210.131 36.9863 210.131 35.3582C210.131 33.7619 209.812 32.3253 209.173 31.0484C208.535 29.7714 207.641 28.7658 206.492 28.0315C205.342 27.2653 204.002 26.8822 202.469 26.8822C201.001 26.8822 199.692 27.2494 198.543 27.9836C197.393 28.7179 196.499 29.7235 195.861 31.0005C195.222 32.2775 194.903 33.73 194.903 35.3582C194.903 36.9863 195.222 38.4548 195.861 39.7637C196.499 41.0407 197.393 42.0623 198.543 42.8285C199.692 43.5627 201.001 43.9299 202.469 43.9299ZM226.978 48.0002H222.046V27.6484H216.826V22.8597H222.046V16.4429H226.978V22.8597H232.82V27.6484H226.978V48.0002ZM255.801 44.6961H255.754C254.732 45.6857 253.327 46.5636 251.54 47.3298C249.752 48.096 247.884 48.4791 245.937 48.4791C243.319 48.4791 241.005 47.9364 238.993 46.851C237.014 45.7336 235.466 44.2172 234.348 42.3017C233.231 40.3543 232.672 38.1516 232.672 35.6934C232.672 32.884 233.263 30.4897 234.444 28.5104C235.625 26.4991 237.19 24.9668 239.137 23.9133C241.084 22.8278 243.207 22.2851 245.506 22.2851C247.613 22.2851 249.528 22.8119 251.252 23.8654C252.976 24.887 254.349 26.3076 255.37 28.1273C256.392 29.947 256.903 32.07 256.903 34.4962L256.855 36.6032H237.605C237.892 38.8699 238.818 40.6736 240.382 42.0144C241.978 43.3233 243.989 43.9778 246.416 43.9778C248.172 43.9778 249.592 43.6585 250.678 43.02C251.763 42.3496 252.657 41.7111 253.359 41.1046L255.801 44.6961ZM245.506 26.8343C243.622 26.8343 241.978 27.2813 240.574 28.1752C239.169 29.0371 238.243 30.5376 237.796 32.6765H251.875V32.3413C251.779 31.2559 251.412 30.2981 250.773 29.4681C250.167 28.6381 249.401 27.9996 248.475 27.5526C247.549 27.0738 246.559 26.8343 245.506 26.8343Z" fill="#422261"/>
<path d="M41.0152 22.5078L42.1545 24.7864C42.2413 25.7236 50.66 40.6442 51.5972 40.7367L45.4993 59.28L45.5224 59.28C45.7075 59.28 46.6055 59.0873 46.7154 58.9774L73.0559 32.0184C73.1095 31.9649 73.1521 31.9013 73.1811 31.8314C73.2102 31.7614 73.2251 31.6863 73.2251 31.6106C73.2251 31.5348 73.2102 31.4598 73.1811 31.3898C73.1521 31.3198 73.1095 31.2562 73.0559 31.2027L52.008 10.1548C51.8981 10.0449 51.7535 9.98701 51.5972 9.98701C51.441 9.98701 51.2964 10.0449 51.1865 10.1548L40.0825 21.2469C39.9668 21.3684 41.0152 22.5078 41.0152 22.5078Z" fill="#422261"/>
<path d="M26.7801 56.7905L44.6928 59.8172C45.6206 59.976 46.529 59.4467 46.861 58.5654L53.1961 41.5392L53.2021 41.5168C53.25 41.338 53.2316 41.1833 53.1539 41.0487L33.9956 7.86567C33.9578 7.80001 33.9074 7.74245 33.8473 7.69629C33.7872 7.65014 33.7186 7.61628 33.6455 7.59667C33.5723 7.57706 33.4959 7.57208 33.4208 7.58201C33.3457 7.59193 33.2733 7.61658 33.2077 7.65453L7.42939 22.5376C7.29476 22.6154 7.20143 22.7401 7.161 22.891C7.12057 23.0419 7.13903 23.1966 7.21676 23.3312L26.375 56.5142C26.4624 56.6574 26.6095 56.7567 26.7801 56.7905Z" fill="#37BA83"/>
<path fill-rule="evenodd" clip-rule="evenodd" d="M33.2077 7.65453L7.42939 22.5376C7.29476 22.6154 7.20143 22.7401 7.161 22.891C7.12057 23.0419 7.13902 23.1966 7.21676 23.3312L26.375 56.5142C26.4624 56.6574 26.6095 56.7567 26.7801 56.7905L44.6928 59.8172C45.6206 59.976 46.529 59.4467 46.861 58.5654L53.1961 41.5392L53.2021 41.5168C53.25 41.338 53.2316 41.1833 53.1539 41.0487L33.9956 7.86567C33.9578 7.80001 33.9074 7.74245 33.8473 7.69629C33.7872 7.65014 33.7186 7.61628 33.6455 7.59667C33.5723 7.57706 33.4959 7.57208 33.4208 7.58201C33.3457 7.59193 33.2733 7.61658 33.2077 7.65453ZM50.3012 41.5362L32.7137 11.0739L10.6341 23.8216L28.2198 54.281L44.5334 57.0375L50.3012 41.5362Z" fill="#422261"/>
<path d="M33.2022 21.101C32.624 20.671 31.9674 20.3578 31.2694 20.179C30.5702 19.9991 29.843 19.9552 29.1273 20.0497C28.3845 20.1467 27.6685 20.3903 27.0206 20.7663C26.1106 21.2918 25.3666 22.0536 24.8667 22.9698C24.7471 23.189 24.6432 23.4139 24.5548 23.6446C24.3109 23.6057 24.0641 23.5833 23.8145 23.5773C22.7711 23.5521 21.7393 23.8155 20.8293 24.3409C20.174 24.7193 19.6114 25.2114 19.1554 25.807C18.7143 26.3816 18.3912 27.0284 18.1963 27.7267C18.0012 28.4205 17.9441 29.1459 18.0284 29.8616C18.116 30.606 18.3505 31.3148 18.7267 31.9665C19.0816 32.5812 19.577 33.1492 20.2024 33.657C20.7254 34.0811 21.3506 34.4733 22.062 34.8231C23.1886 35.3762 24.5647 35.837 26.1494 36.1945C28.7759 36.7875 31.1032 36.9009 31.2008 36.9036L31.8003 36.9316C32.0655 36.9434 32.3147 36.7995 32.4371 36.5639L32.7126 36.0307C32.758 35.943 33.8227 33.8737 34.6243 31.3016C35.107 29.7504 35.396 28.3283 35.4803 27.0761C35.5331 26.285 35.5079 25.5465 35.4002 24.8825C35.2732 24.087 35.0289 23.374 34.674 22.7593C34.2996 22.1066 33.803 21.5491 33.2022 21.101V21.101Z" fill="#422261"/>
</svg>
