<svg width="54" height="44" viewBox="0 0 54 44" fill="none" xmlns="http://www.w3.org/2000/svg">
<path d="M29.8127 14.9066L30.6408 16.5629C30.7039 17.2441 36.8232 28.0894 37.5045 28.1567L33.072 41.6353L33.0888 41.6353C33.2234 41.6353 33.8761 41.4952 33.956 41.4153L53.1021 21.8196C53.1411 21.7807 53.172 21.7345 53.1931 21.6836C53.2142 21.6328 53.2251 21.5782 53.2251 21.5232C53.2251 21.4681 53.2142 21.4136 53.1931 21.3627C53.172 21.3118 53.1411 21.2656 53.1021 21.2267L37.803 5.92761C37.7231 5.84771 37.618 5.80566 37.5045 5.80566C37.3909 5.80566 37.2858 5.84771 37.2059 5.92761L29.1347 13.9902C29.0506 14.0785 29.8127 14.9066 29.8127 14.9066Z" fill="white"/>
<path fill-rule="evenodd" clip-rule="evenodd" d="M24.1377 4.1101L5.40024 14.9282C5.30238 14.9847 5.23455 15.0753 5.20516 15.185C5.17577 15.2947 5.18918 15.4071 5.24568 15.505L19.1712 39.6247C19.2347 39.7288 19.3417 39.801 19.4657 39.8255L32.4859 42.0256C33.1602 42.141 33.8206 41.7563 34.0619 41.1156L38.6667 28.7398L38.671 28.7236C38.7059 28.5936 38.6925 28.4811 38.636 28.3833L24.7104 4.26357C24.683 4.21585 24.6463 4.17401 24.6026 4.14046C24.559 4.10691 24.5091 4.0823 24.4559 4.06804C24.4027 4.05379 24.3472 4.05017 24.2926 4.05738C24.238 4.0646 24.1854 4.08252 24.1377 4.1101ZM35.7459 28.8062L23.5073 7.60823L8.74233 16.1328L20.9797 37.3286L31.889 39.172L35.7459 28.8062ZM25.4972 6.45934C25.4964 6.45981 25.4956 6.46027 25.4948 6.46074L25.4972 6.45934Z" fill="white"/>
<path d="M24.5398 14.29C24.1195 13.9774 23.6423 13.7497 23.1349 13.6198C22.6267 13.489 22.0981 13.4571 21.5779 13.5258C21.038 13.5963 20.5175 13.7734 20.0466 14.0467C19.3851 14.4286 18.8443 14.9823 18.481 15.6483C18.3941 15.8076 18.3185 15.9711 18.2543 16.1388C18.077 16.1106 17.8976 16.0943 17.7162 16.0899C16.9578 16.0715 16.2078 16.263 15.5463 16.6449C15.07 16.9199 14.6611 17.2777 14.3296 17.7106C14.009 18.1283 13.7741 18.5984 13.6324 19.106C13.4907 19.6103 13.4492 20.1375 13.5104 20.6578C13.5741 21.1988 13.7446 21.7141 14.018 22.1877C14.276 22.6345 14.636 23.0474 15.0906 23.4165C15.4708 23.7248 15.9252 24.0099 16.4423 24.2641C17.2612 24.6662 18.2615 25.0011 19.4134 25.261C21.3224 25.692 23.0141 25.7744 23.085 25.7764L23.5208 25.7967C23.7136 25.8053 23.8947 25.7007 23.9837 25.5295L24.184 25.1419C24.2169 25.0782 24.9908 23.574 25.5735 21.7044C25.9243 20.5769 26.1344 19.5432 26.1957 18.633C26.2341 18.0581 26.2157 17.5212 26.1375 17.0386C26.0451 16.4604 25.8676 15.9421 25.6096 15.4953C25.3375 15.0209 24.9765 14.6157 24.5398 14.29V14.29Z" fill="white"/>
</svg>
