<svg width="54" height="44" viewBox="0 0 54 44" fill="none" xmlns="http://www.w3.org/2000/svg">
<path d="M29.8127 14.9064L30.6408 16.5626C30.7039 17.2439 36.8232 28.0892 37.5045 28.1565L33.072 41.635L33.0888 41.635C33.2234 41.635 33.8761 41.4949 33.956 41.415L53.1021 21.8194C53.1411 21.7805 53.172 21.7343 53.1931 21.6834C53.2142 21.6325 53.2251 21.578 53.2251 21.5229C53.2251 21.4678 53.2142 21.4133 53.1931 21.3624C53.172 21.3116 53.1411 21.2653 53.1021 21.2264L37.803 5.92737C37.7231 5.84747 37.618 5.80541 37.5045 5.80541C37.3909 5.80541 37.2858 5.84747 37.2059 5.92737L29.1347 13.9899C29.0506 14.0782 29.8127 14.9064 29.8127 14.9064Z" fill="#422261"/>
<path d="M19.4656 39.8255L32.4858 42.0256C33.1602 42.141 33.8205 41.7563 34.0618 41.1156L38.6666 28.7398L38.671 28.7236C38.7058 28.5936 38.6924 28.4811 38.6359 28.3833L24.7104 4.26357C24.6829 4.21585 24.6463 4.17401 24.6026 4.14046C24.5589 4.10691 24.509 4.0823 24.4558 4.06804C24.4026 4.05379 24.3472 4.05017 24.2925 4.05738C24.2379 4.0646 24.1853 4.08252 24.1376 4.1101L5.40018 14.9282C5.30232 14.9847 5.23449 15.0753 5.2051 15.185C5.17571 15.2947 5.18912 15.4071 5.24562 15.505L19.1711 39.6247C19.2347 39.7288 19.3416 39.801 19.4656 39.8255Z" fill="#37BA83"/>
<path fill-rule="evenodd" clip-rule="evenodd" d="M24.1376 4.1101L5.40018 14.9282C5.30232 14.9847 5.23449 15.0753 5.2051 15.185C5.17571 15.2947 5.18912 15.4071 5.24562 15.505L19.1711 39.6247C19.2347 39.7288 19.3416 39.801 19.4656 39.8255L32.4858 42.0256C33.1602 42.141 33.8205 41.7563 34.0618 41.1156L38.6666 28.7398L38.671 28.7236C38.7058 28.5936 38.6924 28.4811 38.6359 28.3833L24.7104 4.26357C24.6829 4.21585 24.6463 4.17401 24.6026 4.14046C24.5589 4.10691 24.509 4.0823 24.4558 4.06804C24.4026 4.05379 24.3472 4.05017 24.2925 4.05738C24.2379 4.0646 24.1853 4.08252 24.1376 4.1101ZM35.7459 28.8062L23.5072 7.60823L8.74226 16.1328L20.9797 37.3286L31.889 39.172L35.7459 28.8062ZM25.4972 6.45934C25.4964 6.45981 25.4956 6.46027 25.4948 6.46074L25.4972 6.45934Z" fill="#422261"/>
<path d="M25.1337 14.8839C24.7134 14.5713 24.2362 14.3437 23.7288 14.2137C23.2206 14.083 22.692 14.0511 22.1717 14.1198C21.6319 14.1903 21.1114 14.3674 20.6405 14.6407C19.979 15.0226 19.4382 15.5763 19.0749 16.2423C18.9879 16.4016 18.9124 16.5651 18.8482 16.7328C18.6709 16.7046 18.4915 16.6883 18.3101 16.6839C17.5517 16.6655 16.8017 16.857 16.1402 17.2389C15.6639 17.5139 15.255 17.8717 14.9235 18.3046C14.6029 18.7222 14.368 19.1924 14.2263 19.7C14.0845 20.2043 14.0431 20.7315 14.1043 21.2518C14.168 21.7928 14.3384 22.3081 14.6119 22.7817C14.8699 23.2285 15.2299 23.6414 15.6845 24.0105C16.0647 24.3188 16.5191 24.6039 17.0362 24.8581C17.8551 25.2602 18.8553 25.5951 20.0072 25.855C21.9163 26.286 23.608 26.3684 23.6789 26.3704L24.1147 26.3907C24.3075 26.3993 24.4886 26.2947 24.5776 26.1234L24.7778 25.7359C24.8108 25.6721 25.5847 24.168 26.1673 22.2984C26.5182 21.1709 26.7283 20.1372 26.7896 19.227C26.8279 18.6521 26.8096 18.1152 26.7313 17.6326C26.639 17.0544 26.4614 16.5361 26.2035 16.0893C25.9314 15.6149 25.5704 15.2097 25.1337 14.8839V14.8839Z" fill="#422261"/>
</svg>
