<svg width="38" height="38" viewBox="0 0 38 38" fill="none" xmlns="http://www.w3.org/2000/svg">
<circle cx="19" cy="19" r="19" fill="#37BA83"/>
<path d="M28.3642 9.41742C28.2425 9.29336 28.0888 9.20746 27.9211 9.16983C27.7534 9.1322 27.5787 9.1444 27.4175 9.20499L7.58186 16.5939C7.4108 16.6604 7.26352 16.7786 7.15959 16.9328C7.05566 17.0871 7 17.27 7 17.4575C7 17.6449 7.05566 17.8279 7.15959 17.9821C7.26352 18.1364 7.4108 18.2546 7.58186 18.321L16.2374 21.8677L19.6996 30.7344C19.7647 30.9019 19.8762 31.0463 20.0204 31.1497C20.1646 31.2531 20.3352 31.311 20.5111 31.3162C20.6933 31.3124 20.8701 31.2521 21.0182 31.1433C21.1663 31.0345 21.2787 30.8822 21.3406 30.7067L28.5536 10.3872C28.615 10.2238 28.6298 10.0459 28.5963 9.87417C28.5627 9.70247 28.4823 9.54406 28.3642 9.41742ZM20.5111 27.8065L17.9956 21.3412L22.3143 16.9171L21.0431 15.6149L16.6882 20.0759L10.413 17.4621L26.2184 11.6156L20.5111 27.8065Z" fill="white"/>
</svg>
