<svg width="360" height="688" viewBox="0 0 360 688" fill="none" xmlns="http://www.w3.org/2000/svg">
<path d="M25.9971 149.934V153.93H36.7631V144.607H25.9971V149.934ZM23.3055 147.27V144.607H20.614V141.943H23.3055V139.279H20.614V147.27H23.3055ZM23.3055 149.934H20.614V151.266C20.614 151.972 20.8976 152.65 21.4024 153.149C21.9071 153.649 22.5917 153.93 23.3055 153.93V149.934ZM42.1461 147.27V139.279H39.4546V141.943H42.1461V144.607H39.4546V147.27H42.1461ZM42.1461 149.934H39.4546V153.93C40.1685 153.93 40.8531 153.649 41.3578 153.149C41.8626 152.65 42.1461 151.972 42.1461 151.266V149.934ZM36.7631 139.279V132.62H25.9971V141.943H36.7631V139.279ZM42.1461 136.615V135.284C42.1461 134.577 41.8626 133.9 41.3578 133.4C40.8531 132.9 40.1685 132.62 39.4546 132.62V136.615H42.1461ZM23.3055 136.615V132.62C22.5917 132.62 21.9071 132.9 21.4024 133.4C20.8976 133.9 20.614 134.577 20.614 135.284V136.615H23.3055ZM23.3055 129.956H39.4546C40.8823 129.956 42.2515 130.517 43.261 131.516C44.2705 132.516 44.8377 133.871 44.8377 135.284V151.266C44.8377 152.679 44.2705 154.034 43.261 155.033C42.2515 156.032 40.8823 156.593 39.4546 156.593H23.3055C21.8779 156.593 20.5087 156.032 19.4992 155.033C18.4896 154.034 17.9225 152.679 17.9225 151.266V135.284C17.9225 133.871 18.4896 132.516 19.4992 131.516C20.5087 130.517 21.8779 129.956 23.3055 129.956V129.956Z" fill="#F1F1F1"/>
<path d="M85.5949 201.306V205.301H96.3609V195.978H85.5949V201.306ZM82.9034 198.642V195.978H80.2118V193.315H82.9034V190.651H80.2118V198.642H82.9034ZM82.9034 201.306H80.2118V202.638C80.2118 203.344 80.4954 204.022 81.0002 204.521C81.5049 205.021 82.1895 205.301 82.9034 205.301V201.306ZM101.744 198.642V190.651H99.0524V193.315H101.744V195.978H99.0524V198.642H101.744ZM101.744 201.306H99.0524V205.301C99.7663 205.301 100.451 205.021 100.956 204.521C101.46 204.022 101.744 203.344 101.744 202.638V201.306ZM96.3609 190.651V183.992H85.5949V193.315H96.3609V190.651ZM101.744 187.987V186.655C101.744 185.949 101.46 185.271 100.956 184.772C100.451 184.272 99.7663 183.992 99.0524 183.992V187.987H101.744ZM82.9034 187.987V183.992C82.1895 183.992 81.5049 184.272 81.0002 184.772C80.4954 185.271 80.2118 185.949 80.2118 186.655V187.987H82.9034ZM82.9034 181.328H99.0524C100.48 181.328 101.849 181.889 102.859 182.888C103.868 183.887 104.435 185.242 104.435 186.655V202.638C104.435 204.051 103.868 205.406 102.859 206.405C101.849 207.404 100.48 207.965 99.0524 207.965H82.9034C81.4757 207.965 80.1065 207.404 79.097 206.405C78.0875 205.406 77.5203 204.051 77.5203 202.638V186.655C77.5203 185.242 78.0875 183.887 79.097 182.888C80.1065 181.889 81.4757 181.328 82.9034 181.328V181.328Z" fill="#F1F1F1"/>
<path d="M265.35 34.823V38.8186H276.116V29.4956H265.35V34.823ZM262.658 32.1593V29.4956H259.967V26.8319H262.658V24.1681H259.967V32.1593H262.658ZM262.658 34.823H259.967V36.1549C259.967 36.8614 260.25 37.5389 260.755 38.0384C261.26 38.538 261.944 38.8186 262.658 38.8186V34.823ZM281.499 32.1593V24.1681H278.807V26.8319H281.499V29.4956H278.807V32.1593H281.499ZM281.499 34.823H278.807V38.8186C279.521 38.8186 280.206 38.538 280.71 38.0384C281.215 37.5389 281.499 36.8614 281.499 36.1549V34.823ZM276.116 24.1681V17.5088H265.35V26.8319H276.116V24.1681ZM281.499 21.5044V20.1725C281.499 19.4661 281.215 18.7886 280.71 18.289C280.206 17.7895 279.521 17.5088 278.807 17.5088V21.5044H281.499ZM262.658 21.5044V17.5088C261.944 17.5088 261.26 17.7895 260.755 18.289C260.25 18.7886 259.967 19.4661 259.967 20.1725V21.5044H262.658ZM262.658 14.8451H278.807C280.235 14.8451 281.604 15.4064 282.614 16.4055C283.623 17.4046 284.19 18.7596 284.19 20.1725V36.1549C284.19 37.5678 283.623 38.9229 282.614 39.922C281.604 40.9211 280.235 41.4824 278.807 41.4824H262.658C261.23 41.4824 259.861 40.9211 258.852 39.922C257.842 38.9229 257.275 37.5678 257.275 36.1549V20.1725C257.275 18.7596 257.842 17.4046 258.852 16.4055C259.861 15.4064 261.23 14.8451 262.658 14.8451V14.8451Z" fill="#F1F1F1"/>
<path d="M331.132 14.8451C324.862 14.8451 319.757 19.8975 319.757 26.1027C319.757 30.25 322.058 33.8591 325.444 35.8123V36.2345L325.409 37.3602H325.444C325.498 37.3602 326.568 37.3906 327.684 38.0638C328.67 38.6571 329.705 39.6512 329.959 41.8633H320.894V44.1148H341.369V41.8633H332.304C332.558 39.6512 333.593 38.6571 334.579 38.0638C335.694 37.3906 336.766 37.3602 336.819 37.3602H336.854L336.819 36.2345V35.8123C340.205 33.8603 342.507 30.25 342.507 26.1027C342.507 19.8975 337.402 14.8451 331.132 14.8451ZM331.132 17.0966C336.171 17.0966 340.232 21.1156 340.232 26.1027C340.232 31.0898 336.171 35.1087 331.132 35.1087C326.092 35.1087 322.032 31.0898 322.032 26.1027C322.032 21.1156 326.092 17.0966 331.132 17.0966ZM334.544 23.8512C333.918 23.8512 333.407 24.3577 333.407 24.9769C333.407 25.5961 333.918 26.1027 334.544 26.1027C335.17 26.1027 335.682 25.5961 335.682 24.9769C335.682 24.3577 335.17 23.8512 334.544 23.8512ZM332.269 26.1027C331.643 26.1027 331.132 26.6093 331.132 27.2284C331.132 27.8476 331.643 28.3542 332.269 28.3542C332.895 28.3542 333.407 27.8476 333.407 27.2284C333.407 26.6093 332.895 26.1027 332.269 26.1027ZM335.682 27.2284C335.056 27.2284 334.544 27.735 334.544 28.3542C334.544 28.9734 335.056 29.4799 335.682 29.4799C336.307 29.4799 336.819 28.9734 336.819 28.3542C336.819 27.735 336.307 27.2284 335.682 27.2284ZM329.994 28.3542C329.368 28.3542 328.857 28.8608 328.857 29.4799C328.857 30.0991 329.368 30.6057 329.994 30.6057C330.62 30.6057 331.132 30.0991 331.132 29.4799C331.132 28.8608 330.62 28.3542 329.994 28.3542ZM333.407 29.4799C332.781 29.4799 332.269 29.9865 332.269 30.6057C332.269 31.2249 332.781 31.7315 333.407 31.7315C334.032 31.7315 334.544 31.2249 334.544 30.6057C334.544 29.9865 334.032 29.4799 333.407 29.4799ZM330.314 37.3602H331.949C331.639 37.7073 331.365 38.0845 331.132 38.486C330.898 38.0845 330.624 37.7073 330.314 37.3602Z" fill="#F1F1F1"/>
<path d="M31.22 72.8762C24.9501 72.8762 19.845 77.9286 19.845 84.1338C19.845 88.2811 22.1462 91.8903 25.5325 93.8435V94.2656L25.4973 95.3914H25.5325C25.586 95.3914 26.6564 95.4218 27.7723 96.095C28.7585 96.6882 29.7936 97.6823 30.0473 99.8944H20.9825V102.146H41.4576V99.8944H32.3928C32.6465 97.6823 33.6816 96.6882 34.6678 96.095C35.7826 95.4218 36.8541 95.3914 36.9075 95.3914H36.9428L36.9075 94.2656V93.8435C40.2939 91.8914 42.5951 88.2811 42.5951 84.1338C42.5951 77.9286 37.4899 72.8762 31.22 72.8762ZM31.22 75.1277C36.2592 75.1277 40.3201 79.1467 40.3201 84.1338C40.3201 89.1209 36.2592 93.1399 31.22 93.1399C26.1809 93.1399 22.12 89.1209 22.12 84.1338C22.12 79.1467 26.1809 75.1277 31.22 75.1277ZM34.6325 81.8823C34.0069 81.8823 33.495 82.3889 33.495 83.008C33.495 83.6272 34.0069 84.1338 34.6325 84.1338C35.2582 84.1338 35.77 83.6272 35.77 83.008C35.77 82.3889 35.2582 81.8823 34.6325 81.8823ZM32.3575 84.1338C31.7319 84.1338 31.22 84.6404 31.22 85.2596C31.22 85.8787 31.7319 86.3853 32.3575 86.3853C32.9832 86.3853 33.495 85.8787 33.495 85.2596C33.495 84.6404 32.9832 84.1338 32.3575 84.1338ZM35.77 85.2596C35.1444 85.2596 34.6325 85.7661 34.6325 86.3853C34.6325 87.0045 35.1444 87.5111 35.77 87.5111C36.3957 87.5111 36.9075 87.0045 36.9075 86.3853C36.9075 85.7661 36.3957 85.2596 35.77 85.2596ZM30.0825 86.3853C29.4569 86.3853 28.945 86.8919 28.945 87.5111C28.945 88.1302 29.4569 88.6368 30.0825 88.6368C30.7082 88.6368 31.22 88.1302 31.22 87.5111C31.22 86.8919 30.7082 86.3853 30.0825 86.3853ZM33.495 87.5111C32.8694 87.5111 32.3575 88.0177 32.3575 88.6368C32.3575 89.256 32.8694 89.7626 33.495 89.7626C34.1207 89.7626 34.6325 89.256 34.6325 88.6368C34.6325 88.0177 34.1207 87.5111 33.495 87.5111ZM30.4022 95.3914H32.0379C31.7277 95.7385 31.4537 96.1156 31.22 96.5171C30.9864 96.1156 30.7124 95.7385 30.4022 95.3914Z" fill="#F1F1F1"/>
<path d="M90.8179 124.248C84.5479 124.248 79.4428 129.301 79.4428 135.506C79.4428 139.653 81.744 143.262 85.1303 145.215V145.638L85.0951 146.763H85.1303C85.1838 146.763 86.2542 146.794 87.3701 147.467C88.3563 148.06 89.3914 149.054 89.6451 151.266H80.5803V153.518H101.055V151.266H91.9906C92.2443 149.054 93.2794 148.06 94.2656 147.467C95.3804 146.794 96.4519 146.763 96.5054 146.763H96.5406L96.5054 145.638V145.215C99.8917 143.263 102.193 139.653 102.193 135.506C102.193 129.301 97.0878 124.248 90.8179 124.248ZM90.8179 126.5C95.857 126.5 99.9179 130.519 99.9179 135.506C99.9179 140.493 95.857 144.512 90.8179 144.512C85.7787 144.512 81.7178 140.493 81.7178 135.506C81.7178 130.519 85.7787 126.5 90.8179 126.5ZM94.2304 133.254C93.6047 133.254 93.0929 133.761 93.0929 134.38C93.0929 134.999 93.6047 135.506 94.2304 135.506C94.856 135.506 95.3679 134.999 95.3679 134.38C95.3679 133.761 94.856 133.254 94.2304 133.254ZM91.9554 135.506C91.3297 135.506 90.8179 136.012 90.8179 136.632C90.8179 137.251 91.3297 137.757 91.9554 137.757C92.581 137.757 93.0929 137.251 93.0929 136.632C93.0929 136.012 92.581 135.506 91.9554 135.506ZM95.3679 136.632C94.7422 136.632 94.2304 137.138 94.2304 137.757C94.2304 138.376 94.7422 138.883 95.3679 138.883C95.9935 138.883 96.5054 138.376 96.5054 137.757C96.5054 137.138 95.9935 136.632 95.3679 136.632ZM89.6804 137.757C89.0547 137.757 88.5428 138.264 88.5428 138.883C88.5428 139.502 89.0547 140.009 89.6804 140.009C90.306 140.009 90.8179 139.502 90.8179 138.883C90.8179 138.264 90.306 137.757 89.6804 137.757ZM93.0929 138.883C92.4672 138.883 91.9554 139.39 91.9554 140.009C91.9554 140.628 92.4672 141.135 93.0929 141.135C93.7185 141.135 94.2304 140.628 94.2304 140.009C94.2304 139.39 93.7185 138.883 93.0929 138.883ZM90 146.763H91.6357C91.3255 147.11 91.0515 147.488 90.8179 147.889C90.5842 147.488 90.3102 147.11 90 146.763Z" fill="#F1F1F1"/>
<path d="M151.377 179.425C145.107 179.425 140.002 184.478 140.002 190.683C140.002 194.83 142.303 198.439 145.689 200.393V200.815L145.654 201.94H145.689C145.743 201.94 146.813 201.971 147.929 202.644C148.915 203.237 149.95 204.231 150.204 206.443H141.139V208.695H161.614V206.443H152.55C152.803 204.231 153.838 203.237 154.825 202.644C155.939 201.971 157.011 201.94 157.064 201.94H157.1L157.064 200.815V200.393C160.451 198.44 162.752 194.83 162.752 190.683C162.752 184.478 157.647 179.425 151.377 179.425ZM151.377 181.677C156.416 181.677 160.477 185.696 160.477 190.683C160.477 195.67 156.416 199.689 151.377 199.689C146.338 199.689 142.277 195.67 142.277 190.683C142.277 185.696 146.338 181.677 151.377 181.677ZM154.789 188.431C154.164 188.431 153.652 188.938 153.652 189.557C153.652 190.176 154.164 190.683 154.789 190.683C155.415 190.683 155.927 190.176 155.927 189.557C155.927 188.938 155.415 188.431 154.789 188.431ZM152.514 190.683C151.889 190.683 151.377 191.189 151.377 191.809C151.377 192.428 151.889 192.934 152.514 192.934C153.14 192.934 153.652 192.428 153.652 191.809C153.652 191.189 153.14 190.683 152.514 190.683ZM155.927 191.809C155.301 191.809 154.789 192.315 154.789 192.934C154.789 193.554 155.301 194.06 155.927 194.06C156.553 194.06 157.064 193.554 157.064 192.934C157.064 192.315 156.553 191.809 155.927 191.809ZM150.239 192.934C149.614 192.934 149.102 193.441 149.102 194.06C149.102 194.679 149.614 195.186 150.239 195.186C150.865 195.186 151.377 194.679 151.377 194.06C151.377 193.441 150.865 192.934 150.239 192.934ZM153.652 194.06C153.026 194.06 152.514 194.567 152.514 195.186C152.514 195.805 153.026 196.312 153.652 196.312C154.278 196.312 154.789 195.805 154.789 195.186C154.789 194.567 154.278 194.06 153.652 194.06ZM150.559 201.94H152.195C151.885 202.288 151.611 202.665 151.377 203.066C151.143 202.665 150.869 202.288 150.559 201.94Z" fill="#F1F1F1"/>
<path d="M211.936 233.651C205.666 233.651 200.561 238.704 200.561 244.909C200.561 249.056 202.862 252.665 206.248 254.618V255.041L206.213 256.166H206.248C206.302 256.166 207.372 256.197 208.488 256.87C209.474 257.463 210.51 258.457 210.763 260.669H201.698V262.921H222.174V260.669H213.109C213.362 258.457 214.398 257.463 215.384 256.87C216.499 256.197 217.57 256.166 217.623 256.166H217.659L217.623 255.041V254.618C221.01 252.666 223.311 249.056 223.311 244.909C223.311 238.704 218.206 233.651 211.936 233.651ZM211.936 235.903C216.975 235.903 221.036 239.922 221.036 244.909C221.036 249.896 216.975 253.915 211.936 253.915C206.897 253.915 202.836 249.896 202.836 244.909C202.836 239.922 206.897 235.903 211.936 235.903ZM215.348 242.657C214.723 242.657 214.211 243.164 214.211 243.783C214.211 244.402 214.723 244.909 215.348 244.909C215.974 244.909 216.486 244.402 216.486 243.783C216.486 243.164 215.974 242.657 215.348 242.657ZM213.073 244.909C212.448 244.909 211.936 245.415 211.936 246.034C211.936 246.654 212.448 247.16 213.073 247.16C213.699 247.16 214.211 246.654 214.211 246.034C214.211 245.415 213.699 244.909 213.073 244.909ZM216.486 246.034C215.86 246.034 215.348 246.541 215.348 247.16C215.348 247.779 215.86 248.286 216.486 248.286C217.112 248.286 217.623 247.779 217.623 247.16C217.623 246.541 217.112 246.034 216.486 246.034ZM210.798 247.16C210.173 247.16 209.661 247.667 209.661 248.286C209.661 248.905 210.173 249.412 210.798 249.412C211.424 249.412 211.936 248.905 211.936 248.286C211.936 247.667 211.424 247.16 210.798 247.16ZM214.211 248.286C213.585 248.286 213.073 248.793 213.073 249.412C213.073 250.031 213.585 250.537 214.211 250.537C214.837 250.537 215.348 250.031 215.348 249.412C215.348 248.793 214.837 248.286 214.211 248.286ZM211.118 256.166H212.754C212.444 256.513 212.17 256.891 211.936 257.292C211.702 256.891 211.428 256.513 211.118 256.166Z" fill="#F1F1F1"/>
<path d="M271.534 287.877C265.264 287.877 260.159 292.929 260.159 299.135C260.159 303.282 262.46 306.891 265.846 308.844V309.266L265.811 310.392H265.846C265.9 310.392 266.97 310.423 268.086 311.096C269.072 311.689 270.107 312.683 270.361 314.895H261.296V317.147H281.771V314.895H272.707C272.96 312.683 273.995 311.689 274.982 311.096C276.096 310.423 277.168 310.392 277.221 310.392H277.257L277.221 309.266V308.844C280.608 306.892 282.909 303.282 282.909 299.135C282.909 292.929 277.804 287.877 271.534 287.877ZM271.534 290.128C276.573 290.128 280.634 294.147 280.634 299.135C280.634 304.122 276.573 308.141 271.534 308.141C266.495 308.141 262.434 304.122 262.434 299.135C262.434 294.147 266.495 290.128 271.534 290.128ZM274.946 296.883C274.321 296.883 273.809 297.39 273.809 298.009C273.809 298.628 274.321 299.135 274.946 299.135C275.572 299.135 276.084 298.628 276.084 298.009C276.084 297.39 275.572 296.883 274.946 296.883ZM272.671 299.135C272.046 299.135 271.534 299.641 271.534 300.26C271.534 300.879 272.046 301.386 272.671 301.386C273.297 301.386 273.809 300.879 273.809 300.26C273.809 299.641 273.297 299.135 272.671 299.135ZM276.084 300.26C275.458 300.26 274.946 300.767 274.946 301.386C274.946 302.005 275.458 302.512 276.084 302.512C276.709 302.512 277.221 302.005 277.221 301.386C277.221 300.767 276.709 300.26 276.084 300.26ZM270.396 301.386C269.771 301.386 269.259 301.893 269.259 302.512C269.259 303.131 269.771 303.638 270.396 303.638C271.022 303.638 271.534 303.131 271.534 302.512C271.534 301.893 271.022 301.386 270.396 301.386ZM273.809 302.512C273.183 302.512 272.671 303.018 272.671 303.638C272.671 304.257 273.183 304.763 273.809 304.763C274.434 304.763 274.946 304.257 274.946 303.638C274.946 303.018 274.434 302.512 273.809 302.512ZM270.716 310.392H272.352C272.041 310.739 271.767 311.116 271.534 311.518C271.3 311.116 271.026 310.739 270.716 310.392Z" fill="#F1F1F1"/>
<path d="M331.132 344.957C324.862 344.957 319.757 350.009 319.757 356.214C319.757 360.362 322.058 363.971 325.444 365.924V366.346L325.409 367.472H325.444C325.498 367.472 326.568 367.502 327.684 368.176C328.67 368.769 329.705 369.763 329.959 371.975H320.894V374.226H341.369V371.975H332.304C332.558 369.763 333.593 368.769 334.579 368.176C335.694 367.502 336.766 367.472 336.819 367.472H336.854L336.819 366.346V365.924C340.205 363.972 342.507 360.362 342.507 356.214C342.507 350.009 337.402 344.957 331.132 344.957ZM331.132 347.208C336.171 347.208 340.232 351.227 340.232 356.214C340.232 361.201 336.171 365.22 331.132 365.22C326.092 365.22 322.032 361.201 322.032 356.214C322.032 351.227 326.092 347.208 331.132 347.208ZM334.544 353.963C333.918 353.963 333.407 354.469 333.407 355.089C333.407 355.708 333.918 356.214 334.544 356.214C335.17 356.214 335.682 355.708 335.682 355.089C335.682 354.469 335.17 353.963 334.544 353.963ZM332.269 356.214C331.643 356.214 331.132 356.721 331.132 357.34C331.132 357.959 331.643 358.466 332.269 358.466C332.895 358.466 333.407 357.959 333.407 357.34C333.407 356.721 332.895 356.214 332.269 356.214ZM335.682 357.34C335.056 357.34 334.544 357.847 334.544 358.466C334.544 359.085 335.056 359.592 335.682 359.592C336.307 359.592 336.819 359.085 336.819 358.466C336.819 357.847 336.307 357.34 335.682 357.34ZM329.994 358.466C329.368 358.466 328.857 358.972 328.857 359.592C328.857 360.211 329.368 360.717 329.994 360.717C330.62 360.717 331.132 360.211 331.132 359.592C331.132 358.972 330.62 358.466 329.994 358.466ZM333.407 359.592C332.781 359.592 332.269 360.098 332.269 360.717C332.269 361.337 332.781 361.843 333.407 361.843C334.032 361.843 334.544 361.337 334.544 360.717C334.544 360.098 334.032 359.592 333.407 359.592ZM330.314 367.472H331.949C331.639 367.819 331.365 368.196 331.132 368.598C330.898 368.196 330.624 367.819 330.314 367.472Z" fill="#F1F1F1"/>
<path d="M31.22 402.988C24.9501 402.988 19.845 408.04 19.845 414.246C19.845 418.393 22.1462 422.002 25.5325 423.955V424.377L25.4973 425.503H25.5325C25.586 425.503 26.6564 425.534 27.7723 426.207C28.7585 426.8 29.7936 427.794 30.0473 430.006H20.9825V432.258H41.4576V430.006H32.3928C32.6465 427.794 33.6816 426.8 34.6678 426.207C35.7826 425.534 36.8541 425.503 36.9075 425.503H36.9428L36.9075 424.377V423.955C40.2939 422.003 42.5951 418.393 42.5951 414.246C42.5951 408.04 37.4899 402.988 31.22 402.988ZM31.22 405.24C36.2592 405.24 40.3201 409.259 40.3201 414.246C40.3201 419.233 36.2592 423.252 31.22 423.252C26.1809 423.252 22.12 419.233 22.12 414.246C22.12 409.259 26.1809 405.24 31.22 405.24ZM34.6325 411.994C34.0069 411.994 33.495 412.501 33.495 413.12C33.495 413.739 34.0069 414.246 34.6325 414.246C35.2582 414.246 35.77 413.739 35.77 413.12C35.77 412.501 35.2582 411.994 34.6325 411.994ZM32.3575 414.246C31.7319 414.246 31.22 414.752 31.22 415.371C31.22 415.991 31.7319 416.497 32.3575 416.497C32.9832 416.497 33.495 415.991 33.495 415.371C33.495 414.752 32.9832 414.246 32.3575 414.246ZM35.77 415.371C35.1444 415.371 34.6325 415.878 34.6325 416.497C34.6325 417.116 35.1444 417.623 35.77 417.623C36.3957 417.623 36.9075 417.116 36.9075 416.497C36.9075 415.878 36.3957 415.371 35.77 415.371ZM30.0825 416.497C29.4569 416.497 28.945 417.004 28.945 417.623C28.945 418.242 29.4569 418.749 30.0825 418.749C30.7082 418.749 31.22 418.242 31.22 417.623C31.22 417.004 30.7082 416.497 30.0825 416.497ZM33.495 417.623C32.8694 417.623 32.3575 418.129 32.3575 418.749C32.3575 419.368 32.8694 419.874 33.495 419.874C34.1207 419.874 34.6325 419.368 34.6325 418.749C34.6325 418.129 34.1207 417.623 33.495 417.623ZM30.4022 425.503H32.0379C31.7277 425.85 31.4537 426.227 31.22 426.629C30.9864 426.227 30.7124 425.85 30.4022 425.503Z" fill="#F1F1F1"/>
<path d="M20.4351 40.4839C23.3092 43.3283 27.116 44.8938 31.1595 44.8938C35.2029 44.8938 39.0113 43.3283 41.8839 40.4839C47.7973 34.6314 47.7973 25.109 41.8839 19.2551C39.0113 16.4121 35.2014 14.8451 31.1595 14.8451C27.1176 14.8451 23.3077 16.4121 20.4351 19.2551C14.5216 25.1075 14.5216 34.6314 20.4351 40.4839ZM39.7393 38.3614C38.1499 39.9388 36.147 41.0456 33.9562 41.5571C33.9426 39.1525 34.845 36.8349 36.5209 35.1763C38.2848 33.4306 40.6645 32.4324 43.0077 32.3979C42.5246 34.657 41.3892 36.7287 39.7393 38.3614V38.3614ZM43.2655 29.4079C40.0441 29.3764 36.7681 30.6883 34.3763 33.0538C32.0528 35.3534 30.8471 38.5776 30.9441 41.8813C27.7981 41.8338 24.7956 40.5705 22.5782 38.3614C20.358 36.163 19.0895 33.1957 19.0413 30.0879C19.1581 30.0909 19.2749 30.1089 19.3917 30.1089C22.5994 30.1089 25.701 28.9021 27.9411 26.6866C30.3375 24.315 31.6676 21.0743 31.6266 17.8711C34.6825 17.9797 37.5825 19.2337 39.7393 21.379C41.8988 23.5174 43.1589 26.3865 43.2655 29.4079V29.4079ZM22.5797 21.379C24.228 19.7401 26.3211 18.6092 28.6054 18.1233C28.5781 20.4574 27.5665 22.8125 25.7981 24.5641C24.1237 26.2198 21.791 27.1098 19.3704 27.1023C19.8786 24.9352 20.9904 22.9524 22.5797 21.379V21.379Z" fill="#F1F1F1"/>
<path d="M80.0329 91.8557C82.907 94.7001 86.7139 96.2657 90.7573 96.2657C94.8007 96.2657 98.6091 94.7001 101.482 91.8557C107.395 86.0032 107.395 76.4808 101.482 70.6269C98.6091 67.784 94.7992 66.2169 90.7573 66.2169C86.7154 66.2169 82.9055 67.784 80.0329 70.6269C74.1194 76.4793 74.1194 86.0032 80.0329 91.8557ZM99.3371 89.7333C97.7477 91.3106 95.7448 92.4174 93.554 92.9289C93.5404 90.5243 94.4428 88.2067 96.1187 86.5481C97.8826 84.8024 100.262 83.8043 102.606 83.7697C102.122 86.0288 100.987 88.1005 99.3371 89.7333V89.7333ZM102.863 80.7797C99.6419 80.7482 96.3659 82.0601 93.9742 84.4257C91.6506 86.7252 90.4449 89.9494 90.5419 93.2531C87.3959 93.2056 84.3934 91.9424 82.176 89.7333C79.9558 87.5349 78.6873 84.5675 78.6391 81.4597C78.7559 81.4627 78.8727 81.4807 78.9895 81.4807C82.1972 81.4807 85.2988 80.2739 87.5389 78.0584C89.9353 75.6868 91.2654 72.4461 91.2244 69.243C94.2803 69.3516 97.1803 70.6055 99.3371 72.7508C101.497 74.8892 102.757 77.7583 102.863 80.7797V80.7797ZM82.1775 72.7508C83.8258 71.1119 85.9189 69.981 88.2032 69.4951C88.1759 71.8292 87.1643 74.1843 85.3959 75.936C83.7215 77.5916 81.3888 78.4817 78.9682 78.4742C79.4764 76.307 80.5883 74.3242 82.1775 72.7508V72.7508Z" fill="#F1F1F1"/>
<path d="M140.592 147.033C143.466 149.877 147.273 151.443 151.316 151.443C155.36 151.443 159.168 149.877 162.041 147.033C167.954 141.18 167.954 131.658 162.041 125.804C159.168 122.961 155.358 121.394 151.316 121.394C147.274 121.394 143.465 122.961 140.592 125.804C134.679 131.657 134.679 141.18 140.592 147.033ZM159.896 144.91C158.307 146.488 156.304 147.595 154.113 148.106C154.099 145.702 155.002 143.384 156.678 141.725C158.442 139.98 160.821 138.982 163.165 138.947C162.681 141.206 161.546 143.278 159.896 144.91V144.91ZM163.422 135.957C160.201 135.925 156.925 137.237 154.533 139.603C152.21 141.902 151.004 145.127 151.101 148.43C147.955 148.383 144.953 147.12 142.735 144.91C140.515 142.712 139.246 139.745 139.198 136.637C139.315 136.64 139.432 136.658 139.549 136.658C142.756 136.658 145.858 135.451 148.098 133.236C150.494 130.864 151.824 127.623 151.784 124.42C154.839 124.529 157.739 125.783 159.896 127.928C162.056 130.066 163.316 132.936 163.422 135.957V135.957ZM142.737 127.928C144.385 126.289 146.478 125.158 148.762 124.672C148.735 127.006 147.723 129.362 145.955 131.113C144.281 132.769 141.948 133.659 139.527 133.651C140.036 131.484 141.147 129.501 142.737 127.928V127.928Z" fill="#F1F1F1"/>
<path d="M201.151 201.259C204.025 204.103 207.832 205.669 211.875 205.669C215.919 205.669 219.727 204.103 222.6 201.259C228.513 195.406 228.513 185.884 222.6 180.03C219.727 177.187 215.917 175.62 211.875 175.62C207.834 175.62 204.024 177.187 201.151 180.03C195.238 185.882 195.238 195.406 201.151 201.259ZM220.455 199.136C218.866 200.714 216.863 201.82 214.672 202.332C214.659 199.927 215.561 197.61 217.237 195.951C219.001 194.205 221.38 193.207 223.724 193.173C223.241 195.432 222.105 197.503 220.455 199.136V199.136ZM223.981 190.183C220.76 190.151 217.484 191.463 215.092 193.829C212.769 196.128 211.563 199.352 211.66 202.656C208.514 202.609 205.512 201.345 203.294 199.136C201.074 196.938 199.805 193.971 199.757 190.863C199.874 190.866 199.991 190.884 200.108 190.884C203.315 190.884 206.417 189.677 208.657 187.461C211.053 185.09 212.384 181.849 212.343 178.646C215.398 178.755 218.298 180.008 220.455 182.154C222.615 184.292 223.875 187.161 223.981 190.183V190.183ZM203.296 182.154C204.944 180.515 207.037 179.384 209.321 178.898C209.294 181.232 208.282 183.587 206.514 185.339C204.84 186.995 202.507 187.885 200.086 187.877C200.595 185.71 201.706 183.727 203.296 182.154V182.154Z" fill="#F1F1F1"/>
<path d="M260.749 255.484C263.623 258.329 267.43 259.894 271.473 259.894C275.517 259.894 279.325 258.329 282.198 255.484C288.111 249.632 288.111 240.11 282.198 234.256C279.325 231.413 275.515 229.846 271.473 229.846C267.431 229.846 263.621 231.413 260.749 234.256C254.835 240.108 254.835 249.632 260.749 255.484ZM280.053 253.362C278.464 254.939 276.461 256.046 274.27 256.558C274.256 254.153 275.159 251.836 276.835 250.177C278.599 248.431 280.978 247.433 283.321 247.399C282.838 249.658 281.703 251.729 280.053 253.362V253.362ZM283.579 244.409C280.358 244.377 277.082 245.689 274.69 248.054C272.367 250.354 271.161 253.578 271.258 256.882C268.112 256.834 265.109 255.571 262.892 253.362C260.672 251.164 259.403 248.196 259.355 245.088C259.472 245.091 259.589 245.109 259.705 245.109C262.913 245.109 266.015 243.903 268.255 241.687C270.651 239.316 271.981 236.075 271.94 232.872C274.996 232.98 277.896 234.234 280.053 236.38C282.213 238.518 283.473 241.387 283.579 244.409V244.409ZM262.893 236.38C264.542 234.741 266.635 233.61 268.919 233.124C268.892 235.458 267.88 237.813 266.112 239.565C264.437 241.22 262.105 242.11 259.684 242.103C260.192 239.936 261.304 237.953 262.893 236.38V236.38Z" fill="#F1F1F1"/>
<path d="M320.347 312.564C323.221 315.409 327.028 316.974 331.071 316.974C335.115 316.974 338.923 315.409 341.795 312.564C347.709 306.712 347.709 297.19 341.795 291.336C338.923 288.493 335.113 286.926 331.071 286.926C327.029 286.926 323.219 288.493 320.347 291.336C314.433 297.188 314.433 306.712 320.347 312.564ZM339.651 310.442C338.061 312.019 336.059 313.126 333.868 313.638C333.854 311.233 334.757 308.916 336.432 307.257C338.196 305.511 340.576 304.513 342.919 304.479C342.436 306.738 341.301 308.809 339.651 310.442V310.442ZM343.177 301.489C339.956 301.457 336.68 302.769 334.288 305.135C331.964 307.434 330.759 310.658 330.856 313.962C327.71 313.914 324.707 312.651 322.49 310.442C320.27 308.244 319.001 305.276 318.953 302.169C319.07 302.172 319.186 302.19 319.303 302.19C322.511 302.19 325.613 300.983 327.853 298.767C330.249 296.396 331.579 293.155 331.538 289.952C334.594 290.06 337.494 291.314 339.651 293.46C341.81 295.598 343.07 298.467 343.177 301.489V301.489ZM322.491 293.46C324.14 291.821 326.233 290.69 328.517 290.204C328.49 292.538 327.478 294.893 325.71 296.645C324.035 298.3 321.703 299.191 319.282 299.183C319.79 297.016 320.902 295.033 322.491 293.46V293.46Z" fill="#F1F1F1"/>
<path d="M20.4351 370.596C23.3092 373.44 27.116 375.005 31.1595 375.005C35.2029 375.005 39.0113 373.44 41.8839 370.596C47.7973 364.743 47.7973 355.221 41.8839 349.367C39.0113 346.524 35.2014 344.957 31.1595 344.957C27.1176 344.957 23.3077 346.524 20.4351 349.367C14.5216 355.219 14.5216 364.743 20.4351 370.596ZM39.7393 368.473C38.1499 370.05 36.147 371.157 33.9562 371.669C33.9426 369.264 34.845 366.947 36.5209 365.288C38.2848 363.542 40.6645 362.544 43.0077 362.51C42.5246 364.769 41.3892 366.84 39.7393 368.473V368.473ZM43.2655 359.52C40.0441 359.488 36.7681 360.8 34.3763 363.166C32.0528 365.465 30.8471 368.689 30.9441 371.993C27.7981 371.945 24.7956 370.682 22.5782 368.473C20.358 366.275 19.0895 363.307 19.0413 360.2C19.1581 360.203 19.2749 360.221 19.3917 360.221C22.5994 360.221 25.701 359.014 27.9411 356.798C30.3375 354.427 31.6676 351.186 31.6266 347.983C34.6825 348.091 37.5825 349.345 39.7393 351.491C41.8988 353.629 43.1589 356.498 43.2655 359.52V359.52ZM22.5797 351.491C24.228 349.852 26.3211 348.721 28.6054 348.235C28.5781 350.569 27.5665 352.924 25.7981 354.676C24.1237 356.331 21.791 357.222 19.3704 357.214C19.8786 355.047 20.9904 353.064 22.5797 351.491V351.491Z" fill="#F1F1F1"/>
<path d="M80.0329 421.967C82.907 424.812 86.7139 426.377 90.7573 426.377C94.8007 426.377 98.6091 424.812 101.482 421.967C107.395 416.115 107.395 406.593 101.482 400.739C98.6091 397.896 94.7992 396.329 90.7573 396.329C86.7154 396.329 82.9055 397.896 80.0329 400.739C74.1194 406.591 74.1194 416.115 80.0329 421.967ZM99.3371 419.845C97.7477 421.422 95.7448 422.529 93.554 423.041C93.5404 420.636 94.4428 418.318 96.1187 416.66C97.8826 414.914 100.262 413.916 102.606 413.881C102.122 416.141 100.987 418.212 99.3371 419.845V419.845ZM102.863 410.891C99.6419 410.86 96.3659 412.172 93.9742 414.537C91.6506 416.837 90.4449 420.061 90.5419 423.365C87.3959 423.317 84.3934 422.054 82.176 419.845C79.9558 417.647 78.6873 414.679 78.6391 411.571C78.7559 411.574 78.8727 411.592 78.9895 411.592C82.1972 411.592 85.2988 410.386 87.5389 408.17C89.9353 405.798 91.2654 402.558 91.2244 399.355C94.2803 399.463 97.1803 400.717 99.3371 402.863C101.497 405.001 102.757 407.87 102.863 410.891V410.891ZM82.1775 402.863C83.8258 401.224 85.9189 400.093 88.2032 399.607C88.1759 401.941 87.1643 404.296 85.3959 406.048C83.7215 407.703 81.3888 408.593 78.9682 408.586C79.4764 406.419 80.5883 404.436 82.1775 402.863V402.863Z" fill="#F1F1F1"/>
<path d="M85.0903 14.8451L85.7307 16.393C86.13 17.3555 86.6726 19.7613 86.5475 20.896C84.9971 21.8417 84.0461 22.7648 83.3124 23.5348C82.4161 22.8177 80.6427 21.5996 77.6966 21.5996H76.5591V22.7254C76.5591 24.8801 77.3451 26.6306 77.626 27.2284C77.3417 27.8217 76.5591 29.5103 76.5591 31.7315V32.8572H77.6966C80.6199 32.8572 82.4149 31.6346 83.3136 30.922C84.6592 32.2943 86.5782 33.7409 89.0011 34.8273C88.8941 35.5264 88.81 36.5024 89.1069 37.6417L89.3207 38.486H90.2091C91.6128 38.486 92.8219 37.7959 93.799 37.1846C94.5987 36.6825 94.9855 36.3313 95.1857 36.1636C99.7095 36.006 102.598 33.5912 104.143 31.2035C105.743 28.7369 106.134 26.2783 106.134 26.2783L106.169 25.9968L106.064 25.7154C106.064 25.7154 103.459 18.6355 96.3948 18.2922C95.6441 17.3916 94.5942 16.6441 93.1245 16.0406C91.3864 15.3292 89.2001 14.8451 86.7966 14.8451H85.0903ZM88.3959 17.2373C89.8314 17.3949 91.1737 17.682 92.235 18.1165C93.6887 18.7109 94.7011 19.5631 94.9365 19.9459L95.2573 20.4739H95.8966C101.58 20.4739 103.624 25.7987 103.789 26.2434C103.709 26.6565 103.379 28.227 102.225 30.0079C100.904 32.0433 98.7665 33.983 94.7591 33.983H94.3325L94.0129 34.2644C94.0129 34.2644 93.4123 34.771 92.591 35.2843C92.1588 35.5534 91.7914 35.6018 91.3466 35.7774C91.3921 35.263 91.3466 34.5109 91.3466 34.5109L91.5957 33.5259L90.6709 33.2084C87.8545 32.1446 85.4589 30.1396 84.2372 28.7414L83.4546 27.8262L82.6015 28.6705C82.6015 28.6705 81.0863 29.722 79.1184 30.2184C79.4119 28.899 79.8646 27.7215 79.8646 27.7215L80.1138 27.2284L79.8646 26.7353C79.8646 26.7353 79.3721 25.443 79.0832 24.0617C81.1796 24.5199 82.6015 25.7863 82.6015 25.7863L83.4546 26.6306L84.2372 25.7154C85.2553 24.5773 87.9966 21.7404 92.0223 21.2124L91.7015 18.9958C90.6129 19.1376 89.6631 19.4494 88.752 19.8063C88.6939 18.8607 88.645 18.0467 88.3959 17.2373V17.2373ZM98.7404 24.9769C98.2878 24.9769 97.8538 25.1548 97.5339 25.4715C97.2139 25.7882 97.0341 26.2177 97.0341 26.6655C97.0341 27.1134 97.2139 27.5429 97.5339 27.8596C97.8538 28.1763 98.2878 28.3542 98.7404 28.3542C99.1929 28.3542 99.6269 28.1763 99.9469 27.8596C100.267 27.5429 100.447 27.1134 100.447 26.6655C100.447 26.2177 100.267 25.7882 99.9469 25.4715C99.6269 25.1548 99.1929 24.9769 98.7404 24.9769Z" fill="#F1F1F1"/>
<path d="M145.649 70.0222L146.29 71.5701C146.689 72.5327 147.232 74.9384 147.107 76.0732C145.556 77.0188 144.605 77.9419 143.871 78.7119C142.975 77.9948 141.202 76.7768 138.256 76.7768H137.118V77.9025C137.118 80.0572 137.904 81.8078 138.185 82.4055C137.901 82.9988 137.118 84.6875 137.118 86.9086V88.0343H138.256C141.179 88.0343 142.974 86.8118 143.873 86.0992C145.218 87.4715 147.137 88.918 149.56 90.0044C149.453 90.7035 149.369 91.6795 149.666 92.8188L149.88 93.6631H150.768C152.172 93.6631 153.381 92.973 154.358 92.3617C155.158 91.8597 155.545 91.5084 155.745 91.3407C160.269 91.1831 163.157 88.7683 164.703 86.3806C166.302 83.9141 166.693 81.4554 166.693 81.4554L166.728 81.174L166.623 80.8925C166.623 80.8925 164.018 73.8126 156.954 73.4693C156.203 72.5687 155.153 71.8212 153.684 71.2178C151.945 70.5063 149.759 70.0222 147.356 70.0222H145.649ZM148.955 72.4145C150.391 72.5721 151.733 72.8591 152.794 73.2937C154.248 73.8881 155.26 74.7403 155.496 75.123L155.816 75.651H156.456C162.139 75.651 164.183 80.9758 164.348 81.4205C164.268 81.8337 163.938 83.4041 162.784 85.185C161.463 87.2204 159.326 89.1601 155.318 89.1601H154.892L154.572 89.4415C154.572 89.4415 153.971 89.9481 153.15 90.4615C152.718 90.7305 152.35 90.7789 151.906 90.9545C151.951 90.4401 151.906 89.6881 151.906 89.6881L152.155 88.703L151.23 88.3856C148.414 87.3217 146.018 85.3168 144.796 83.9186L144.014 83.0033L143.161 83.8476C143.161 83.8476 141.645 84.8991 139.678 85.3956C139.971 84.0762 140.424 82.8986 140.424 82.8986L140.673 82.4055L140.424 81.9125C140.424 81.9125 139.931 80.6201 139.642 79.2388C141.739 79.697 143.161 80.9634 143.161 80.9634L144.014 81.8078L144.796 80.8925C145.814 79.7544 148.556 76.9175 152.581 76.3895L152.261 74.1729C151.172 74.3147 150.222 74.6266 149.311 74.9834C149.253 74.0378 149.204 73.2239 148.955 72.4145V72.4145ZM159.299 80.154C158.847 80.154 158.413 80.3319 158.093 80.6486C157.773 80.9653 157.593 81.3948 157.593 81.8427C157.593 82.2905 157.773 82.72 158.093 83.0367C158.413 83.3534 158.847 83.5313 159.299 83.5313C159.752 83.5313 160.186 83.3534 160.506 83.0367C160.826 82.72 161.006 82.2905 161.006 81.8427C161.006 81.3948 160.826 80.9653 160.506 80.6486C160.186 80.3319 159.752 80.154 159.299 80.154Z" fill="#F1F1F1"/>
<path d="M206.208 124.248L206.849 125.796C207.248 126.759 207.791 129.164 207.666 130.299C206.115 131.245 205.164 132.168 204.431 132.938C203.534 132.221 201.761 131.003 198.815 131.003H197.677V132.128C197.677 134.283 198.463 136.034 198.744 136.631C198.46 137.225 197.677 138.913 197.677 141.135V142.26H198.815C201.738 142.26 203.533 141.038 204.432 140.325C205.777 141.697 207.696 143.144 210.119 144.23C210.012 144.929 209.928 145.905 210.225 147.045L210.439 147.889H211.327C212.731 147.889 213.94 147.199 214.917 146.588C215.717 146.086 216.104 145.734 216.304 145.567C220.828 145.409 223.716 142.994 225.262 140.607C226.861 138.14 227.252 135.681 227.252 135.681L227.288 135.4L227.182 135.118C227.182 135.118 224.577 128.039 217.513 127.695C216.762 126.795 215.712 126.047 214.243 125.444C212.505 124.732 210.318 124.248 207.915 124.248H206.208ZM209.514 126.64C210.95 126.798 212.292 127.085 213.353 127.52C214.807 128.114 215.819 128.966 216.055 129.349L216.375 129.877H217.015C222.698 129.877 224.742 135.202 224.907 135.646C224.827 136.06 224.497 137.63 223.343 139.411C222.022 141.446 219.885 143.386 215.877 143.386H215.451L215.131 143.667C215.131 143.667 214.53 144.174 213.709 144.687C213.277 144.956 212.909 145.005 212.465 145.18C212.51 144.666 212.465 143.914 212.465 143.914L212.714 142.929L211.789 142.612C208.973 141.548 206.577 139.543 205.355 138.145L204.573 137.229L203.72 138.074C203.72 138.074 202.204 139.125 200.237 139.622C200.53 138.302 200.983 137.125 200.983 137.125L201.232 136.631L200.983 136.138C200.983 136.138 200.49 134.846 200.201 133.465C202.298 133.923 203.72 135.189 203.72 135.189L204.573 136.034L205.355 135.118C206.373 133.98 209.115 131.143 213.14 130.615L212.82 128.399C211.731 128.541 210.781 128.853 209.87 129.209C209.812 128.264 209.763 127.45 209.514 126.64V126.64ZM219.858 134.38C219.406 134.38 218.972 134.558 218.652 134.875C218.332 135.191 218.152 135.621 218.152 136.069C218.152 136.516 218.332 136.946 218.652 137.263C218.972 137.579 219.406 137.757 219.858 137.757C220.311 137.757 220.745 137.579 221.065 137.263C221.385 136.946 221.565 136.516 221.565 136.069C221.565 135.621 221.385 135.191 221.065 134.875C220.745 134.558 220.311 134.38 219.858 134.38Z" fill="#F1F1F1"/>
<path d="M264.845 178.474L265.485 180.022C265.885 180.984 266.427 183.39 266.302 184.525C264.752 185.47 263.801 186.394 263.067 187.164C262.171 186.446 260.397 185.228 257.451 185.228H256.314V186.354C256.314 188.509 257.1 190.259 257.381 190.857C257.096 191.45 256.314 193.139 256.314 195.36V196.486H257.451C260.375 196.486 262.17 195.263 263.068 194.551C264.414 195.923 266.333 197.37 268.756 198.456C268.649 199.155 268.565 200.131 268.862 201.27L269.075 202.115H269.964C271.367 202.115 272.577 201.425 273.554 200.813C274.353 200.311 274.74 199.96 274.94 199.792C279.464 199.635 282.352 197.22 283.898 194.832C285.498 192.366 285.889 189.907 285.889 189.907L285.924 189.626L285.818 189.344C285.818 189.344 283.213 182.264 276.15 181.921C275.399 181.02 274.349 180.273 272.879 179.669C271.141 178.958 268.955 178.474 266.551 178.474H264.845ZM268.151 180.866C269.586 181.024 270.928 181.311 271.99 181.745C273.443 182.34 274.456 183.192 274.691 183.575L275.012 184.103H275.651C281.334 184.103 283.378 189.428 283.543 189.872C283.464 190.285 283.134 191.856 281.979 193.637C280.659 195.672 278.521 197.612 274.514 197.612H274.087L273.768 197.893C273.768 197.893 273.167 198.4 272.346 198.913C271.913 199.182 271.546 199.231 271.101 199.406C271.147 198.892 271.101 198.14 271.101 198.14L271.35 197.155L270.426 196.837C267.609 195.773 265.214 193.768 263.992 192.37L263.209 191.455L262.356 192.299C262.356 192.299 260.841 193.351 258.873 193.847C259.167 192.528 259.619 191.35 259.619 191.35L259.868 190.857L259.619 190.364C259.619 190.364 259.127 189.072 258.838 187.69C260.934 188.149 262.356 189.415 262.356 189.415L263.209 190.259L263.992 189.344C265.01 188.206 267.751 185.369 271.777 184.841L271.456 182.625C270.368 182.766 269.418 183.078 268.507 183.435C268.449 182.489 268.4 181.676 268.151 180.866V180.866ZM278.495 188.606C278.043 188.606 277.609 188.784 277.289 189.1C276.969 189.417 276.789 189.846 276.789 190.294C276.789 190.742 276.969 191.172 277.289 191.488C277.609 191.805 278.043 191.983 278.495 191.983C278.948 191.983 279.382 191.805 279.702 191.488C280.022 191.172 280.201 190.742 280.201 190.294C280.201 189.846 280.022 189.417 279.702 189.1C279.382 188.784 278.948 188.606 278.495 188.606Z" fill="#F1F1F1"/>
<path d="M324.443 235.554L325.083 237.102C325.483 238.064 326.025 240.47 325.9 241.605C324.35 242.55 323.399 243.473 322.665 244.243C321.769 243.526 319.995 242.308 317.049 242.308H315.912V243.434C315.912 245.589 316.698 247.339 316.979 247.937C316.694 248.53 315.912 250.219 315.912 252.44V253.566H317.049C319.972 253.566 321.767 252.343 322.666 251.631C324.012 253.003 325.931 254.45 328.354 255.536C328.247 256.235 328.162 257.211 328.459 258.35L328.673 259.195H329.562C330.965 259.195 332.174 258.505 333.152 257.893C333.951 257.391 334.338 257.04 334.538 256.872C339.062 256.715 341.95 254.3 343.496 251.912C345.095 249.446 345.487 246.987 345.487 246.987L345.522 246.705L345.416 246.424C345.416 246.424 342.811 239.344 335.747 239.001C334.997 238.1 333.947 237.353 332.477 236.749C330.739 236.038 328.553 235.554 326.149 235.554H324.443ZM327.748 237.946C329.184 238.104 330.526 238.391 331.588 238.825C333.041 239.42 334.054 240.272 334.289 240.655L334.61 241.183H335.249C340.932 241.183 342.976 246.507 343.141 246.952C343.061 247.365 342.732 248.936 341.577 250.717C340.256 252.752 338.119 254.692 334.112 254.692H333.685L333.365 254.973C333.365 254.973 332.765 255.48 331.944 255.993C331.511 256.262 331.144 256.31 330.699 256.486C330.745 255.972 330.699 255.22 330.699 255.22L330.948 254.235L330.023 253.917C327.207 252.853 324.811 250.848 323.59 249.45L322.807 248.535L321.954 249.379C321.954 249.379 320.439 250.431 318.471 250.927C318.764 249.608 319.217 248.43 319.217 248.43L319.466 247.937L319.217 247.444C319.217 247.444 318.725 246.152 318.436 244.77C320.532 245.228 321.954 246.495 321.954 246.495L322.807 247.339L323.59 246.424C324.608 245.286 327.349 242.449 331.375 241.921L331.054 239.704C329.965 239.846 329.016 240.158 328.104 240.515C328.046 239.569 327.998 238.755 327.748 237.946V237.946ZM338.093 245.686C337.64 245.686 337.206 245.863 336.886 246.18C336.566 246.497 336.387 246.926 336.387 247.374C336.387 247.822 336.566 248.252 336.886 248.568C337.206 248.885 337.64 249.063 338.093 249.063C338.545 249.063 338.979 248.885 339.299 248.568C339.619 248.252 339.799 247.822 339.799 247.374C339.799 246.926 339.619 246.497 339.299 246.18C338.979 245.863 338.545 245.686 338.093 245.686Z" fill="#F1F1F1"/>
<path d="M24.5313 293.585L25.1717 295.133C25.5709 296.095 26.1135 298.501 25.9884 299.636C24.438 300.582 23.487 301.505 22.7533 302.275C21.857 301.558 20.0836 300.339 17.1375 300.339H16V301.465C16 303.62 16.786 305.37 17.067 305.968C16.7826 306.562 16 308.25 16 310.471V311.597H17.1375C20.0609 311.597 21.8559 310.374 22.7545 309.662C24.1002 311.034 26.0191 312.481 28.442 313.567C28.3351 314.266 28.2509 315.242 28.5478 316.382L28.7616 317.226H29.65C31.0537 317.226 32.2629 316.536 33.24 315.924C34.0396 315.422 34.4264 315.071 34.6266 314.903C39.1504 314.746 42.0386 312.331 43.5844 309.943C45.1837 307.477 45.575 305.018 45.575 305.018L45.6103 304.737L45.5045 304.455C45.5045 304.455 42.8996 297.375 35.8358 297.032C35.085 296.131 34.0351 295.384 32.5654 294.781C30.8273 294.069 28.6411 293.585 26.2375 293.585H24.5313ZM27.8368 295.977C29.2724 296.135 30.6146 296.422 31.6759 296.856C33.1296 297.451 34.142 298.303 34.3775 298.686L34.6983 299.214H35.3375C41.0205 299.214 43.0646 304.539 43.2295 304.983C43.1499 305.396 42.82 306.967 41.6655 308.748C40.3448 310.783 38.2074 312.723 34.2 312.723H33.7735L33.4538 313.004C33.4538 313.004 32.8532 313.511 32.032 314.024C31.5997 314.293 31.2323 314.342 30.7875 314.517C30.833 314.003 30.7875 313.251 30.7875 313.251L31.0366 312.266L30.1118 311.948C27.2954 310.884 24.8998 308.879 23.6781 307.481L22.8955 306.566L22.0424 307.41C22.0424 307.41 20.5273 308.462 18.5594 308.958C18.8529 307.639 19.3056 306.461 19.3056 306.461L19.5547 305.968L19.3056 305.475C19.3056 305.475 18.813 304.183 18.5241 302.802C20.6205 303.26 22.0424 304.526 22.0424 304.526L22.8955 305.37L23.6781 304.455C24.6962 303.317 27.4376 300.48 31.4632 299.952L31.1424 297.736C30.0538 297.877 29.104 298.189 28.1929 298.546C28.1349 297.601 28.086 296.787 27.8368 295.977V295.977ZM38.1813 303.717C37.7288 303.717 37.2948 303.895 36.9748 304.211C36.6548 304.528 36.475 304.958 36.475 305.405C36.475 305.853 36.6548 306.283 36.9748 306.599C37.2948 306.916 37.7288 307.094 38.1813 307.094C38.6338 307.094 39.0678 306.916 39.3878 306.599C39.7078 306.283 39.8875 305.853 39.8875 305.405C39.8875 304.958 39.7078 304.528 39.3878 304.211C39.0678 303.895 38.6338 303.717 38.1813 303.717Z" fill="#F1F1F1"/>
<path d="M85.0903 344.957L85.7307 346.505C86.13 347.467 86.6726 349.873 86.5475 351.008C84.9971 351.953 84.0461 352.876 83.3124 353.647C82.4161 352.929 80.6427 351.711 77.6966 351.711H76.5591V352.837C76.5591 354.992 77.3451 356.742 77.626 357.34C77.3417 357.933 76.5591 359.622 76.5591 361.843V362.969H77.6966C80.6199 362.969 82.4149 361.746 83.3136 361.034C84.6592 362.406 86.5782 363.853 89.0011 364.939C88.8941 365.638 88.81 366.614 89.1069 367.753L89.3207 368.598H90.2091C91.6128 368.598 92.8219 367.908 93.799 367.296C94.5987 366.794 94.9855 366.443 95.1857 366.275C99.7095 366.118 102.598 363.703 104.143 361.315C105.743 358.849 106.134 356.39 106.134 356.39L106.169 356.109L106.064 355.827C106.064 355.827 103.459 348.747 96.3948 348.404C95.6441 347.503 94.5942 346.756 93.1245 346.152C91.3864 345.441 89.2001 344.957 86.7966 344.957H85.0903ZM88.3959 347.349C89.8314 347.507 91.1737 347.794 92.235 348.228C93.6887 348.823 94.7011 349.675 94.9365 350.058L95.2573 350.586H95.8966C101.58 350.586 103.624 355.91 103.789 356.355C103.709 356.768 103.379 358.339 102.225 360.12C100.904 362.155 98.7665 364.095 94.7591 364.095H94.3325L94.0129 364.376C94.0129 364.376 93.4123 364.883 92.591 365.396C92.1588 365.665 91.7914 365.713 91.3466 365.889C91.3921 365.375 91.3466 364.623 91.3466 364.623L91.5957 363.638L90.6709 363.32C87.8545 362.256 85.4589 360.251 84.2372 358.853L83.4546 357.938L82.6015 358.782C82.6015 358.782 81.0863 359.834 79.1184 360.33C79.4119 359.011 79.8646 357.833 79.8646 357.833L80.1138 357.34L79.8646 356.847C79.8646 356.847 79.3721 355.555 79.0832 354.173C81.1796 354.632 82.6015 355.898 82.6015 355.898L83.4546 356.742L84.2372 355.827C85.2553 354.689 87.9966 351.852 92.0223 351.324L91.7015 349.107C90.6129 349.249 89.6631 349.561 88.752 349.918C88.6939 348.972 88.645 348.158 88.3959 347.349V347.349ZM98.7404 355.089C98.2878 355.089 97.8538 355.267 97.5339 355.583C97.2139 355.9 97.0341 356.329 97.0341 356.777C97.0341 357.225 97.2139 357.655 97.5339 357.971C97.8538 358.288 98.2878 358.466 98.7404 358.466C99.1929 358.466 99.6269 358.288 99.9469 357.971C100.267 357.655 100.447 357.225 100.447 356.777C100.447 356.329 100.267 355.9 99.9469 355.583C99.6269 355.267 99.1929 355.089 98.7404 355.089Z" fill="#F1F1F1"/>
<path d="M145.649 400.134L146.29 401.682C146.689 402.644 147.232 405.05 147.107 406.185C145.556 407.131 144.605 408.054 143.871 408.824C142.975 408.107 141.202 406.889 138.256 406.889H137.118V408.014C137.118 410.169 137.904 411.92 138.185 412.517C137.901 413.111 137.118 414.799 137.118 417.02V418.146H138.256C141.179 418.146 142.974 416.924 143.873 416.211C145.218 417.583 147.137 419.03 149.56 420.116C149.453 420.815 149.369 421.791 149.666 422.931L149.88 423.775H150.768C152.172 423.775 153.381 423.085 154.358 422.474C155.158 421.971 155.545 421.62 155.745 421.453C160.269 421.295 163.157 418.88 164.703 416.492C166.302 414.026 166.693 411.567 166.693 411.567L166.728 411.286L166.623 411.004C166.623 411.004 164.018 403.924 156.954 403.581C156.203 402.68 155.153 401.933 153.684 401.33C151.945 400.618 149.759 400.134 147.356 400.134H145.649ZM148.955 402.526C150.391 402.684 151.733 402.971 152.794 403.405C154.248 404 155.26 404.852 155.496 405.235L155.816 405.763H156.456C162.139 405.763 164.183 411.088 164.348 411.532C164.268 411.945 163.938 413.516 162.784 415.297C161.463 417.332 159.326 419.272 155.318 419.272H154.892L154.572 419.553C154.572 419.553 153.971 420.06 153.15 420.573C152.718 420.842 152.35 420.891 151.906 421.066C151.951 420.552 151.906 419.8 151.906 419.8L152.155 418.815L151.23 418.497C148.414 417.434 146.018 415.429 144.796 414.03L144.014 413.115L143.161 413.959C143.161 413.959 141.645 415.011 139.678 415.507C139.971 414.188 140.424 413.01 140.424 413.01L140.673 412.517L140.424 412.024C140.424 412.024 139.931 410.732 139.642 409.351C141.739 409.809 143.161 411.075 143.161 411.075L144.014 411.92L144.796 411.004C145.814 409.866 148.556 407.029 152.581 406.501L152.261 404.285C151.172 404.427 150.222 404.738 149.311 405.095C149.253 404.15 149.204 403.336 148.955 402.526V402.526ZM159.299 410.266C158.847 410.266 158.413 410.444 158.093 410.76C157.773 411.077 157.593 411.507 157.593 411.954C157.593 412.402 157.773 412.832 158.093 413.149C158.413 413.465 158.847 413.643 159.299 413.643C159.752 413.643 160.186 413.465 160.506 413.149C160.826 412.832 161.006 412.402 161.006 411.954C161.006 411.507 160.826 411.077 160.506 410.76C160.186 410.444 159.752 410.266 159.299 410.266Z" fill="#F1F1F1"/>
<path d="M144.904 20.8491L141.871 17.8471H161.588L158.554 20.8491H144.904ZM150.213 29.8552V38.8613H142.629V41.8633H160.829V38.8613H153.246V29.8552L165.379 17.8471V14.8451H138.079V17.8471L150.213 29.8552Z" fill="#F1F1F1"/>
<path d="M205.463 76.0263L202.43 73.0242H222.147L219.113 76.0263H205.463ZM210.772 85.0323V94.0384H203.188V97.0404H221.388V94.0384H213.805V85.0323L225.939 73.0242V70.0222H198.638V73.0242L210.772 85.0323Z" fill="#F1F1F1"/>
<path d="M264.1 130.252L261.067 127.25H280.783L277.75 130.252H264.1ZM269.408 139.258V148.264H261.825V151.266H280.025V148.264H272.442V139.258L284.575 127.25V124.248H257.275V127.25L269.408 139.258Z" fill="#F1F1F1"/>
<path d="M323.698 187.332L320.665 184.33H340.381L337.348 187.332H323.698ZM329.006 196.338V205.344H321.423V208.346H339.623V205.344H332.04V196.338L344.173 184.33V181.328H316.873V184.33L329.006 196.338Z" fill="#F1F1F1"/>
<path d="M23.7863 245.363L20.7529 242.361H40.4696L37.4363 245.363H23.7863ZM29.0946 254.369V263.375H21.5113V266.377H39.7113V263.375H32.1279V254.369L44.2613 242.361V239.359H16.9613V242.361L29.0946 254.369Z" fill="#F1F1F1"/>
<path d="M84.3453 296.735L81.312 293.733H101.029L97.9954 296.735H84.3453ZM89.6537 305.741V314.747H82.0703V317.749H100.27V314.747H92.687V305.741L104.82 293.733V290.731H77.5203V293.733L89.6537 305.741Z" fill="#F1F1F1"/>
<path d="M144.904 351.912L141.871 348.91H161.588L158.554 351.912H144.904ZM150.213 360.918V369.924H142.629V372.926H160.829V369.924H153.246V360.918L165.379 348.91V345.908H138.079V348.91L150.213 360.918Z" fill="#F1F1F1"/>
<path d="M205.463 406.138L202.43 403.136H222.147L219.113 406.138H205.463ZM210.772 415.144V424.15H203.188V427.152H221.388V424.15H213.805V415.144L225.939 403.136V400.134H198.638V403.136L210.772 415.144Z" fill="#F1F1F1"/>
<path d="M324.947 91.9029V95.8985H335.713V86.5754H324.947V91.9029ZM322.256 89.2391V86.5754H319.564V83.9117H322.256V81.248H319.564V89.2391H322.256ZM322.256 91.9029H319.564V93.2347C319.564 93.9412 319.848 94.6187 320.353 95.1183C320.857 95.6178 321.542 95.8985 322.256 95.8985V91.9029ZM341.096 89.2391V81.248H338.405V83.9117H341.096V86.5754H338.405V89.2391H341.096ZM341.096 91.9029H338.405V95.8985C339.119 95.8985 339.803 95.6178 340.308 95.1183C340.813 94.6187 341.096 93.9412 341.096 93.2347V91.9029ZM335.713 81.248V74.5887H324.947V83.9117H335.713V81.248ZM341.096 78.5842V77.2524C341.096 76.5459 340.813 75.8684 340.308 75.3688C339.803 74.8693 339.119 74.5887 338.405 74.5887V78.5842H341.096ZM322.256 78.5842V74.5887C321.542 74.5887 320.857 74.8693 320.353 75.3688C319.848 75.8684 319.564 76.5459 319.564 77.2524V78.5842H322.256ZM322.256 71.9249H338.405C339.833 71.9249 341.202 72.4862 342.211 73.4853C343.221 74.4844 343.788 75.8394 343.788 77.2524V93.2347C343.788 94.6477 343.221 96.0027 342.211 97.0018C341.202 98.0009 339.833 98.5622 338.405 98.5622H322.256C320.828 98.5622 319.459 98.0009 318.449 97.0018C317.44 96.0027 316.873 94.6477 316.873 93.2347V77.2524C316.873 75.8394 317.44 74.4844 318.449 73.4853C319.459 72.4862 320.828 71.9249 322.256 71.9249V71.9249Z" fill="#F1F1F1"/>
<path d="M146.154 256.483V260.479H156.92V251.156H146.154V256.483ZM143.462 253.819V251.156H140.771V248.492H143.462V245.828H140.771V253.819H143.462ZM143.462 256.483H140.771V257.815C140.771 258.521 141.054 259.199 141.559 259.698C142.064 260.198 142.749 260.479 143.462 260.479V256.483ZM162.303 253.819V245.828H159.612V248.492H162.303V251.156H159.612V253.819H162.303ZM162.303 256.483H159.612V260.479C160.325 260.479 161.01 260.198 161.515 259.698C162.019 259.199 162.303 258.521 162.303 257.815V256.483ZM156.92 245.828V239.169H146.154V248.492H156.92V245.828ZM162.303 243.164V241.833C162.303 241.126 162.019 240.449 161.515 239.949C161.01 239.449 160.325 239.169 159.612 239.169V243.164H162.303ZM143.462 243.164V239.169C142.749 239.169 142.064 239.449 141.559 239.949C141.054 240.449 140.771 241.126 140.771 241.833V243.164H143.462ZM143.462 236.505H159.612C161.039 236.505 162.408 237.066 163.418 238.066C164.427 239.065 164.995 240.42 164.995 241.833V257.815C164.995 259.228 164.427 260.583 163.418 261.582C162.408 262.581 161.039 263.142 159.612 263.142H143.462C142.035 263.142 140.666 262.581 139.656 261.582C138.647 260.583 138.079 259.228 138.079 257.815V241.833C138.079 240.42 138.647 239.065 139.656 238.066C140.666 237.066 142.035 236.505 143.462 236.505V236.505Z" fill="#F1F1F1"/>
<path d="M206.713 310.709V314.704H217.479V305.381H206.713V310.709ZM204.021 308.045V305.381H201.33V302.718H204.021V300.054H201.33V308.045H204.021ZM204.021 310.709H201.33V312.041C201.33 312.747 201.614 313.425 202.118 313.924C202.623 314.424 203.308 314.704 204.021 314.704V310.709ZM222.862 308.045V300.054H220.171V302.718H222.862V305.381H220.171V308.045H222.862ZM222.862 310.709H220.171V314.704C220.884 314.704 221.569 314.424 222.074 313.924C222.579 313.425 222.862 312.747 222.862 312.041V310.709ZM217.479 300.054V293.395H206.713V302.718H217.479V300.054ZM222.862 297.39V296.058C222.862 295.352 222.579 294.674 222.074 294.175C221.569 293.675 220.884 293.395 220.171 293.395V297.39H222.862ZM204.021 297.39V293.395C203.308 293.395 202.623 293.675 202.118 294.175C201.614 294.674 201.33 295.352 201.33 296.058V297.39H204.021ZM204.021 290.731H220.171C221.598 290.731 222.967 291.292 223.977 292.291C224.986 293.29 225.554 294.645 225.554 296.058V312.041C225.554 313.454 224.986 314.809 223.977 315.808C222.967 316.807 221.598 317.368 220.171 317.368H204.021C202.594 317.368 201.225 316.807 200.215 315.808C199.206 314.809 198.638 313.454 198.638 312.041V296.058C198.638 294.645 199.206 293.29 200.215 292.291C201.225 291.292 202.594 290.731 204.021 290.731V290.731Z" fill="#F1F1F1"/>
<path d="M265.35 364.935V368.93H276.116V359.607H265.35V364.935ZM262.658 362.271V359.607H259.967V356.944H262.658V354.28H259.967V362.271H262.658ZM262.658 364.935H259.967V366.267C259.967 366.973 260.25 367.651 260.755 368.15C261.26 368.65 261.944 368.93 262.658 368.93V364.935ZM281.499 362.271V354.28H278.807V356.944H281.499V359.607H278.807V362.271H281.499ZM281.499 364.935H278.807V368.93C279.521 368.93 280.206 368.65 280.71 368.15C281.215 367.651 281.499 366.973 281.499 366.267V364.935ZM276.116 354.28V347.621H265.35V356.944H276.116V354.28ZM281.499 351.616V350.284C281.499 349.578 281.215 348.9 280.71 348.401C280.206 347.901 279.521 347.621 278.807 347.621V351.616H281.499ZM262.658 351.616V347.621C261.944 347.621 261.26 347.901 260.755 348.401C260.25 348.9 259.967 349.578 259.967 350.284V351.616H262.658ZM262.658 344.957H278.807C280.235 344.957 281.604 345.518 282.614 346.517C283.623 347.516 284.19 348.871 284.19 350.284V366.267C284.19 367.68 283.623 369.035 282.614 370.034C281.604 371.033 280.235 371.594 278.807 371.594H262.658C261.23 371.594 259.861 371.033 258.852 370.034C257.842 369.035 257.275 367.68 257.275 366.267V350.284C257.275 348.871 257.842 347.516 258.852 346.517C259.861 345.518 261.23 344.957 262.658 344.957V344.957Z" fill="#F1F1F1"/>
<path d="M324.947 422.015V426.01H335.713V416.687H324.947V422.015ZM322.256 419.351V416.687H319.564V414.023H322.256V411.36H319.564V419.351H322.256ZM322.256 422.015H319.564V423.346C319.564 424.053 319.848 424.73 320.353 425.23C320.857 425.729 321.542 426.01 322.256 426.01V422.015ZM341.096 419.351V411.36H338.405V414.023H341.096V416.687H338.405V419.351H341.096ZM341.096 422.015H338.405V426.01C339.119 426.01 339.803 425.729 340.308 425.23C340.813 424.73 341.096 424.053 341.096 423.346V422.015ZM335.713 411.36V404.7H324.947V414.023H335.713V411.36ZM341.096 408.696V407.364C341.096 406.658 340.813 405.98 340.308 405.481C339.803 404.981 339.119 404.7 338.405 404.7V408.696H341.096ZM322.256 408.696V404.7C321.542 404.7 320.857 404.981 320.353 405.481C319.848 405.98 319.564 406.658 319.564 407.364V408.696H322.256ZM322.256 402.037H338.405C339.833 402.037 341.202 402.598 342.211 403.597C343.221 404.596 343.788 405.951 343.788 407.364V423.346C343.788 424.759 343.221 426.114 342.211 427.113C341.202 428.113 339.833 428.674 338.405 428.674H322.256C320.828 428.674 319.459 428.113 318.449 427.113C317.44 426.114 316.873 424.759 316.873 423.346V407.364C316.873 405.951 317.44 404.596 318.449 403.597C319.459 402.598 320.828 402.037 322.256 402.037V402.037Z" fill="#F1F1F1"/>
<path fill-rule="evenodd" clip-rule="evenodd" d="M38.6429 204.107V208.705C38.6429 210.391 37.2491 211.77 35.5455 211.77H20.0586C18.3551 211.77 16.9613 210.391 16.9613 208.705V187.247C16.9613 186.434 17.2876 185.655 17.8685 185.08C18.4493 184.505 19.2372 184.182 20.0586 184.182H35.5455C36.367 184.182 37.1548 184.505 37.7357 185.08C38.3166 185.655 38.6429 186.434 38.6429 187.247V190.313H41.7403C42.5617 190.313 43.3496 190.636 43.9304 191.211C44.5113 191.785 44.8376 192.565 44.8376 193.378V201.042C44.8376 201.855 44.5113 202.634 43.9304 203.209C43.3496 203.784 42.5617 204.107 41.7403 204.107H38.6429ZM20.0586 187.247V191.845H35.5455V187.247H20.0586ZM20.0586 194.911V208.705H35.5455V194.911H20.0586ZM26.2534 204.107C26.2534 204.513 26.0902 204.903 25.7998 205.191C25.5093 205.478 25.1154 205.64 24.7047 205.64C24.294 205.64 23.9 205.478 23.6096 205.191C23.3192 204.903 23.156 204.513 23.156 204.107V199.509C23.156 199.102 23.3192 198.713 23.6096 198.425C23.9 198.138 24.294 197.976 24.7047 197.976C25.1154 197.976 25.5093 198.138 25.7998 198.425C26.0902 198.713 26.2534 199.102 26.2534 199.509V204.107ZM32.4481 204.107C32.4481 204.513 32.285 204.903 31.9945 205.191C31.7041 205.478 31.3102 205.64 30.8995 205.64C30.4887 205.64 30.0948 205.478 29.8044 205.191C29.5139 204.903 29.3508 204.513 29.3508 204.107V199.509C29.3508 199.102 29.5139 198.713 29.8044 198.425C30.0948 198.138 30.4887 197.976 30.8995 197.976C31.3102 197.976 31.7041 198.138 31.9945 198.425C32.285 198.713 32.4481 199.102 32.4481 199.509V204.107ZM38.6429 193.378H41.7403V201.042H38.6429V193.378Z" fill="#F1F1F1"/>
<path fill-rule="evenodd" clip-rule="evenodd" d="M99.202 255.479V260.077C99.202 261.763 97.8081 263.142 96.1046 263.142H80.6177C78.9141 263.142 77.5203 261.763 77.5203 260.077V238.619C77.5203 237.806 77.8467 237.026 78.4275 236.452C79.0084 235.877 79.7962 235.554 80.6177 235.554H96.1046C96.9261 235.554 97.7139 235.877 98.2948 236.452C98.8756 237.026 99.202 237.806 99.202 238.619V241.685H102.299C103.121 241.685 103.909 242.007 104.49 242.582C105.07 243.157 105.397 243.937 105.397 244.75V252.413C105.397 253.226 105.07 254.006 104.49 254.581C103.909 255.156 103.121 255.479 102.299 255.479H99.202ZM80.6177 238.619V243.217H96.1046V238.619H80.6177ZM80.6177 246.283V260.077H96.1046V246.283H80.6177ZM86.8125 255.479C86.8125 255.885 86.6493 256.275 86.3589 256.563C86.0684 256.85 85.6745 257.012 85.2638 257.012C84.853 257.012 84.4591 256.85 84.1687 256.563C83.8782 256.275 83.7151 255.885 83.7151 255.479V250.881C83.7151 250.474 83.8782 250.084 84.1687 249.797C84.4591 249.509 84.853 249.348 85.2638 249.348C85.6745 249.348 86.0684 249.509 86.3589 249.797C86.6493 250.084 86.8125 250.474 86.8125 250.881V255.479ZM93.0072 255.479C93.0072 255.885 92.844 256.275 92.5536 256.563C92.2632 256.85 91.8693 257.012 91.4585 257.012C91.0478 257.012 90.6539 256.85 90.3634 256.563C90.073 256.275 89.9098 255.885 89.9098 255.479V250.881C89.9098 250.474 90.073 250.084 90.3634 249.797C90.6539 249.509 91.0478 249.348 91.4585 249.348C91.8693 249.348 92.2632 249.509 92.5536 249.797C92.844 250.084 93.0072 250.474 93.0072 250.881V255.479ZM99.202 244.75H102.299V252.413H99.202V244.75Z" fill="#F1F1F1"/>
<path fill-rule="evenodd" clip-rule="evenodd" d="M220.32 34.7702V39.3683C220.32 41.0542 218.926 42.4337 217.223 42.4337H201.736C200.032 42.4337 198.638 41.0542 198.638 39.3683V17.9105C198.638 17.0975 198.965 16.3178 199.546 15.7429C200.127 15.1681 200.914 14.8451 201.736 14.8451H217.223C218.044 14.8451 218.832 15.1681 219.413 15.7429C219.994 16.3178 220.32 17.0975 220.32 17.9105V20.9759H223.417C224.239 20.9759 225.027 21.2989 225.608 21.8737C226.189 22.4486 226.515 23.2283 226.515 24.0413V31.7048C226.515 32.5178 226.189 33.2975 225.608 33.8723C225.027 34.4472 224.239 34.7702 223.417 34.7702H220.32ZM201.736 17.9105V22.5086H217.223V17.9105H201.736ZM201.736 25.574V39.3683H217.223V25.574H201.736ZM207.931 34.7702C207.931 35.1767 207.767 35.5665 207.477 35.854C207.187 36.1414 206.793 36.3029 206.382 36.3029C205.971 36.3029 205.577 36.1414 205.287 35.854C204.996 35.5665 204.833 35.1767 204.833 34.7702V30.1721C204.833 29.7656 204.996 29.3757 205.287 29.0883C205.577 28.8009 205.971 28.6394 206.382 28.6394C206.793 28.6394 207.187 28.8009 207.477 29.0883C207.767 29.3757 207.931 29.7656 207.931 30.1721V34.7702ZM214.125 34.7702C214.125 35.1767 213.962 35.5665 213.672 35.854C213.381 36.1414 212.987 36.3029 212.577 36.3029C212.166 36.3029 211.772 36.1414 211.482 35.854C211.191 35.5665 211.028 35.1767 211.028 34.7702V30.1721C211.028 29.7656 211.191 29.3757 211.482 29.0883C211.772 28.8009 212.166 28.6394 212.577 28.6394C212.987 28.6394 213.381 28.8009 213.672 29.0883C213.962 29.3757 214.125 29.7656 214.125 30.1721V34.7702ZM220.32 24.0413H223.417V31.7048H220.32V24.0413Z" fill="#F1F1F1"/>
<path fill-rule="evenodd" clip-rule="evenodd" d="M278.957 88.996V93.5941C278.957 95.2801 277.563 96.6595 275.859 96.6595H260.372C258.669 96.6595 257.275 95.2801 257.275 93.5941V72.1363C257.275 71.3233 257.601 70.5436 258.182 69.9688C258.763 69.3939 259.551 69.0709 260.372 69.0709H275.859C276.681 69.0709 277.469 69.3939 278.049 69.9688C278.63 70.5436 278.957 71.3233 278.957 72.1363V75.2017H282.054C282.876 75.2017 283.663 75.5247 284.244 76.0996C284.825 76.6744 285.151 77.4541 285.151 78.2671V85.9306C285.151 86.7436 284.825 87.5233 284.244 88.0982C283.663 88.6731 282.876 88.996 282.054 88.996H278.957ZM260.372 72.1363V76.7344H275.859V72.1363H260.372ZM260.372 79.7998V93.5941H275.859V79.7998H260.372ZM266.567 88.996C266.567 89.4025 266.404 89.7924 266.114 90.0798C265.823 90.3672 265.429 90.5287 265.018 90.5287C264.608 90.5287 264.214 90.3672 263.923 90.0798C263.633 89.7924 263.47 89.4025 263.47 88.996V84.3979C263.47 83.9914 263.633 83.6016 263.923 83.3141C264.214 83.0267 264.608 82.8652 265.018 82.8652C265.429 82.8652 265.823 83.0267 266.114 83.3141C266.404 83.6016 266.567 83.9914 266.567 84.3979V88.996ZM272.762 88.996C272.762 89.4025 272.599 89.7924 272.308 90.0798C272.018 90.3672 271.624 90.5287 271.213 90.5287C270.802 90.5287 270.409 90.3672 270.118 90.0798C269.828 89.7924 269.665 89.4025 269.665 88.996V84.3979C269.665 83.9914 269.828 83.6016 270.118 83.3141C270.409 83.0267 270.802 82.8652 271.213 82.8652C271.624 82.8652 272.018 83.0267 272.308 83.3141C272.599 83.6016 272.762 83.9914 272.762 84.3979V88.996ZM278.957 78.2671H282.054V85.9306H278.957V78.2671Z" fill="#F1F1F1"/>
<path fill-rule="evenodd" clip-rule="evenodd" d="M338.554 146.076V150.674C338.554 152.36 337.161 153.739 335.457 153.739H319.97C318.267 153.739 316.873 152.36 316.873 150.674V129.216C316.873 128.403 317.199 127.623 317.78 127.049C318.361 126.474 319.149 126.151 319.97 126.151H335.457C336.279 126.151 337.066 126.474 337.647 127.049C338.228 127.623 338.554 128.403 338.554 129.216V132.282H341.652C342.473 132.282 343.261 132.605 343.842 133.179C344.423 133.754 344.749 134.534 344.749 135.347V143.01C344.749 143.823 344.423 144.603 343.842 145.178C343.261 145.753 342.473 146.076 341.652 146.076H338.554ZM319.97 129.216V133.814H335.457V129.216H319.97ZM319.97 136.88V150.674H335.457V136.88H319.97ZM326.165 146.076C326.165 146.482 326.002 146.872 325.711 147.16C325.421 147.447 325.027 147.609 324.616 147.609C324.206 147.609 323.812 147.447 323.521 147.16C323.231 146.872 323.068 146.482 323.068 146.076V141.478C323.068 141.071 323.231 140.681 323.521 140.394C323.812 140.107 324.206 139.945 324.616 139.945C325.027 139.945 325.421 140.107 325.711 140.394C326.002 140.681 326.165 141.071 326.165 141.478V146.076ZM332.36 146.076C332.36 146.482 332.197 146.872 331.906 147.16C331.616 147.447 331.222 147.609 330.811 147.609C330.4 147.609 330.006 147.447 329.716 147.16C329.426 146.872 329.262 146.482 329.262 146.076V141.478C329.262 141.071 329.426 140.681 329.716 140.394C330.006 140.107 330.4 139.945 330.811 139.945C331.222 139.945 331.616 140.107 331.906 140.394C332.197 140.681 332.36 141.071 332.36 141.478V146.076ZM338.554 135.347H341.652V143.01H338.554V135.347Z" fill="#F1F1F1"/>
<path fill-rule="evenodd" clip-rule="evenodd" d="M159.761 310.656V315.254C159.761 316.94 158.367 318.32 156.664 318.32H141.177C139.473 318.32 138.079 316.94 138.079 315.254V293.796C138.079 292.983 138.406 292.204 138.987 291.629C139.567 291.054 140.355 290.731 141.177 290.731H156.664C157.485 290.731 158.273 291.054 158.854 291.629C159.435 292.204 159.761 292.983 159.761 293.796V296.862H162.858C163.68 296.862 164.468 297.185 165.049 297.76C165.629 298.334 165.956 299.114 165.956 299.927V307.591C165.956 308.404 165.629 309.183 165.049 309.758C164.468 310.333 163.68 310.656 162.858 310.656H159.761ZM141.177 293.796V298.394H156.664V293.796H141.177ZM141.177 301.46V315.254H156.664V301.46H141.177ZM147.372 310.656C147.372 311.063 147.208 311.452 146.918 311.74C146.627 312.027 146.234 312.189 145.823 312.189C145.412 312.189 145.018 312.027 144.728 311.74C144.437 311.452 144.274 311.063 144.274 310.656V306.058C144.274 305.651 144.437 305.262 144.728 304.974C145.018 304.687 145.412 304.525 145.823 304.525C146.234 304.525 146.627 304.687 146.918 304.974C147.208 305.262 147.372 305.651 147.372 306.058V310.656ZM153.566 310.656C153.566 311.063 153.403 311.452 153.113 311.74C152.822 312.027 152.428 312.189 152.018 312.189C151.607 312.189 151.213 312.027 150.922 311.74C150.632 311.452 150.469 311.063 150.469 310.656V306.058C150.469 305.651 150.632 305.262 150.922 304.974C151.213 304.687 151.607 304.525 152.018 304.525C152.428 304.525 152.822 304.687 153.113 304.974C153.403 305.262 153.566 305.651 153.566 306.058V310.656ZM159.761 299.927H162.858V307.591H159.761V299.927Z" fill="#F1F1F1"/>
<path fill-rule="evenodd" clip-rule="evenodd" d="M220.32 364.882V369.48C220.32 371.166 218.926 372.545 217.223 372.545H201.736C200.032 372.545 198.638 371.166 198.638 369.48V348.022C198.638 347.209 198.965 346.429 199.546 345.855C200.127 345.28 200.914 344.957 201.736 344.957H217.223C218.044 344.957 218.832 345.28 219.413 345.855C219.994 346.429 220.32 347.209 220.32 348.022V351.088H223.417C224.239 351.088 225.027 351.411 225.608 351.985C226.189 352.56 226.515 353.34 226.515 354.153V361.816C226.515 362.629 226.189 363.409 225.608 363.984C225.027 364.559 224.239 364.882 223.417 364.882H220.32ZM201.736 348.022V352.62H217.223V348.022H201.736ZM201.736 355.686V369.48H217.223V355.686H201.736ZM207.931 364.882C207.931 365.288 207.767 365.678 207.477 365.966C207.187 366.253 206.793 366.415 206.382 366.415C205.971 366.415 205.577 366.253 205.287 365.966C204.996 365.678 204.833 365.288 204.833 364.882V360.284C204.833 359.877 204.996 359.487 205.287 359.2C205.577 358.913 205.971 358.751 206.382 358.751C206.793 358.751 207.187 358.913 207.477 359.2C207.767 359.487 207.931 359.877 207.931 360.284V364.882ZM214.125 364.882C214.125 365.288 213.962 365.678 213.672 365.966C213.381 366.253 212.987 366.415 212.577 366.415C212.166 366.415 211.772 366.253 211.482 365.966C211.191 365.678 211.028 365.288 211.028 364.882V360.284C211.028 359.877 211.191 359.487 211.482 359.2C211.772 358.913 212.166 358.751 212.577 358.751C212.987 358.751 213.381 358.913 213.672 359.2C213.962 359.487 214.125 359.877 214.125 360.284V364.882ZM220.32 354.153H223.417V361.816H220.32V354.153Z" fill="#F1F1F1"/>
<path fill-rule="evenodd" clip-rule="evenodd" d="M278.957 419.108V423.706C278.957 425.392 277.563 426.771 275.859 426.771H260.372C258.669 426.771 257.275 425.392 257.275 423.706V402.248C257.275 401.435 257.601 400.655 258.182 400.08C258.763 399.506 259.551 399.183 260.372 399.183H275.859C276.681 399.183 277.469 399.506 278.049 400.08C278.63 400.655 278.957 401.435 278.957 402.248V405.313H282.054C282.876 405.313 283.663 405.636 284.244 406.211C284.825 406.786 285.151 407.566 285.151 408.379V416.042C285.151 416.855 284.825 417.635 284.244 418.21C283.663 418.785 282.876 419.108 282.054 419.108H278.957ZM260.372 402.248V406.846H275.859V402.248H260.372ZM260.372 409.912V423.706H275.859V409.912H260.372ZM266.567 419.108C266.567 419.514 266.404 419.904 266.114 420.191C265.823 420.479 265.429 420.64 265.018 420.64C264.608 420.64 264.214 420.479 263.923 420.191C263.633 419.904 263.47 419.514 263.47 419.108V414.51C263.47 414.103 263.633 413.713 263.923 413.426C264.214 413.138 264.608 412.977 265.018 412.977C265.429 412.977 265.823 413.138 266.114 413.426C266.404 413.713 266.567 414.103 266.567 414.51V419.108ZM272.762 419.108C272.762 419.514 272.599 419.904 272.308 420.191C272.018 420.479 271.624 420.64 271.213 420.64C270.802 420.64 270.409 420.479 270.118 420.191C269.828 419.904 269.665 419.514 269.665 419.108V414.51C269.665 414.103 269.828 413.713 270.118 413.426C270.409 413.138 270.802 412.977 271.213 412.977C271.624 412.977 272.018 413.138 272.308 413.426C272.599 413.713 272.762 414.103 272.762 414.51V419.108ZM278.957 408.379H282.054V416.042H278.957V408.379Z" fill="#F1F1F1"/>
<path d="M0 458.5L360 396V688H0L0 458.5Z" fill="#EDEBEB"/>
</svg>
